<?xml version="1.0" encoding="utf-8"?>
<!-- Generator: Adobe Illustrator 25.3.1, SVG Export Plug-In . SVG Version: 6.00 Build 0)  -->
<svg version="1.1" id="Layer_1" xmlns="http://www.w3.org/2000/svg" xmlns:xlink="http://www.w3.org/1999/xlink" x="0px" y="0px"
	 viewBox="0 0 1000 500" style="enable-background:new 0 0 1000 500;" xml:space="preserve">
<style type="text/css">
	.st0{display:none;}
	.st1{display:inline;stroke:#000000;stroke-width:0.5;stroke-miterlimit:10;}
	.st2{display:inline;fill:none;stroke:#FFFFFF;stroke-width:0.5;stroke-miterlimit:10;}
	.st3{display:inline;}
	.st4{fill:none;stroke:#FFFFFF;stroke-width:0.5;stroke-miterlimit:10;}
	.st5{fill:url(#SVGID_1_);}
	.st6{fill:url(#SVGID_2_);}
	.st7{fill:url(#SVGID_3_);}
	.st8{clip-path:url(#SVGID_5_);}
	.st9{fill:none;stroke:#000000;stroke-width:0.25;stroke-miterlimit:10;}
	.st10{clip-path:url(#SVGID_6_);}
	.st11{clip-path:url(#SVGID_7_);}
	.st12{clip-path:url(#SVGID_9_);}
	.st13{clip-path:url(#SVGID_10_);}
	.st14{clip-path:url(#SVGID_11_);}
	.st15{clip-path:url(#SVGID_13_);}
	.st16{clip-path:url(#SVGID_14_);}
	.st17{clip-path:url(#SVGID_15_);}
	.st18{clip-path:url(#SVGID_17_);}
	.st19{clip-path:url(#SVGID_18_);}
	.st20{clip-path:url(#SVGID_19_);}
	.st21{fill:url(#SVGID_21_);}
	.st22{clip-path:url(#SVGID_22_);}
	.st23{fill:none;}
	.st24{fill:none;stroke:#000000;stroke-width:0.5;stroke-miterlimit:10;}
	.st25{clip-path:url(#SVGID_23_);}
	.st26{clip-path:url(#SVGID_25_);}
	.st27{clip-path:url(#SVGID_26_);}
	.st28{clip-path:url(#SVGID_27_);}
	.st29{clip-path:url(#SVGID_29_);}
	.st30{clip-path:url(#SVGID_30_);}
	.st31{clip-path:url(#SVGID_31_);}
	.st32{clip-path:url(#SVGID_33_);}
	.st33{clip-path:url(#SVGID_34_);}
	.st34{clip-path:url(#SVGID_35_);}
	.st35{clip-path:url(#SVGID_37_);}
	.st36{clip-path:url(#SVGID_38_);}
	.st37{clip-path:url(#SVGID_39_);}
	.st38{clip-path:url(#SVGID_41_);}
	.st39{clip-path:url(#SVGID_42_);}
	.st40{clip-path:url(#SVGID_43_);}
	.st41{clip-path:url(#SVGID_45_);}
	.st42{clip-path:url(#SVGID_46_);}
	.st43{clip-path:url(#SVGID_47_);}
	.st44{clip-path:url(#SVGID_49_);}
	.st45{clip-path:url(#SVGID_50_);}
	.st46{clip-path:url(#SVGID_51_);}
	.st47{fill:none;stroke:#000000;stroke-miterlimit:10;}
	.st48{opacity:0.2;fill:url(#SVGID_52_);}
	.st49{opacity:0.2;fill:url(#SVGID_54_);}
	.st50{opacity:0.2;fill:url(#SVGID_55_);}
	.st51{opacity:0.2;fill:url(#SVGID_56_);}
	.st52{opacity:0.2;fill:url(#SVGID_58_);}
	.st53{opacity:0.2;fill:url(#SVGID_59_);}
	.st54{opacity:0.2;fill:url(#SVGID_60_);}
	.st55{opacity:0.2;fill:url(#SVGID_62_);}
	.st56{opacity:0.2;fill:url(#SVGID_63_);}
	.st57{opacity:0.2;fill:url(#SVGID_64_);}
	.st58{opacity:0.2;fill:url(#SVGID_66_);}
	.st59{opacity:0.2;fill:url(#SVGID_67_);}
	.st60{opacity:0.2;fill:url(#SVGID_68_);}
	.st61{opacity:0.2;fill:url(#SVGID_70_);}
	.st62{opacity:0.2;fill:url(#SVGID_71_);}
	.st63{opacity:0.2;fill:url(#SVGID_72_);}
	.st64{opacity:0.2;fill:url(#SVGID_74_);}
	.st65{opacity:0.2;fill:url(#SVGID_75_);}
	.st66{opacity:0.2;fill:url(#SVGID_76_);}
	.st67{opacity:0.5;fill:url(#SVGID_78_);}
	.st68{font-family:'GillSansNova-Light';}
	.st69{font-size:31.8764px;}
</style>
<g id="图层_1">
	<g id="background" class="st0">
		<rect x="761.7" y="479.1" class="st1" width="1044" height="500"/>
	</g>
</g>
<g>
	<g>
		<defs>
			<path id="SVGID_4_" d="M580,238.6c-9.6,3.5-18.8,17.3-16.2,36c1.9,13.4,2.3,21.7,2.1,27c0,0,3-5.4,6.8-9.4
				c4.3-4.7,6.6-8.7,8.4-7.4c1.8,1.3-0.7,7-4.1,11.5c-3.4,4.5-12.2,14.7-12.2,14.7c0,0.6,0.2,0.9,0.9,1.6c2.5,2.3,7.7-2.5,11.4-4.9
				c4.8-3.1,11.6-11.9,11.6-32.7c0-2.3,0-4.6,0-6.9c0,0-4.9,4.9-8.8,7.1c-4.1,2.4-10.4,3-12.8-1.2s0.3-12.7,3.2-21.7
				C573.3,243.1,580,238.6,580,238.6"/>
		</defs>
		<clipPath id="SVGID_1_">
			<use xlink:href="#SVGID_4_"  style="overflow:visible;"/>
		</clipPath>
	</g>
	<path class="st9" d="M580,238.6c-9.6,3.5-18.8,17.3-16.2,36c1.9,13.4,2.3,21.7,2.1,27c0,0,3-5.4,6.8-9.4c4.3-4.7,6.6-8.7,8.4-7.4
		c1.8,1.3-0.7,7-4.1,11.5c-3.4,4.5-12.2,14.7-12.2,14.7c0,0.6,0.2,0.9,0.9,1.6c2.5,2.3,7.7-2.5,11.4-4.9
		c4.8-3.1,11.6-11.9,11.6-32.7c0-2.3,0-4.6,0-6.9c0,0-4.9,4.9-8.8,7.1c-4.1,2.4-10.4,3-12.8-1.2s0.3-12.7,3.2-21.7
		C573.3,243.1,580,238.6,580,238.6"/>
</g>
<g>
	<g>
		<defs>
			<path id="SVGID_8_" d="M550.1,113.6c-1.6,0-3.3-0.1-5-0.2c-0.6,0-1.3-0.1-1.9-0.1c-0.5,0-1-0.1-1.5-0.1
				c-6-0.5-10.4-6.8-16.6-14.7c-6.2-8-14.5-10-12.8-14c0.1-0.2,0.2-0.4,0.3-0.5c0-0.1,0.1-0.1,0.1-0.1c0.1-0.1,0.1-0.1,0.2-0.2
				c0,0,0,0,0,0c0,0,0,0,0,0c0.2,0.1,6.6,2.1,10.7,2.4c4.2,0.3,7.2-0.5,7.2-0.5c0,0,0.1,0,0.1,0c0.5,0.2,1,0.3,1.5,0.5
				c1.7,0.6,3.5,1.2,5.3,1.9c0.2,0.1,0.5,0.2,0.7,0.3c0.5,0.2,0.9,0.4,1.4,0.6c1.5,0.7,3,1.5,4.5,2.4c0.2,0.1,0.4,0.2,0.6,0.3
				c0.1,0,0.1,0.1,0.2,0.1c0.1,0.1,0.3,0.1,0.4,0.2c1.2,0.7,2.3,1.4,3.5,2.2c0.4,0.2,0.7,0.5,1.1,0.8c0.1,0.1,0.2,0.1,0.3,0.2
				c-0.3-0.1-13.6-2.2-13.8,1.9C536.5,101.2,549.8,113.3,550.1,113.6z"/>
		</defs>
		<clipPath id="SVGID_2_">
			<use xlink:href="#SVGID_8_"  style="overflow:visible;"/>
		</clipPath>
	</g>
	<path class="st9" d="M550.1,113.6c-1.6,0-3.3-0.1-5-0.2c-0.6,0-1.3-0.1-1.9-0.1c-0.5,0-1-0.1-1.5-0.1c-6-0.5-10.4-6.8-16.6-14.7
		c-6.2-8-14.5-10-12.8-14c0.1-0.2,0.2-0.4,0.3-0.5c0-0.1,0.1-0.1,0.1-0.1c0.1-0.1,0.1-0.1,0.2-0.2c0,0,0,0,0,0c0,0,0,0,0,0
		c0.2,0.1,6.6,2.1,10.7,2.4c4.2,0.3,7.2-0.5,7.2-0.5c0,0,0.1,0,0.1,0c0.5,0.2,1,0.3,1.5,0.5c1.7,0.6,3.5,1.2,5.3,1.9
		c0.2,0.1,0.5,0.2,0.7,0.3c0.5,0.2,0.9,0.4,1.4,0.6c1.5,0.7,3,1.5,4.5,2.4c0.2,0.1,0.4,0.2,0.6,0.3c0.1,0,0.1,0.1,0.2,0.1
		c0.1,0.1,0.3,0.1,0.4,0.2c1.2,0.7,2.3,1.4,3.5,2.2c0.4,0.2,0.7,0.5,1.1,0.8c0.1,0.1,0.2,0.1,0.3,0.2c-0.3-0.1-13.6-2.2-13.8,1.9
		C536.5,101.2,549.8,113.3,550.1,113.6z"/>
</g>
<g>
	<g>
		<defs>
			<path id="SVGID_12_" d="M576.2,146.5C576.2,146.5,576.2,146.5,576.2,146.5c-0.4,0-0.7,0-1-0.1c-0.3,0-0.5,0-0.8-0.1
				c-0.1,0-0.2,0-0.4,0c-0.5,0-1.1-0.1-1.6-0.1c-1.4-0.1-2.8-0.2-4.3-0.3c-0.3,0-0.7,0-1-0.1c-0.6,0-1.2-0.1-1.8-0.1
				c-0.2,0-0.4,0-0.6,0c-0.3,0-0.6,0-0.8,0c-0.4,0-0.7,0-1.1,0c-13.1,0-23.2-1.8-23.2-7.4c0-0.2,0-0.3,0-0.5v0
				c0.3,0,3.6,0.4,5.7-1.2c2.1-1.6,3.7-6.2,3.8-6.4c0.1,0,0.2-0.1,0.4-0.1c0.9-0.2,1.8-0.4,2.8-0.6c0,0,0.1,0,0.1,0
				c0.3-0.1,0.6-0.1,0.9-0.2c0.1,0,0.2,0,0.3-0.1c0.6-0.1,1.2-0.2,1.8-0.3c0,0,0,0,0.1,0c0.3-0.1,0.7-0.1,1.1-0.2
				c0.4-0.1,0.8-0.1,1.2-0.2c0.4-0.1,0.8-0.1,1.2-0.1c6.5-0.8,14.2-1.5,18.1-0.3c0.3,0.1,0.7,0.2,1,0.4c0.1,0,0.2,0.1,0.3,0.1
				c0.1,0,0.2,0.1,0.3,0.1c0.2,0.1,0.3,0.2,0.5,0.2c0.2,0.1,0.3,0.2,0.5,0.3c0.1,0.1,0.2,0.2,0.4,0.2c0.1,0.1,0.3,0.2,0.4,0.3
				c0.4,0.3,0.8,0.6,1.1,0.9c0.1,0.1,0.2,0.2,0.3,0.3c0.3,0.3,0.6,0.7,0.9,1c0.1,0.1,0.2,0.2,0.3,0.4c0.1,0.1,0.2,0.2,0.2,0.4
				c0.2,0.2,0.3,0.5,0.5,0.7c0.1,0.1,0.1,0.2,0.2,0.3c0.2,0.4,0.4,0.8,0.6,1.2c0.1,0.2,0.2,0.5,0.3,0.7c0,0.1,0.1,0.2,0.1,0.3
				c0,0.1,0.1,0.2,0.1,0.3c0,0.1,0.1,0.2,0.1,0.3c0.1,0.3,0.2,0.6,0.3,0.9c0,0-18.5-10.2-18.3-2.8
				C567.1,141.3,575,145.8,576.2,146.5z"/>
		</defs>
		<clipPath id="SVGID_3_">
			<use xlink:href="#SVGID_12_"  style="overflow:visible;"/>
		</clipPath>
	</g>
	<path class="st9" d="M576.2,146.5C576.2,146.5,576.2,146.5,576.2,146.5c-0.4,0-0.7,0-1-0.1c-0.3,0-0.5,0-0.8-0.1
		c-0.1,0-0.2,0-0.4,0c-0.5,0-1.1-0.1-1.6-0.1c-1.4-0.1-2.8-0.2-4.3-0.3c-0.3,0-0.7,0-1-0.1c-0.6,0-1.2-0.1-1.8-0.1
		c-0.2,0-0.4,0-0.6,0c-0.3,0-0.6,0-0.8,0c-0.4,0-0.7,0-1.1,0c-13.1,0-23.2-1.8-23.2-7.4c0-0.2,0-0.3,0-0.5v0c0.3,0,3.6,0.4,5.7-1.2
		c2.1-1.6,3.7-6.2,3.8-6.4c0.1,0,0.2-0.1,0.4-0.1c0.9-0.2,1.8-0.4,2.8-0.6c0,0,0.1,0,0.1,0c0.3-0.1,0.6-0.1,0.9-0.2
		c0.1,0,0.2,0,0.3-0.1c0.6-0.1,1.2-0.2,1.8-0.3c0,0,0,0,0.1,0c0.3-0.1,0.7-0.1,1.1-0.2c0.4-0.1,0.8-0.1,1.2-0.2
		c0.4-0.1,0.8-0.1,1.2-0.1c6.5-0.8,14.2-1.5,18.1-0.3c0.3,0.1,0.7,0.2,1,0.4c0.1,0,0.2,0.1,0.3,0.1c0.1,0,0.2,0.1,0.3,0.1
		c0.2,0.1,0.3,0.2,0.5,0.2c0.2,0.1,0.3,0.2,0.5,0.3c0.1,0.1,0.2,0.2,0.4,0.2c0.1,0.1,0.3,0.2,0.4,0.3c0.4,0.3,0.8,0.6,1.1,0.9
		c0.1,0.1,0.2,0.2,0.3,0.3c0.3,0.3,0.6,0.7,0.9,1c0.1,0.1,0.2,0.2,0.3,0.4c0.1,0.1,0.2,0.2,0.2,0.4c0.2,0.2,0.3,0.5,0.5,0.7
		c0.1,0.1,0.1,0.2,0.2,0.3c0.2,0.4,0.4,0.8,0.6,1.2c0.1,0.2,0.2,0.5,0.3,0.7c0,0.1,0.1,0.2,0.1,0.3c0,0.1,0.1,0.2,0.1,0.3
		c0,0.1,0.1,0.2,0.1,0.3c0.1,0.3,0.2,0.6,0.3,0.9c0,0-18.5-10.2-18.3-2.8C567.1,141.3,575,145.8,576.2,146.5z"/>
</g>
<g>
	<g>
		<defs>
			<path id="SVGID_16_" d="M596.5,197.3c-0.5-0.2-0.9-0.3-1.4-0.5c-0.5-0.2-0.9-0.3-1.4-0.4c-0.3-0.1-0.6-0.2-1-0.2
				c-0.3-0.1-0.6-0.1-1-0.2c-0.2,0-0.3-0.1-0.5-0.1c-0.5-0.1-1-0.2-1.5-0.2c-0.5-0.1-1-0.1-1.5-0.1h-0.1c-0.2,0-0.3,0-0.5,0
				c-7.9,0-13.3-1.4-16.2-4.4c-1.7-1.8-2.6-4.3-2.6-7.3c0-0.3,0-0.5,0-0.8c0-0.2,0-0.5,0-0.7c0,0,0-0.1,0-0.1h2.1
				c1.1,0,5.3-2.6,7.6-6.1c2.2-3.4,0.9-8.8,0.9-9c0.2-0.1,0.4-0.1,0.5-0.2c0.6-0.2,1.2-0.4,1.9-0.5c0.3-0.1,0.7-0.1,1-0.2
				c0.3-0.1,0.6-0.1,1-0.2c0.3-0.1,0.6-0.1,0.9-0.1c0.2,0,0.4-0.1,0.6-0.1c0,0,0.1,0,0.1,0c0.2,0,0.5-0.1,0.7-0.1
				c0.4,0,0.7-0.1,1.1-0.1c0.3,0,0.6-0.1,0.9-0.1c0.1,0,0.1,0,0.2,0c0.4,0,0.7,0,1.1-0.1c0.4,0,0.8,0,1.2,0h0c0.6,0,1.2,0,1.9,0
				c-0.1,0.2-2.4,5-2.7,11.2c-0.4,6.3,0.4,12.1,2,15.3C593.6,194.7,596.4,197.2,596.5,197.3z"/>
		</defs>
		<clipPath id="SVGID_5_">
			<use xlink:href="#SVGID_16_"  style="overflow:visible;"/>
		</clipPath>
	</g>
	<path class="st9" d="M596.5,197.3c-0.5-0.2-0.9-0.3-1.4-0.5c-0.5-0.2-0.9-0.3-1.4-0.4c-0.3-0.1-0.6-0.2-1-0.2
		c-0.3-0.1-0.6-0.1-1-0.2c-0.2,0-0.3-0.1-0.5-0.1c-0.5-0.1-1-0.2-1.5-0.2c-0.5-0.1-1-0.1-1.5-0.1h-0.1c-0.2,0-0.3,0-0.5,0
		c-7.9,0-13.3-1.4-16.2-4.4c-1.7-1.8-2.6-4.3-2.6-7.3c0-0.3,0-0.5,0-0.8c0-0.2,0-0.5,0-0.7c0,0,0-0.1,0-0.1h2.1
		c1.1,0,5.3-2.6,7.6-6.1c2.2-3.4,0.9-8.8,0.9-9c0.2-0.1,0.4-0.1,0.5-0.2c0.6-0.2,1.2-0.4,1.9-0.5c0.3-0.1,0.7-0.1,1-0.2
		c0.3-0.1,0.6-0.1,1-0.2c0.3-0.1,0.6-0.1,0.9-0.1c0.2,0,0.4-0.1,0.6-0.1c0,0,0.1,0,0.1,0c0.2,0,0.5-0.1,0.7-0.1
		c0.4,0,0.7-0.1,1.1-0.1c0.3,0,0.6-0.1,0.9-0.1c0.1,0,0.1,0,0.2,0c0.4,0,0.7,0,1.1-0.1c0.4,0,0.8,0,1.2,0h0c0.6,0,1.2,0,1.9,0
		c-0.1,0.2-2.4,5-2.7,11.2c-0.4,6.3,0.4,12.1,2,15.3C593.6,194.7,596.4,197.2,596.5,197.3z"/>
</g>
<g>
	<g>
		<defs>
			<path id="SVGID_20_" d="M524.3,263.2c3.2,10.5,2.9,18.4,9.3,19.1c6.3,0.7,11.2-3.6,11.4-3.7c0,0.4,0.1,0.7,0.1,1.1
				c0.1,0.8,0.2,1.5,0.2,2.3c0,0,0,0.1,0,0.1c0.1,0.5,0.1,1.1,0.2,1.6v0c0.1,0.9,0.2,1.8,0.3,2.7c0.1,0.7,0.1,1.3,0.2,1.9
				c0,0.2,0,0.3,0,0.5c0,0.8,0.1,1.6,0.1,2.3c-0.1,6.9-3.6,11.5-19.7,17.6c-10.4,4-15.5,5.2-17.3,0.7c0-0.1-0.1-0.2-0.1-0.3
				l-0.1-0.3c0-0.1-0.1-0.2-0.1-0.3c0-0.1-0.1-0.2-0.1-0.3c-0.1-0.3-0.1-0.5-0.1-0.8c0-0.2-0.1-0.4-0.1-0.7c0-0.1,0-0.3,0-0.4
				c0-0.1,0-0.3,0-0.4c0-0.1,0-0.3,0-0.4c0,0,3.5-1.6,6.5-5.4c3-3.8,4.9-5.9,5.4-11.3c0.5-5.4-1.4-7.2-4.1-11.3
				c-2.6-4.1-6.7-3.4-6.7-3.4c0-0.2-0.1-0.5-0.1-0.7c0-0.1,0-0.2-0.1-0.3c-0.1-0.4-0.2-0.9-0.3-1.3c-0.2-0.8-0.4-1.6-0.5-2.4
				c0-0.1,0-0.2-0.1-0.3c-0.1-0.3-0.1-0.7-0.2-1c-0.1-0.6-0.3-1.3-0.4-1.9c0,0,0,0,0-0.1c-0.1-0.3-0.1-0.6-0.2-1
				c-0.1-0.3-0.1-0.6-0.2-1c-0.2-1.3-0.4-2.5-0.5-3.6v-0.1c0-0.2,0-0.5,0-0.7c-0.1-1.2,0-2.3,0.1-3.4c0.1-0.8,0.3-1.5,0.6-2.2
				c3.6-9.6,19.1-10.2,27.3-14.2c1.7-0.8,4-2.3,6.6-3.9c0.1,0.2,1.7,2.5,4.9,3.8c3.4,1.4,10.6,3.5,10.6,3.5
				c-2.2,3.9-4.9,8.2-7.2,12.5c0,0-8.3-5.4-11.3-6.5c-6.6-2.5-7.6-1.7-11.7,0.4C525.9,250.2,521.1,252.7,524.3,263.2z"/>
		</defs>
		<clipPath id="SVGID_6_">
			<use xlink:href="#SVGID_20_"  style="overflow:visible;"/>
		</clipPath>
	</g>
	<path class="st9" d="M524.3,263.2c3.2,10.5,2.9,18.4,9.3,19.1c6.3,0.7,11.2-3.6,11.4-3.7c0,0.4,0.1,0.7,0.1,1.1
		c0.1,0.8,0.2,1.5,0.2,2.3c0,0,0,0.1,0,0.1c0.1,0.5,0.1,1.1,0.2,1.6v0c0.1,0.9,0.2,1.8,0.3,2.7c0.1,0.7,0.1,1.3,0.2,1.9
		c0,0.2,0,0.3,0,0.5c0,0.8,0.1,1.6,0.1,2.3c-0.1,6.9-3.6,11.5-19.7,17.6c-10.4,4-15.5,5.2-17.3,0.7c0-0.1-0.1-0.2-0.1-0.3l-0.1-0.3
		c0-0.1-0.1-0.2-0.1-0.3c0-0.1-0.1-0.2-0.1-0.3c-0.1-0.3-0.1-0.5-0.1-0.8c0-0.2-0.1-0.4-0.1-0.7c0-0.1,0-0.3,0-0.4
		c0-0.1,0-0.3,0-0.4c0-0.1,0-0.3,0-0.4c0,0,3.5-1.6,6.5-5.4c3-3.8,4.9-5.9,5.4-11.3c0.5-5.4-1.4-7.2-4.1-11.3
		c-2.6-4.1-6.7-3.4-6.7-3.4c0-0.2-0.1-0.5-0.1-0.7c0-0.1,0-0.2-0.1-0.3c-0.1-0.4-0.2-0.9-0.3-1.3c-0.2-0.8-0.4-1.6-0.5-2.4
		c0-0.1,0-0.2-0.1-0.3c-0.1-0.3-0.1-0.7-0.2-1c-0.1-0.6-0.3-1.3-0.4-1.9c0,0,0,0,0-0.1c-0.1-0.3-0.1-0.6-0.2-1
		c-0.1-0.3-0.1-0.6-0.2-1c-0.2-1.3-0.4-2.5-0.5-3.6v-0.1c0-0.2,0-0.5,0-0.7c-0.1-1.2,0-2.3,0.1-3.4c0.1-0.8,0.3-1.5,0.6-2.2
		c3.6-9.6,19.1-10.2,27.3-14.2c1.7-0.8,4-2.3,6.6-3.9c0.1,0.2,1.7,2.5,4.9,3.8c3.4,1.4,10.6,3.5,10.6,3.5c-2.2,3.9-4.9,8.2-7.2,12.5
		c0,0-8.3-5.4-11.3-6.5c-6.6-2.5-7.6-1.7-11.7,0.4C525.9,250.2,521.1,252.7,524.3,263.2z"/>
</g>
<g>
	<g>
		<defs>
			<path id="SVGID_24_" d="M481.9,90.6c-1.6,1.4-3.4,2.7-4.9,3.8c-1.4,1.1-2.9,2.4-4.4,3.7c-0.3-0.2-2.6-1.6-9-5.6
				c-3.2-2-14.5-6.2-14.5-6.2c1.7-0.4,3.5-0.8,5.5-1.3c4.7-1.2,9.8-2.1,14.6-2.6L481.9,90.6z"/>
		</defs>
		<clipPath id="SVGID_7_">
			<use xlink:href="#SVGID_24_"  style="overflow:visible;"/>
		</clipPath>
	</g>
	<path class="st9" d="M481.9,90.6c-1.6,1.4-3.4,2.7-4.9,3.8c-1.4,1.1-2.9,2.4-4.4,3.7c-0.3-0.2-2.6-1.6-9-5.6
		c-3.2-2-14.5-6.2-14.5-6.2c1.7-0.4,3.5-0.8,5.5-1.3c4.7-1.2,9.8-2.1,14.6-2.6L481.9,90.6z"/>
</g>
<g>
	<g>
		<defs>
			<path id="SVGID_28_" d="M398.7,259.9c-1.3,12-13,12.7-20.8,9.5c-5.3-2.2-13.6-13.2-15.8-20c-3.9-11.8,0-29.7,8.5-30.2
				c0.7,0,1.5,0.5,2.4,1.4c0.2,0.2,0.3,0.3,0.5,0.5c0.4,0.5,0.8,1,1.2,1.6c0,0,0.1,0.1,0.1,0.1c0.1,0.1,0.1,0.2,0.2,0.3
				c0.3,0.5,0.6,1,1,1.5c0.9,1.4,1.7,2.9,2.6,4.4c-0.2-0.1-2.9-1.5-4.1-1.3c-4.4,0.6-6.8,2.4-5.8,13.3c1,11.3,4.3,17.3,9,22.3
				c4.8,5,7.3,3.4,10.9,1.6c3.6-1.8,4.3-7.8,4.1-11c-0.2-3.2-2.1-6.6-2.1-6.6c0.5,0.6,1,1.2,1.4,1.7c0.1,0.2,0.3,0.4,0.4,0.5
				c0.1,0.1,0.2,0.3,0.3,0.4c0.5,0.7,1.1,1.3,1.6,1.8c0,0,0,0,0,0c0.3,0.3,0.6,0.7,0.8,1c0.5,0.6,1.1,1.2,1.5,1.8
				c0.1,0.1,0.1,0.2,0.2,0.3c0.1,0.1,0.1,0.2,0.2,0.3c0.2,0.3,0.4,0.6,0.6,0.8c0.1,0.1,0.1,0.2,0.2,0.3
				C398.4,257.6,398.8,258.7,398.7,259.9z"/>
		</defs>
		<clipPath id="SVGID_9_">
			<use xlink:href="#SVGID_28_"  style="overflow:visible;"/>
		</clipPath>
	</g>
	<path class="st9" d="M398.7,259.9c-1.3,12-13,12.7-20.8,9.5c-5.3-2.2-13.6-13.2-15.8-20c-3.9-11.8,0-29.7,8.5-30.2
		c0.7,0,1.5,0.5,2.4,1.4c0.2,0.2,0.3,0.3,0.5,0.5c0.4,0.5,0.8,1,1.2,1.6c0,0,0.1,0.1,0.1,0.1c0.1,0.1,0.1,0.2,0.2,0.3
		c0.3,0.5,0.6,1,1,1.5c0.9,1.4,1.7,2.9,2.6,4.4c-0.2-0.1-2.9-1.5-4.1-1.3c-4.4,0.6-6.8,2.4-5.8,13.3c1,11.3,4.3,17.3,9,22.3
		c4.8,5,7.3,3.4,10.9,1.6c3.6-1.8,4.3-7.8,4.1-11c-0.2-3.2-2.1-6.6-2.1-6.6c0.5,0.6,1,1.2,1.4,1.7c0.1,0.2,0.3,0.4,0.4,0.5
		c0.1,0.1,0.2,0.3,0.3,0.4c0.5,0.7,1.1,1.3,1.6,1.8c0,0,0,0,0,0c0.3,0.3,0.6,0.7,0.8,1c0.5,0.6,1.1,1.2,1.5,1.8
		c0.1,0.1,0.1,0.2,0.2,0.3c0.1,0.1,0.1,0.2,0.2,0.3c0.2,0.3,0.4,0.6,0.6,0.8c0.1,0.1,0.1,0.2,0.2,0.3
		C398.4,257.6,398.8,258.7,398.7,259.9z"/>
</g>
<g>
	<g>
		<defs>
			<path id="SVGID_32_" d="M490.7,295.6c0,5.5-7.1,16-17.5,23.3c-2.3,1.6-4.8,3-7.4,4.1c-1-0.2-8-1.4-12.5-1.4
				c-4.8,0-5.7,0.3-8.6,1.7c-2.6,1.2-2.1,3.7-2,4.2c-4.7-0.3-9.7-2-14.5-4.3c-0.3-0.4-1.3-1.9-3.3-4.3c-2.4-2.8-5.9-4.5-10.7-7.4
				c-4.3-2.6-6.7-2.5-7.2-2.5c-7.8-6.7-11.4-12.3-11.4-16.4c0-0.1,0-0.1,0-0.2c0-0.1,0-0.2,0-0.2c0.1-0.7,0.1-1.5,0.2-2.4
				c0,0,3.7,4.5,11.5,9.4s17,8.5,20.5,8.7c3.5,0.2,5.3,0.8,5.7-1c0.4-1.8-0.7-6.5-0.7-6.5c3.8,1.1,7.5,1.2,12.6,1.2h0.5
				c0,0,0.4,5.4,4.6,7.4c4.2,2,10.6,4.5,16.4,4.5c5.8,0.1,11.9-1.2,13.8-3.3c2-2.2,3.9-7,1.5-10.8c-2.4-3.9-7.1-6.4-7.1-6.4
				c6-3.4,11.3-6,14.8,0.6c0.3,0.5,0.4,1.1,0.4,1.7C490.7,295.4,490.7,295.5,490.7,295.6z"/>
		</defs>
		<clipPath id="SVGID_10_">
			<use xlink:href="#SVGID_32_"  style="overflow:visible;"/>
		</clipPath>
	</g>
	<path class="st9" d="M490.7,295.6c0,5.5-7.1,16-17.5,23.3c-2.3,1.6-4.8,3-7.4,4.1c-1-0.2-8-1.4-12.5-1.4c-4.8,0-5.7,0.3-8.6,1.7
		c-2.6,1.2-2.1,3.7-2,4.2c-4.7-0.3-9.7-2-14.5-4.3c-0.3-0.4-1.3-1.9-3.3-4.3c-2.4-2.8-5.9-4.5-10.7-7.4c-4.3-2.6-6.7-2.5-7.2-2.5
		c-7.8-6.7-11.4-12.3-11.4-16.4c0-0.1,0-0.1,0-0.2c0-0.1,0-0.2,0-0.2c0.1-0.7,0.1-1.5,0.2-2.4c0,0,3.7,4.5,11.5,9.4s17,8.5,20.5,8.7
		c3.5,0.2,5.3,0.8,5.7-1c0.4-1.8-0.7-6.5-0.7-6.5c3.8,1.1,7.5,1.2,12.6,1.2h0.5c0,0,0.4,5.4,4.6,7.4c4.2,2,10.6,4.5,16.4,4.5
		c5.8,0.1,11.9-1.2,13.8-3.3c2-2.2,3.9-7,1.5-10.8c-2.4-3.9-7.1-6.4-7.1-6.4c6-3.4,11.3-6,14.8,0.6c0.3,0.5,0.4,1.1,0.4,1.7
		C490.7,295.4,490.7,295.5,490.7,295.6z"/>
</g>
<g>
	<g>
		<defs>
			<path id="SVGID_36_" d="M515.9,131.8c-0.2,0.9-0.6,1.8-0.9,2.6c-0.4,0.8-0.8,1.5-1.4,2.2c-0.1,0.1-0.2,0.2-0.3,0.3
				c-0.7,0.7-1.4,1.4-2.3,1.9c-0.4,0.2-0.8,0.4-1.2,0.6c-0.1,0.1-0.3,0.1-0.4,0.2c0,0,0,0,0,0c-0.2,0.1-0.5,0.2-0.7,0.3
				c-0.1,0-0.1,0-0.2,0.1c-0.1,0-0.3,0.1-0.4,0.1c0,0,0,0-0.1,0c-0.2,0-0.3,0.1-0.5,0.1c-0.4,0.1-0.7,0.2-1.1,0.2
				c-0.1,0-0.3,0-0.4,0.1c-0.2,0-0.3,0-0.5,0.1c0,0-0.1,0-0.1,0c-0.4,0-0.8,0-1.2,0c-0.1,0-0.3,0-0.4,0c-0.2,0-0.3,0-0.5-0.1
				c-0.3-0.1-0.6-0.1-1-0.2c-1.2-0.4-2.5-1-3.8-1.8c0.2-0.2,2.4-2.3,3-6.8c0.3-2.4,2.8-8.2-4.3-15.9c-7-7.5-15.4-2.5-15.9-2.2
				c0.7-3.8,2.4-6.9,5.4-9.3c0.5-0.4,1.1-0.8,1.6-1.1c0.1-0.1,0.2-0.1,0.4-0.2c0.1-0.1,0.2-0.1,0.4-0.2c0.1-0.1,0.2-0.1,0.4-0.2
				c0.3-0.1,0.5-0.3,0.8-0.4c0.3-0.1,0.5-0.2,0.8-0.4c0.3-0.1,0.6-0.2,0.9-0.3c0.3-0.1,0.6-0.2,0.9-0.3c0.1,0,0.3-0.1,0.4-0.1
				c0,0,0.1,0,0.2,0c0.3-0.1,0.5-0.2,0.8-0.2c0,0,0.1,0,0.1,0c0.2-0.1,0.5-0.1,0.7-0.2c0.2-0.1,0.5-0.1,0.8-0.2
				c0.3-0.1,0.7-0.1,1-0.2c0.2,0,0.4-0.1,0.5-0.1c1.6-0.3,3.2-0.4,4.6-0.2c0.2,0,0.5,0.1,0.7,0.1c0.2,0,0.5,0.1,0.7,0.1
				s0.5,0.1,0.7,0.2c0.2,0.1,0.5,0.1,0.7,0.2c0.4,0.1,0.8,0.3,1.2,0.5c0.1,0,0.2,0.1,0.3,0.1c0.1,0.1,0.3,0.1,0.4,0.2
				c0.1,0.1,0.2,0.1,0.3,0.2c0,0,0,0,0.1,0c0.1,0.1,0.2,0.1,0.3,0.2c0.7,0.4,1.4,0.9,2,1.5c1,0.9,1.8,1.9,2.6,3.1c0,0-1,0.4-1.2,4.5
				c-0.1,4.1,0.4,3.5,2.4,10.2C515.2,127.5,515.9,131.8,515.9,131.8z"/>
		</defs>
		<clipPath id="SVGID_11_">
			<use xlink:href="#SVGID_36_"  style="overflow:visible;"/>
		</clipPath>
	</g>
	<path class="st9" d="M515.9,131.8c-0.2,0.9-0.6,1.8-0.9,2.6c-0.4,0.8-0.8,1.5-1.4,2.2c-0.1,0.1-0.2,0.2-0.3,0.3
		c-0.7,0.7-1.4,1.4-2.3,1.9c-0.4,0.2-0.8,0.4-1.2,0.6c-0.1,0.1-0.3,0.1-0.4,0.2c0,0,0,0,0,0c-0.2,0.1-0.5,0.2-0.7,0.3
		c-0.1,0-0.1,0-0.2,0.1c-0.1,0-0.3,0.1-0.4,0.1c0,0,0,0-0.1,0c-0.2,0-0.3,0.1-0.5,0.1c-0.4,0.1-0.7,0.2-1.1,0.2
		c-0.1,0-0.3,0-0.4,0.1c-0.2,0-0.3,0-0.5,0.1c0,0-0.1,0-0.1,0c-0.4,0-0.8,0-1.2,0c-0.1,0-0.3,0-0.4,0c-0.2,0-0.3,0-0.5-0.1
		c-0.3-0.1-0.6-0.1-1-0.2c-1.2-0.4-2.5-1-3.8-1.8c0.2-0.2,2.4-2.3,3-6.8c0.3-2.4,2.8-8.2-4.3-15.9c-7-7.5-15.4-2.5-15.9-2.2
		c0.7-3.8,2.4-6.9,5.4-9.3c0.5-0.4,1.1-0.8,1.6-1.1c0.1-0.1,0.2-0.1,0.4-0.2c0.1-0.1,0.2-0.1,0.4-0.2c0.1-0.1,0.2-0.1,0.4-0.2
		c0.3-0.1,0.5-0.3,0.8-0.4c0.3-0.1,0.5-0.2,0.8-0.4c0.3-0.1,0.6-0.2,0.9-0.3c0.3-0.1,0.6-0.2,0.9-0.3c0.1,0,0.3-0.1,0.4-0.1
		c0,0,0.1,0,0.2,0c0.3-0.1,0.5-0.2,0.8-0.2c0,0,0.1,0,0.1,0c0.2-0.1,0.5-0.1,0.7-0.2c0.2-0.1,0.5-0.1,0.8-0.2c0.3-0.1,0.7-0.1,1-0.2
		c0.2,0,0.4-0.1,0.5-0.1c1.6-0.3,3.2-0.4,4.6-0.2c0.2,0,0.5,0.1,0.7,0.1c0.2,0,0.5,0.1,0.7,0.1s0.5,0.1,0.7,0.2
		c0.2,0.1,0.5,0.1,0.7,0.2c0.4,0.1,0.8,0.3,1.2,0.5c0.1,0,0.2,0.1,0.3,0.1c0.1,0.1,0.3,0.1,0.4,0.2c0.1,0.1,0.2,0.1,0.3,0.2
		c0,0,0,0,0.1,0c0.1,0.1,0.2,0.1,0.3,0.2c0.7,0.4,1.4,0.9,2,1.5c1,0.9,1.8,1.9,2.6,3.1c0,0-1,0.4-1.2,4.5c-0.1,4.1,0.4,3.5,2.4,10.2
		C515.2,127.5,515.9,131.8,515.9,131.8z"/>
</g>
<g>
	<g>
		<defs>
			<path id="SVGID_40_" d="M425.2,200.9c0,1.2,0,2.4-0.1,3.5c0,0.7-0.1,1.5-0.2,2.2c0,0,0,0,0,0c-0.1,1.4-0.3,2.8-0.5,4.2
				c-0.1,0.7-0.2,1.4-0.3,2.1c-0.1,0.7-0.2,1.4-0.4,2.1c-0.2,1-0.4,2.1-0.6,3.1c-0.2,1.3-0.5,2.5-0.8,3.7c-0.1,0.4-0.2,0.8-0.3,1.2
				c-0.1,0.4-0.2,0.8-0.3,1.1c-0.1,0.4-0.2,0.7-0.3,1.1c0,0,0,0,0,0c-0.1,0.4-0.2,0.7-0.4,1.1c-0.2,0.4-0.3,0.9-0.5,1.3
				c-0.1,0.2-0.2,0.5-0.3,0.7c-0.1,0.2-0.2,0.4-0.3,0.6c0,0,0,0.1-0.1,0.1c-0.1,0.2-0.1,0.3-0.2,0.5c-0.1,0.3-0.3,0.6-0.4,0.8
				c-0.1,0.2-0.2,0.4-0.3,0.6c-0.1,0.3-0.3,0.6-0.5,0.8c0,0,0,0,0,0.1c-0.1,0.2-0.3,0.5-0.4,0.7c-0.5,0.9-1.1,1.7-1.7,2.5
				c0,0-7.2-8.2-12.3-17.5c-5.1-9.4-8.7-12.6-11.4-14.4s-3.8,0.9-3.8,0.9c0-0.1,0-0.3,0-0.4c0,0,0,0,0,0c0-0.5-0.1-1.1-0.1-1.6
				c0-0.2,0-0.3,0-0.5c0-0.6-0.1-1.1-0.1-1.7c0-0.6,0-1.2,0-1.7c0-0.1,0-0.3,0-0.4c0-0.6,0-1.2,0-1.8c0-26.6,16-56.9,26.2-54.8
				c0.4,0.1,0.7,0.2,1.1,0.3c0.3,0.1,0.6,0.2,0.9,0.3c0.3,0.1,0.6,0.3,0.9,0.5c0.1,0.1,0.3,0.2,0.4,0.2c0.4,0.3,0.7,0.5,1,0.9
				c0.1,0.1,0.1,0.2,0.2,0.2c0,0,0.1,0.1,0.1,0.2c0.2,0.2,0.3,0.4,0.5,0.6c0,0,0.1,0.1,0.1,0.1c0.1,0.1,0.1,0.2,0.2,0.3
				c0.1,0.2,0.2,0.3,0.3,0.5c0.1,0.1,0.1,0.2,0.1,0.3c0.1,0.1,0.1,0.3,0.2,0.4c0.3,0.9,0.5,1.9,0.7,3c0,0.4,0.1,0.7,0.1,1.1
				c0,0.2,0,0.4,0.1,0.6c0,0.2,0,0.4,0,0.6c0,0.4,0,0.8,0.1,1.3c0,0.6,0,1.3,0,2v0.3c0,0-1.2-1.8-4.9-1.4c-3.8,0.4-8.7-1-11.5,7
				c-2.8,8-6.5,16.2-5.3,23.8c1.2,7.6,3.3,17,8.3,19.5c5,2.5,11.2,1.3,13.4,0C423.8,202.6,425.2,200.9,425.2,200.9z"/>
		</defs>
		<clipPath id="SVGID_13_">
			<use xlink:href="#SVGID_40_"  style="overflow:visible;"/>
		</clipPath>
	</g>
	<path class="st9" d="M425.2,200.9c0,1.2,0,2.4-0.1,3.5c0,0.7-0.1,1.5-0.2,2.2c0,0,0,0,0,0c-0.1,1.4-0.3,2.8-0.5,4.2
		c-0.1,0.7-0.2,1.4-0.3,2.1c-0.1,0.7-0.2,1.4-0.4,2.1c-0.2,1-0.4,2.1-0.6,3.1c-0.2,1.3-0.5,2.5-0.8,3.7c-0.1,0.4-0.2,0.8-0.3,1.2
		c-0.1,0.4-0.2,0.8-0.3,1.1c-0.1,0.4-0.2,0.7-0.3,1.1c0,0,0,0,0,0c-0.1,0.4-0.2,0.7-0.4,1.1c-0.2,0.4-0.3,0.9-0.5,1.3
		c-0.1,0.2-0.2,0.5-0.3,0.7c-0.1,0.2-0.2,0.4-0.3,0.6c0,0,0,0.1-0.1,0.1c-0.1,0.2-0.1,0.3-0.2,0.5c-0.1,0.3-0.3,0.6-0.4,0.8
		c-0.1,0.2-0.2,0.4-0.3,0.6c-0.1,0.3-0.3,0.6-0.5,0.8c0,0,0,0,0,0.1c-0.1,0.2-0.3,0.5-0.4,0.7c-0.5,0.9-1.1,1.7-1.7,2.5
		c0,0-7.2-8.2-12.3-17.5c-5.1-9.4-8.7-12.6-11.4-14.4s-3.8,0.9-3.8,0.9c0-0.1,0-0.3,0-0.4c0,0,0,0,0,0c0-0.5-0.1-1.1-0.1-1.6
		c0-0.2,0-0.3,0-0.5c0-0.6-0.1-1.1-0.1-1.7c0-0.6,0-1.2,0-1.7c0-0.1,0-0.3,0-0.4c0-0.6,0-1.2,0-1.8c0-26.6,16-56.9,26.2-54.8
		c0.4,0.1,0.7,0.2,1.1,0.3c0.3,0.1,0.6,0.2,0.9,0.3c0.3,0.1,0.6,0.3,0.9,0.5c0.1,0.1,0.3,0.2,0.4,0.2c0.4,0.3,0.7,0.5,1,0.9
		c0.1,0.1,0.1,0.2,0.2,0.2c0,0,0.1,0.1,0.1,0.2c0.2,0.2,0.3,0.4,0.5,0.6c0,0,0.1,0.1,0.1,0.1c0.1,0.1,0.1,0.2,0.2,0.3
		c0.1,0.2,0.2,0.3,0.3,0.5c0.1,0.1,0.1,0.2,0.1,0.3c0.1,0.1,0.1,0.3,0.2,0.4c0.3,0.9,0.5,1.9,0.7,3c0,0.4,0.1,0.7,0.1,1.1
		c0,0.2,0,0.4,0.1,0.6c0,0.2,0,0.4,0,0.6c0,0.4,0,0.8,0.1,1.3c0,0.6,0,1.3,0,2v0.3c0,0-1.2-1.8-4.9-1.4c-3.8,0.4-8.7-1-11.5,7
		c-2.8,8-6.5,16.2-5.3,23.8c1.2,7.6,3.3,17,8.3,19.5c5,2.5,11.2,1.3,13.4,0C423.8,202.6,425.2,200.9,425.2,200.9z"/>
</g>
<g>
	<g>
		<defs>
			<path id="SVGID_44_" d="M548.4,317.6c-0.4,0.4-7.2,8.6-9.6,10.5c-6,4.8-9.7,6.8-9.7,6.8c-0.8,0.1-1.6,0.2-2.4,0.3
				c-6.5,0.7-11.9,1.1-16.1,1.1c0.2-0.1,8.2-3.3,14.8-9.1c2.7-2.4,6.6-6.3,7.1-6.8c4.2-1.8,7.7-3.1,10.8-3.5c0.1,0,0.1,0,0.2,0
				c0.4,0,0.8-0.1,1.2-0.1c0.7,0,1.5,0.1,2.1,0.2c0.2,0,0.3,0.1,0.5,0.1C547.7,317.3,548.1,317.4,548.4,317.6z"/>
		</defs>
		<clipPath id="SVGID_14_">
			<use xlink:href="#SVGID_44_"  style="overflow:visible;"/>
		</clipPath>
	</g>
	<path class="st9" d="M548.4,317.6c-0.4,0.4-7.2,8.6-9.6,10.5c-6,4.8-9.7,6.8-9.7,6.8c-0.8,0.1-1.6,0.2-2.4,0.3
		c-6.5,0.7-11.9,1.1-16.1,1.1c0.2-0.1,8.2-3.3,14.8-9.1c2.7-2.4,6.6-6.3,7.1-6.8c4.2-1.8,7.7-3.1,10.8-3.5c0.1,0,0.1,0,0.2,0
		c0.4,0,0.8-0.1,1.2-0.1c0.7,0,1.5,0.1,2.1,0.2c0.2,0,0.3,0.1,0.5,0.1C547.7,317.3,548.1,317.4,548.4,317.6z"/>
</g>
<g>
	<g>
		<defs>
			<path id="SVGID_48_" d="M423.8,117.6c0,0.1,0,0.2,0,0.3c-0.3,4-5.7,6.2-13,8.1c0,0,3.1-6.8,4.4-10.6c1.2-3.6,1.2-7.4,1.2-7.9
				c0.2,0.2,0.5,0.4,0.7,0.6c3.6,2.9,6.5,5.8,6.7,9.2C423.8,117.4,423.8,117.5,423.8,117.6z"/>
		</defs>
		<clipPath id="SVGID_15_">
			<use xlink:href="#SVGID_48_"  style="overflow:visible;"/>
		</clipPath>
	</g>
	<path class="st9" d="M423.8,117.6c0,0.1,0,0.2,0,0.3c-0.3,4-5.7,6.2-13,8.1c0,0,3.1-6.8,4.4-10.6c1.2-3.6,1.2-7.4,1.2-7.9
		c0.2,0.2,0.5,0.4,0.7,0.6c3.6,2.9,6.5,5.8,6.7,9.2C423.8,117.4,423.8,117.5,423.8,117.6z"/>
</g>
<radialGradient id="SVGID_17_" cx="487.002" cy="214.7681" r="88.6727" gradientUnits="userSpaceOnUse">
	<stop  offset="0" style="stop-color:#B6341C"/>
	<stop  offset="0.246" style="stop-color:#C4411E"/>
	<stop  offset="0.3875" style="stop-color:#CE4A1F"/>
	<stop  offset="0.512" style="stop-color:#D85726"/>
	<stop  offset="0.7416" style="stop-color:#F27938"/>
	<stop  offset="0.7474" style="stop-color:#F37A39"/>
	<stop  offset="0.8983" style="stop-color:#FBA260"/>
	<stop  offset="1" style="stop-color:#FFB975"/>
</radialGradient>
<circle style="fill:url(#SVGID_17_);" cx="487" cy="214.8" r="88.7"/>
<g>
	<g>
		<defs>
			<path id="SVGID_53_" d="M624.5,207.5c-0.9-12.2,0.1-20-1-33c-0.2-2.3-1.7-4.9-2.5-8.5c-1.1-4.8-5.6-9-8.1-16.8
				C597,98.7,530.6,63.8,483.8,67.8c-32.8,2.8-52.3,4.2-76.3,22c-7.7,5.7-19.3,16-21.1,16.5c-1.1,0.3-1.3-0.2-2.7,0.9
				c-2.9,2.3-4,4.5-6.3,7.2c-1.8,2.2,0.4,2.8-1.4,5c-3.6,4.7-7.1,9.4-10.2,14.4c-7.2,11.7-11.4,14.8-13.4,18
				c-2.2,3.4-3.4,7-4.8,19.1c-1.2,10.6-5.6,29.2-6.4,39.3c-0.6,7-1.2,14.7,2.4,26.1c10.3,32.8,7.9,30.1,16.5,47.6
				c21.4,43.4,66.7,64.7,107.4,69.1c10.7,1.2,24,3.5,37.4,1.2c5.8-1,7.8-0.6,18.1-5.3c10-4.5,10.8-1.1,16.6-4.5
				c10.1-5.9,18-13.9,26.4-20c13.4-9.8,28.7-16.6,44.3-43.5c7.4-12.7,13-25.5,15.3-40.6C627,230.4,625.3,218.3,624.5,207.5z
				 M621.5,231.5c1.4,9.7-8.6,25-15,25s-5.4-8.1-5.4-17.9c0-9.8-0.4-20.6,6-20.6C610.4,218.1,620,220.9,621.5,231.5z M616.7,178.7
				c2.3,7.9,3,17.1,1.7,22.4c-1,4-3.7,4.5-5.2,4.5c-2.4,0-5.1-1.5-8.5-3.5c-4.4-2.6-10-5.7-15.9-5.7c-9.2,0-15.1-1.8-18.4-5.6
				c-2.5-2.9-3.5-6.8-2.8-11.8c2.2-16.8,15.1-18.2,26.9-18.2C599.5,161,611.9,162.7,616.7,178.7z M579.1,125.1
				c7.2,2.3,9.1,8.9,9.9,11.8c1,3.5,0.8,6.1-0.6,7.9c-1.9,2.5-5.4,2.8-8.2,2.8c-2.1,0-4.5-0.2-7-0.4c-2.9-0.2-5.9-0.5-8.9-0.5
				c-17,0-25.3-3.1-25.3-9.5c0-8.3,10.1-10.6,21.1-11.9c4-0.5,8.6-1,12.5-1C575.4,124.3,577.5,124.6,579.1,125.1z M544.8,202.3
				c-1,1.6-1.9,3.1-2.8,4.6c-5.3,8.8-8.5,14-19.3,17.3c-1.4,0.4-2.9,0.6-4.4,0.6c-10.7,0-20.1-11.8-20.1-25.2
				c0-12.4,7.6-22.3,22.6-29.5c5.6-2.7,14.7-5.8,21.6-5.8c4.3,0,7.3,1.2,9.1,3.6C555.9,173.8,548.8,195.8,544.8,202.3z M511.4,82
				c0.8-2,3-3.1,6.5-3.1c4.9,0,12.8,2,21.7,5.5c10.5,4.1,27.1,17,28.7,22.3c0.4,1.4-0.1,2.3-0.4,2.7c-2.3,3.2-7.3,4.6-15.9,4.6
				c-2.7,0-5.7-0.1-9.4-0.4c-6.5-0.5-11.1-6.4-16.9-13.9l-1.2-1.6c-2.6-3.3-5.6-5.6-8-7.4C513,88.2,509.8,85.8,511.4,82z M498,96.6
				c1.2-0.2,2.4-0.3,3.5-0.3c9.3,0,15.7,7.2,17.6,19.8c1.4,9.6,0.5,16.3-2.7,20.5c-2.2,2.9-5.5,4.6-9.8,5c-0.3,0-0.6,0-0.9,0
				c-5.4,0-10.5-4.7-15.5-9.3c-0.4-0.4-0.9-0.8-1.3-1.2c-0.3-0.3-0.7-0.6-1-0.9c-4.3-3.9-8.3-7.5-8.1-14.1
				C480.3,105.1,486.1,98.9,498,96.6z M423.5,181.2c3.7,17.2,2.1,25.7,0.2,35.5l-0.1,0.8c-2.8,14.6-9.6,24.1-17.4,24.1
				c-6.3,0-12.1-4.8-16.2-13.5c-4-8.5-6.3-20.2-6.3-33.1c0-12.3,3.3-26.3,9-38.3c2.8-5.8,10.1-19.3,18.8-19.3c0.5,0,1,0.1,1.5,0.2
				c9.3,1.9,9.1,10.7,8.9,21C421.9,165.2,421.7,172.8,423.5,181.2z M427,255.6c1.3-2.3,2.7-4.6,3.8-7.1c1.9-4.5,3.4-9.4,4.8-14.2
				c3.5-12.1,6.8-23.5,17.7-23.5c5,0,9.1,1.7,12.4,5c5.7,5.9,8.4,16.8,8.1,32.4c-0.5,21.5-14.2,40.3-29.4,40.3
				c-8.6,0-16.6-5.9-21.3-15.9C420.3,266.9,423.7,261.2,427,255.6z M462.8,194c-13.9,0-24.8-11-24.8-25.1c0-0.8,0-1.6-0.1-2.5
				c-0.1-4-0.3-8.5,1.8-16c2.6-9.1,11.6-15.8,21.6-15.8c0.9,0,1.8,0.1,2.7,0.2c7.2,0.9,14,5.3,18.2,11.7c4.6,7.1,4.9,14.3,4.5,21
				C485.9,182.7,475.6,194,462.8,194z M424.6,92.5c3.5-5.7,9.3-6.9,18.1-8.7c3.3-0.7,7-1.4,11.3-2.5c7.1-1.8,15-2.9,21.2-2.9
				c4.7,0,8.2,0.6,10.4,1.8c1.9,1.1,2.3,2.6,2.3,3.4c0.2,3.3-3.5,6.4-8.8,10.3l-0.9,0.7c-1.5,1.1-3,2.4-4.6,3.9
				c-4.7,4-9.9,8.6-16,9.8c-1.3,0.3-2.6,0.4-3.9,0.4c-6,0-11.3-2.7-18.5-6.5l-1.2-0.6c-0.9-0.5-2-0.9-3-1.4c-3.2-1.4-6-2.5-6.7-4.7
				C423.9,94.4,424,93.4,424.6,92.5z M379.7,123.2c0.4-0.4,0.7-0.7,1-1c1.6-1.7,3-3.5,4.5-5.4c4.4-5.6,9-11.5,17.3-14.6
				c1.6-0.6,3.1-0.9,4.6-0.9c4.4,0,7.5,2.6,10.1,4.6c3.5,2.9,7.3,6.3,7.3,10.8c0,7.3-11.4,9.6-24.6,12.3c-1.9,0.4-3.9,0.8-5.8,1.2
				c-3,0.6-6.4,2.2-9.4,3.6c-3.3,1.5-5.8,2.7-7.7,2.7c-0.9,0-1.6-0.2-2.1-0.7c-0.8-0.8-1.3-1.7-1.3-2.9
				C373.3,129.9,376.5,126.4,379.7,123.2z M373.8,147.1c1.5-0.8,2.9-1.3,4.2-1.3c1.9,0,3.5,0.9,4.6,2.5c2.5,3.7,1.6,10.4,0.3,13.8
				c-3.3,8.3-6.3,14.7-11.3,14.7c-8.8,0-8.8-8.2-8.8-13.5C362.8,156.6,366.4,151.4,373.8,147.1z M350.7,218.3c-1,0-1.8-0.4-2.5-1.1
				c-2.4-2.6-2.3-9.2-1.8-17c0-0.8,0.1-1.5,0.1-2.1c0.4-8.8,5-20.5,9.2-20.5c0.4,0,0.7,0.1,1.1,0.3c1.9,1,4.4,3.9,4.4,18.1
				C361.2,206,356.4,218.3,350.7,218.3z M357.3,251.8c-3-9.3-1.8-21.8,2.9-28.6c2.1-3.1,4.9-4.9,8-5c0.1,0,0.1,0,0.2,0
				c3.7,0,6.5,4.8,10.9,12.6c0.4,0.7,0.7,1.3,1.1,2c5.5,9.7,10.3,15.3,13.5,19.1c3.3,3.9,5.6,6.5,5.2,10
				c-0.9,8.5-6.6,13.5-15.3,13.5c-3,0-6.2-0.6-9.1-1.8C368.4,270.9,359.8,259.2,357.3,251.8z M431.1,341.5c-2.5,0-8.5-1.4-14-3.8
				c-5.4-2.3-10.1-5.5-14.3-8.3c-0.9-0.6-1.9-1.2-2.8-1.8c-10.8-7.1-16.6-12.4-23.7-21.7c-0.1-0.2-13.6-17.8-9.1-23.4
				c0.9-1.1,2.6-1.2,4.1-0.8c5.6,1.4,11.6,12.8,12.8,14.5c11.6,16.2,22.9,24.6,47.4,40.2C435.1,338.5,433.5,341.5,431.1,341.5z
				 M409.2,314.8c-10.4-8.3-15.6-15.6-15.2-21.2l0-0.6c0.2-2.7,0.6-8.4,6.8-8.4c4.2,0,10.3,2.7,19.5,8.5c11.3,7.2,15.2,8,25.8,8
				c9.7,0,17.7-2.1,26.5-7.1c0.5-0.3,0.9-0.5,1.4-0.8c3.8-2.2,7.5-4.3,10.9-4.3c3.2,0,5.8,1.8,7.6,5.2c2.2,4-1.1,10.1-3.2,13.4
				c-3.5,5.4-8.8,10.7-14.5,14.7c-8.3,5.8-19,9-29.9,9C431.9,331.3,416.9,320.9,409.2,314.8z M493.9,349.5
				c-21.5,0-41.8-4.1-41.8-6.1c0-1,4.9-2.4,16.2-2.4c9.3,0,22.3,3.9,34.4,4.3c16,0.5,30.2-2.3,30.2-1.1
				C532.9,346.2,515.4,349.5,493.9,349.5z M549.4,328.5c-4.3,5.2-9.3,8.4-22.6,9.8c-7.6,0.8-13,1.1-17.1,1.1
				c-7.2,0-10.9-1.1-12.2-3.8c-0.6-1.2-0.6-2.3-0.1-3.2c1.1-2.2,4.3-2.8,9.5-3.9c4.5-0.9,10.6-2.2,17.2-4.8c2-0.8,3.8-1.6,5.6-2.3
				c6-2.6,10.8-4.6,15-4.6c1.1,0,2.1,0.1,3,0.4c2.4,0.7,4,2,4.5,3.7C553,323.7,551,326.6,549.4,328.5z M549,271.3
				c0,4.4,0.4,8.2,0.8,11.5c0.7,6.1,1.3,10.9-1.5,15.5c-2.7,4.5-8.5,8.2-19.3,12.3c-6.1,2.3-10.5,3.7-13.7,3.7
				c-2.4,0-4.4-0.8-5.7-2.3c-3.1-3.6-2.7-10.3,0-27.2c0.6-3.7-0.6-8.8-1.7-13.8c-1.4-6.5-2.9-13.2-1-18.1c3-7.9,12-10.5,19.9-12.7
				c3.3-0.9,6.4-1.8,8.7-3c1.9-1,4.9-2.8,8.1-4.8c7.9-5,12.9-8,15.8-8c0.5,0,1,0.1,1.4,0.3c2.9,1.1,4.1,3,4.6,4.4
				c1.8,5-2.1,11.6-7,19.9C554,256.2,549,264.7,549,271.3z M580.1,308.3c-0.7,0.5-1.5,1-2.3,1.6c-2.9,2.1-6,4.3-8.9,4.3
				c-1.3,0-2.5-0.5-3.4-1.3c-2.1-1.9-2-3.4-1.5-5.5c0.6-2.7,2.2-9.8-1.2-34c-1.7-12,1.2-23.4,7.8-31.4c4.3-5.2,9.8-8.2,15.1-8.4
				l0.1,0c4.2,0,5.6,5.8,6.3,14.4c0.5,6,0.8,14.1,0.8,25.3C593,296.5,584.9,305.2,580.1,308.3z M610,272.6
				c-3.6,8.2-6.9,12.4-8.9,16.3c-1.5,3-1.7,6.7-3,6.7c-3.1,0-2-8,6-22.3c3.2-5.6,7.4-9.1,10.3-13.8c4.4-7,7.3-14.2,9.1-14.2
				C625.4,245.4,613.4,264.8,610,272.6z"/>
		</defs>
		<clipPath id="SVGID_18_">
			<use xlink:href="#SVGID_53_"  style="overflow:visible;"/>
		</clipPath>
	</g>
</g>
<path class="st9" d="M481.9,90.7c-1.6,1.4-3.4,2.7-4.9,3.8c-1.4,1.1-2.9,2.3-4.4,3.6"/>
<path class="st9" d="M531.7,343.9C531.7,343.9,531.6,343.9,531.7,343.9"/>
<path class="st9" d="M454.9,342.1C454.9,342.1,454.9,342.1,454.9,342.1"/>
<path class="st9" d="M546.8,317c-0.7-0.1-1.4-0.2-2.1-0.2c-0.4,0-0.8,0-1.2,0.1C544.6,316.8,545.7,316.8,546.8,317z"/>
<path class="st9" d="M548.2,326c-3.8,4.6-8.2,7.9-21.5,9.2c-16.7,1.7-26,1.7-27.7-1.8c-2.5-5.1,10.1-3.5,25.7-9.8
	c2.8-1.1,5.4-2.3,7.8-3.3c-0.5,0.5-4.4,4.4-7.1,6.8c-6.6,5.8-14.5,9-14.8,9.1c4.2,0,9.6-0.5,16.1-1.1c0.9-0.1,1.7-0.2,2.4-0.3
	c0,0,3.8-1.9,9.7-6.8c2.4-1.9,9.2-10.1,9.6-10.5C553.1,319.7,549.6,324.3,548.2,326z"/>
<line class="st9" x1="437.8" y1="287.7" x2="437.7" y2="287.7"/>
<path class="st9" d="M624.6,207.5c0.8,10.8,2.5,22.9,0.9,33.1c-2.3,15.1-7.9,27.9-15.3,40.6c-15.6,26.8-30.9,33.6-44.3,43.5
	c-8.4,6.2-16.2,14.2-26.4,20c-5.8,3.3-6.6-0.1-16.6,4.5c-10.3,4.7-12.4,4.3-18.1,5.3c-13.4,2.2-26.7-0.1-37.4-1.2
	c-40.7-4.4-86-25.6-107.4-69.1c-8.6-17.5-6.2-14.9-16.5-47.6c-3.6-11.4-3-19.1-2.4-26.1c0.8-10.1,5.2-28.7,6.4-39.3
	c1.4-12.2,2.6-15.8,4.8-19.1c2-3.2,6.3-6.3,13.4-18c3.1-5,6.6-9.8,10.2-14.4c1.7-2.2-0.5-2.8,1.4-5c2.3-2.7,3.4-4.9,6.3-7.2
	c1.5-1.2,1.6-0.6,2.7-0.9c1.8-0.5,13.4-10.8,21.1-16.5c24-17.9,43.5-19.2,76.3-22c46.8-4,113.2,30.9,129.1,81.4
	c2.5,7.8,7,12,8.1,16.8c0.8,3.6,2.4,6.2,2.5,8.5C624.7,187.5,623.7,195.3,624.6,207.5z"/>
<g>
	<g>
		<defs>
			<path id="SVGID_57_" d="M605,255c-1.3,0-1.9-0.4-2.2-0.8c-1.7-1.7-1.6-6.7-1.6-11.9c0-1.2,0-2.4,0-3.6l0-1.7c0-6.6,0-14,2.4-16.5
				c0.5-0.5,1.2-0.8,2-0.8c2.2,0,11.4,2.1,12.8,12.1c0.8,6-3.1,14.3-7.3,19.1C608.9,253.4,606.6,255,605,255z M607.2,218.1
				c-6.4,0-6,10.7-6,20.6c0,9.8-1,17.9,5.4,17.9s16.4-15.3,15-25C620.1,220.9,610.4,218.1,607.2,218.1z"/>
		</defs>
		<clipPath id="SVGID_19_">
			<use xlink:href="#SVGID_57_"  style="overflow:visible;"/>
		</clipPath>
	</g>
	<path class="st9" d="M605,255c-1.3,0-1.9-0.4-2.2-0.8c-1.7-1.7-1.6-6.7-1.6-11.9c0-1.2,0-2.4,0-3.6l0-1.7c0-6.6,0-14,2.4-16.5
		c0.5-0.5,1.2-0.8,2-0.8c2.2,0,11.4,2.1,12.8,12.1c0.8,6-3.1,14.3-7.3,19.1C608.9,253.4,606.6,255,605,255z M607.2,218.1
		c-6.4,0-6,10.7-6,20.6c0,9.8-1,17.9,5.4,17.9s16.4-15.3,15-25C620.1,220.9,610.4,218.1,607.2,218.1z"/>
</g>
<g>
	<g>
		<defs>
			<path id="SVGID_61_" d="M610.1,272.6c-3.5,8.2-6.9,12.4-8.9,16.3c-1.5,3-1.7,6.7-3,6.7c-0.8,0-1.3-0.5-1.5-1.4c0,0,0.8-0.1,1-0.9
				c0.5-1.6,1.1-5.2,5.3-11.6c0.7-1.2,4-6.8,6.3-12.2c0.9-2,9.4-16.8,11.3-20.8c1.2-2.1,2.2-3.4,3-3.4
				C625.4,245.4,613.5,264.8,610.1,272.6z"/>
		</defs>
		<clipPath id="SVGID_21_">
			<use xlink:href="#SVGID_61_"  style="overflow:visible;"/>
		</clipPath>
	</g>
	<path class="st9" d="M610.1,272.6c-3.5,8.2-6.9,12.4-8.9,16.3c-1.5,3-1.7,6.7-3,6.7c-0.8,0-1.3-0.5-1.5-1.4c0,0,0.8-0.1,1-0.9
		c0.5-1.6,1.1-5.2,5.3-11.6c0.7-1.2,4-6.8,6.3-12.2c0.9-2,9.4-16.8,11.3-20.8c1.2-2.1,2.2-3.4,3-3.4
		C625.4,245.4,613.5,264.8,610.1,272.6z"/>
</g>
<path class="st9" d="M620.6,248.8c-1.9,4-10.4,18.7-11.3,20.8c-2.3,5.4-5.6,11-6.3,12.2c-4.1,6.5-4.7,10-5.3,11.6
	c-0.3,0.8-1,0.9-1,0.9c-0.6-2.9,1.4-10.1,7.5-20.8c3.2-5.6,7.4-9.1,10.3-13.8C617,255.6,619,251.5,620.6,248.8z"/>
<g>
	<g>
		<defs>
			<path id="SVGID_65_" d="M568.2,106.7c-1.5-5.2-18.1-18.1-28.7-22.3c-8.9-3.5-16.8-5.5-21.7-5.5c-3.5,0-5.7,1-6.5,3.1
				c-1.6,3.8,1.7,6.2,5.1,8.7c2.4,1.8,5.4,4.1,8,7.4l1.2,1.6c5.8,7.5,10.4,13.4,16.9,13.9c3.7,0.3,6.7,0.4,9.4,0.4
				c8.5,0,13.5-1.5,15.9-4.6C568.2,109,568.6,108.1,568.2,106.7z M565.1,109.8c-2.2,3.1-8.3,3.8-15,3.8h0c-1.6,0-3.3-0.1-5-0.2
				c-0.6,0-1.3-0.1-1.9-0.1c-0.5,0-1-0.1-1.5-0.1c-6-0.5-10.4-6.8-16.6-14.7c-6.2-8-14.5-10-12.8-14c0.1-0.2,0.2-0.4,0.3-0.5
				c0-0.1,0.1-0.1,0.1-0.1c0.1-0.1,0.1-0.1,0.2-0.2c0,0,0,0,0,0c0,0,0,0,0,0c2.3-1.8,9.4-0.7,17.9,2c0,0,0.1,0,0.1,0
				c0.5,0.2,1,0.3,1.5,0.5c1.7,0.6,3.5,1.2,5.3,1.9c0.2,0.1,0.5,0.2,0.7,0.3c0.5,0.2,0.9,0.4,1.4,0.6c1.5,0.7,3,1.5,4.5,2.4
				c0.2,0.1,0.4,0.2,0.6,0.3c0.1,0,0.1,0.1,0.2,0.1c0.1,0.1,0.3,0.1,0.4,0.2c1.2,0.7,2.3,1.4,3.5,2.2c0.4,0.2,0.7,0.5,1.1,0.8
				c0.1,0.1,0.2,0.1,0.3,0.2c0,0,0,0,0,0C558.9,101,566.3,108.1,565.1,109.8z"/>
		</defs>
		<clipPath id="SVGID_22_">
			<use xlink:href="#SVGID_65_"  style="overflow:visible;"/>
		</clipPath>
	</g>
	<path class="st9" d="M568.2,106.7c-1.5-5.2-18.1-18.1-28.7-22.3c-8.9-3.5-16.8-5.5-21.7-5.5c-3.5,0-5.7,1-6.5,3.1
		c-1.6,3.8,1.7,6.2,5.1,8.7c2.4,1.8,5.4,4.1,8,7.4l1.2,1.6c5.8,7.5,10.4,13.4,16.9,13.9c3.7,0.3,6.7,0.4,9.4,0.4
		c8.5,0,13.5-1.5,15.9-4.6C568.2,109,568.6,108.1,568.2,106.7z M565.1,109.8c-2.2,3.1-8.3,3.8-15,3.8h0c-1.6,0-3.3-0.1-5-0.2
		c-0.6,0-1.3-0.1-1.9-0.1c-0.5,0-1-0.1-1.5-0.1c-6-0.5-10.4-6.8-16.6-14.7c-6.2-8-14.5-10-12.8-14c0.1-0.2,0.2-0.4,0.3-0.5
		c0-0.1,0.1-0.1,0.1-0.1c0.1-0.1,0.1-0.1,0.2-0.2c0,0,0,0,0,0c0,0,0,0,0,0c2.3-1.8,9.4-0.7,17.9,2c0,0,0.1,0,0.1,0
		c0.5,0.2,1,0.3,1.5,0.5c1.7,0.6,3.5,1.2,5.3,1.9c0.2,0.1,0.5,0.2,0.7,0.3c0.5,0.2,0.9,0.4,1.4,0.6c1.5,0.7,3,1.5,4.5,2.4
		c0.2,0.1,0.4,0.2,0.6,0.3c0.1,0,0.1,0.1,0.2,0.1c0.1,0.1,0.3,0.1,0.4,0.2c1.2,0.7,2.3,1.4,3.5,2.2c0.4,0.2,0.7,0.5,1.1,0.8
		c0.1,0.1,0.2,0.1,0.3,0.2c0,0,0,0,0,0C558.9,101,566.3,108.1,565.1,109.8z"/>
</g>
<g>
	<g>
		<defs>
			<path id="SVGID_69_" d="M589.2,137c-0.8-2.9-2.8-9.5-9.9-11.8c-1.6-0.5-3.7-0.8-6.5-0.8c-3.9,0-8.5,0.5-12.5,1
				c-10.9,1.3-21.1,3.6-21.1,11.9c0,6.4,8.3,9.5,25.3,9.5c3,0,6,0.3,8.9,0.5c2.5,0.2,4.9,0.4,7,0.4c2.8,0,6.3-0.3,8.2-2.8
				C590,143,590.2,140.4,589.2,137z M576.4,146.5c-0.1,0-0.1,0-0.2,0h0c0,0-0.1,0-0.1,0c-0.3,0-0.6,0-0.9-0.1c-0.3,0-0.5,0-0.8-0.1
				c-0.1,0-0.2,0-0.4,0c-0.5,0-1.1-0.1-1.6-0.1c-1.4-0.1-2.8-0.2-4.3-0.3c-0.3,0-0.7,0-1-0.1c-0.6,0-1.2-0.1-1.8-0.1
				c-0.2,0-0.4,0-0.6,0c-0.3,0-0.6,0-0.8,0c-0.4,0-0.7,0-1.1,0c-13.1,0-23.2-1.8-23.2-7.4c0-0.2,0-0.3,0-0.5v0
				c0.3-3.6,3.3-6,9.4-7.6c0.1,0,0.2-0.1,0.4-0.1c0.9-0.2,1.8-0.4,2.8-0.6c0,0,0.1,0,0.1,0c0.3-0.1,0.6-0.1,0.9-0.2
				c0.1,0,0.2,0,0.3-0.1c0.6-0.1,1.2-0.2,1.8-0.3c0,0,0,0,0.1,0c0.3-0.1,0.7-0.1,1.1-0.2c0.4-0.1,0.8-0.1,1.2-0.2
				c0.4-0.1,0.8-0.1,1.2-0.1c6.5-0.8,14.2-1.5,18.1-0.3c0.3,0.1,0.7,0.2,1,0.4c0.1,0,0.2,0.1,0.3,0.1c0.1,0,0.2,0.1,0.3,0.1
				c0.2,0.1,0.3,0.2,0.5,0.2c0.2,0.1,0.3,0.2,0.5,0.3c0.1,0.1,0.2,0.2,0.4,0.2c0.1,0.1,0.3,0.2,0.4,0.3c0.4,0.3,0.8,0.6,1.1,0.9
				c0.1,0.1,0.2,0.2,0.3,0.3c0.3,0.3,0.6,0.7,0.9,1c0.1,0.1,0.2,0.2,0.3,0.4c0.1,0.1,0.2,0.2,0.2,0.4c0.2,0.2,0.3,0.5,0.5,0.7
				c0.1,0.1,0.1,0.2,0.2,0.3c0.2,0.4,0.4,0.8,0.6,1.2c0.1,0.2,0.2,0.5,0.3,0.7c0,0.1,0.1,0.2,0.1,0.3c0,0.1,0.1,0.2,0.1,0.3
				c0,0.1,0.1,0.2,0.1,0.3c0.1,0.3,0.2,0.6,0.3,0.9c0.1,0.3,0.2,0.6,0.3,0.8C587.7,146,583.3,146.9,576.4,146.5z"/>
		</defs>
		<clipPath id="SVGID_23_">
			<use xlink:href="#SVGID_69_"  style="overflow:visible;"/>
		</clipPath>
	</g>
	<path class="st9" d="M589.2,137c-0.8-2.9-2.8-9.5-9.9-11.8c-1.6-0.5-3.7-0.8-6.5-0.8c-3.9,0-8.5,0.5-12.5,1
		c-10.9,1.3-21.1,3.6-21.1,11.9c0,6.4,8.3,9.5,25.3,9.5c3,0,6,0.3,8.9,0.5c2.5,0.2,4.9,0.4,7,0.4c2.8,0,6.3-0.3,8.2-2.8
		C590,143,590.2,140.4,589.2,137z M576.4,146.5c-0.1,0-0.1,0-0.2,0h0c0,0-0.1,0-0.1,0c-0.3,0-0.6,0-0.9-0.1c-0.3,0-0.5,0-0.8-0.1
		c-0.1,0-0.2,0-0.4,0c-0.5,0-1.1-0.1-1.6-0.1c-1.4-0.1-2.8-0.2-4.3-0.3c-0.3,0-0.7,0-1-0.1c-0.6,0-1.2-0.1-1.8-0.1
		c-0.2,0-0.4,0-0.6,0c-0.3,0-0.6,0-0.8,0c-0.4,0-0.7,0-1.1,0c-13.1,0-23.2-1.8-23.2-7.4c0-0.2,0-0.3,0-0.5v0c0.3-3.6,3.3-6,9.4-7.6
		c0.1,0,0.2-0.1,0.4-0.1c0.9-0.2,1.8-0.4,2.8-0.6c0,0,0.1,0,0.1,0c0.3-0.1,0.6-0.1,0.9-0.2c0.1,0,0.2,0,0.3-0.1
		c0.6-0.1,1.2-0.2,1.8-0.3c0,0,0,0,0.1,0c0.3-0.1,0.7-0.1,1.1-0.2c0.4-0.1,0.8-0.1,1.2-0.2c0.4-0.1,0.8-0.1,1.2-0.1
		c6.5-0.8,14.2-1.5,18.1-0.3c0.3,0.1,0.7,0.2,1,0.4c0.1,0,0.2,0.1,0.3,0.1c0.1,0,0.2,0.1,0.3,0.1c0.2,0.1,0.3,0.2,0.5,0.2
		c0.2,0.1,0.3,0.2,0.5,0.3c0.1,0.1,0.2,0.2,0.4,0.2c0.1,0.1,0.3,0.2,0.4,0.3c0.4,0.3,0.8,0.6,1.1,0.9c0.1,0.1,0.2,0.2,0.3,0.3
		c0.3,0.3,0.6,0.7,0.9,1c0.1,0.1,0.2,0.2,0.3,0.4c0.1,0.1,0.2,0.2,0.2,0.4c0.2,0.2,0.3,0.5,0.5,0.7c0.1,0.1,0.1,0.2,0.2,0.3
		c0.2,0.4,0.4,0.8,0.6,1.2c0.1,0.2,0.2,0.5,0.3,0.7c0,0.1,0.1,0.2,0.1,0.3c0,0.1,0.1,0.2,0.1,0.3c0,0.1,0.1,0.2,0.1,0.3
		c0.1,0.3,0.2,0.6,0.3,0.9c0.1,0.3,0.2,0.6,0.3,0.8C587.7,146,583.3,146.9,576.4,146.5z"/>
</g>
<g>
	<g>
		<defs>
			<path id="SVGID_73_" d="M616.8,178.7c-4.7-16-17.1-17.8-22.2-17.8c-11.8,0-24.7,1.4-26.9,18.2c-0.7,4.9,0.3,8.9,2.8,11.8
				c3.4,3.8,9.2,5.6,18.4,5.6c6,0,11.5,3.2,15.9,5.7c3.4,1.9,6,3.4,8.5,3.4c1.5,0,4.2-0.6,5.2-4.5
				C619.8,195.9,619.1,186.7,616.8,178.7z M614.8,202.2c-1.7,6.6-8.7-1.1-18.3-4.8c0,0,0,0,0,0c-0.5-0.2-0.9-0.3-1.4-0.5
				c-0.5-0.2-0.9-0.3-1.4-0.4c-0.3-0.1-0.6-0.2-1-0.2c-0.3-0.1-0.6-0.1-1-0.2c-0.2,0-0.3-0.1-0.5-0.1c-0.5-0.1-1-0.1-1.5-0.2
				c-0.5,0-1-0.1-1.5-0.1h-0.1c-0.2,0-0.3,0-0.5,0c-7.9,0-13.3-1.4-16.2-4.5c-1.7-1.8-2.6-4.3-2.6-7.3c0-0.3,0-0.5,0-0.8
				c0-0.2,0-0.5,0-0.7c0,0,0-0.1,0-0.1c0-0.3,0.1-0.7,0.1-1c1.1-8,4.6-12.1,10.4-14.1c0.2-0.1,0.4-0.1,0.5-0.2
				c0.6-0.2,1.2-0.4,1.9-0.5c0.3-0.1,0.7-0.1,1-0.2c0.3-0.1,0.6-0.1,1-0.2c0.3-0.1,0.6-0.1,0.9-0.1c0.2,0,0.4-0.1,0.6-0.1
				c0,0,0.1,0,0.1,0c0.2,0,0.5-0.1,0.7-0.1c0.4,0,0.7-0.1,1.1-0.1c0.3,0,0.6-0.1,0.9-0.1c0.1,0,0.1,0,0.2,0c0.4,0,0.7,0,1.1-0.1
				c0.4,0,0.8,0,1.2,0h0c0.6,0,1.2,0,1.9,0c0.2,0,0.4,0,0.7,0c7.7,0,16.1,3.9,19.7,15.9C615.6,189.2,616,197.8,614.8,202.2z"/>
		</defs>
		<clipPath id="SVGID_25_">
			<use xlink:href="#SVGID_73_"  style="overflow:visible;"/>
		</clipPath>
	</g>
	<path class="st9" d="M616.8,178.7c-4.7-16-17.1-17.8-22.2-17.8c-11.8,0-24.7,1.4-26.9,18.2c-0.7,4.9,0.3,8.9,2.8,11.8
		c3.4,3.8,9.2,5.6,18.4,5.6c6,0,11.5,3.2,15.9,5.7c3.4,1.9,6,3.4,8.5,3.4c1.5,0,4.2-0.6,5.2-4.5
		C619.8,195.9,619.1,186.7,616.8,178.7z M614.8,202.2c-1.7,6.6-8.7-1.1-18.3-4.8c0,0,0,0,0,0c-0.5-0.2-0.9-0.3-1.4-0.5
		c-0.5-0.2-0.9-0.3-1.4-0.4c-0.3-0.1-0.6-0.2-1-0.2c-0.3-0.1-0.6-0.1-1-0.2c-0.2,0-0.3-0.1-0.5-0.1c-0.5-0.1-1-0.1-1.5-0.2
		c-0.5,0-1-0.1-1.5-0.1h-0.1c-0.2,0-0.3,0-0.5,0c-7.9,0-13.3-1.4-16.2-4.5c-1.7-1.8-2.6-4.3-2.6-7.3c0-0.3,0-0.5,0-0.8
		c0-0.2,0-0.5,0-0.7c0,0,0-0.1,0-0.1c0-0.3,0.1-0.7,0.1-1c1.1-8,4.6-12.1,10.4-14.1c0.2-0.1,0.4-0.1,0.5-0.2
		c0.6-0.2,1.2-0.4,1.9-0.5c0.3-0.1,0.7-0.1,1-0.2c0.3-0.1,0.6-0.1,1-0.2c0.3-0.1,0.6-0.1,0.9-0.1c0.2,0,0.4-0.1,0.6-0.1
		c0,0,0.1,0,0.1,0c0.2,0,0.5-0.1,0.7-0.1c0.4,0,0.7-0.1,1.1-0.1c0.3,0,0.6-0.1,0.9-0.1c0.1,0,0.1,0,0.2,0c0.4,0,0.7,0,1.1-0.1
		c0.4,0,0.8,0,1.2,0h0c0.6,0,1.2,0,1.9,0c0.2,0,0.4,0,0.7,0c7.7,0,16.1,3.9,19.7,15.9C615.6,189.2,616,197.8,614.8,202.2z"/>
</g>
<g>
	<g>
		<defs>
			<path id="SVGID_77_" d="M588.8,274.8c0,20.9-6.8,29.6-11.6,32.7c-3.7,2.4-8.9,7.2-11.4,4.9c-3.2-3,3.4-0.1-1.9-37.9
				c-3-21.4,9.6-36.4,20.4-36.8C588.2,237.6,588.8,257.3,588.8,274.8z M577.8,309.9c0.8-0.6,1.6-1.2,2.3-1.6
				c4.8-3.1,12.9-11.8,12.9-35c0-11.2-0.3-19.3-0.8-25.3c-0.8-8.6-2.2-14.4-6.3-14.4l-0.1,0c-5.3,0.2-10.8,3.3-15.1,8.4
				c-6.7,8-9.5,19.4-7.8,31.4c3.4,24.2,1.8,31.4,1.2,34c-0.5,2.1-0.6,3.5,1.5,5.5c0.9,0.9,2.1,1.3,3.4,1.3
				C571.8,314.2,574.9,312,577.8,309.9z"/>
		</defs>
		<clipPath id="SVGID_26_">
			<use xlink:href="#SVGID_77_"  style="overflow:visible;"/>
		</clipPath>
	</g>
	<path class="st9" d="M588.8,274.8c0,20.9-6.8,29.6-11.6,32.7c-3.7,2.4-8.9,7.2-11.4,4.9c-3.2-3,3.4-0.1-1.9-37.9
		c-3-21.4,9.6-36.4,20.4-36.8C588.2,237.6,588.8,257.3,588.8,274.8z M577.8,309.9c0.8-0.6,1.6-1.2,2.3-1.6
		c4.8-3.1,12.9-11.8,12.9-35c0-11.2-0.3-19.3-0.8-25.3c-0.8-8.6-2.2-14.4-6.3-14.4l-0.1,0c-5.3,0.2-10.8,3.3-15.1,8.4
		c-6.7,8-9.5,19.4-7.8,31.4c3.4,24.2,1.8,31.4,1.2,34c-0.5,2.1-0.6,3.5,1.5,5.5c0.9,0.9,2.1,1.3,3.4,1.3
		C571.8,314.2,574.9,312,577.8,309.9z"/>
</g>
<g>
	<g>
		<defs>
			<path id="SVGID_81_" d="M565.5,229c-0.5-1.4-1.7-3.3-4.6-4.4c-0.4-0.2-0.9-0.2-1.4-0.2c-2.9,0-7.9,3-15.8,8
				c-3.2,2-6.2,3.9-8.1,4.8c-2.3,1.1-5.4,2-8.7,3c-8,2.3-17,4.8-19.9,12.7c-1.9,5-0.4,11.7,1,18.1c1.1,5,2.3,10.2,1.7,13.8
				c-2.7,16.9-3.1,23.6,0,27.2c1.3,1.6,3.2,2.3,5.7,2.3c3.3,0,7.7-1.4,13.7-3.7c10.8-4.1,16.6-7.8,19.3-12.3
				c2.8-4.6,2.2-9.4,1.5-15.5c-0.4-3.3-0.8-7-0.8-11.5c0-6.7,5-15.1,9.4-22.6C563.3,240.6,567.2,234,565.5,229z M544.6,271.9
				c0,2.4,0.1,4.6,0.3,6.7v0c0,0.4,0.1,0.7,0.1,1.1c0.1,0.8,0.2,1.5,0.2,2.3c0,0,0,0.1,0,0.1c0.1,0.5,0.1,1.1,0.2,1.6v0
				c0.1,0.9,0.2,1.8,0.3,2.7c0.1,0.7,0.1,1.3,0.2,1.9c0,0.2,0,0.3,0,0.5c0,0.8,0.1,1.6,0.1,2.3c-0.1,6.9-3.6,11.5-19.7,17.6
				c-10.4,4-15.5,5.2-17.3,0.7c0-0.1-0.1-0.2-0.1-0.3c0-0.1-0.1-0.2-0.1-0.3c0-0.1-0.1-0.2-0.1-0.3c0-0.1-0.1-0.2-0.1-0.3
				c-0.1-0.3-0.1-0.5-0.1-0.8c0-0.2-0.1-0.4-0.1-0.7c0-0.1,0-0.3,0-0.4c0-0.1,0-0.3,0-0.4c0-0.1,0-0.3,0-0.4
				c-0.2-4.2,0.7-10.6,2.1-19.6c0.6-3.5-0.2-7.9-1.2-12.4c0-0.1,0-0.2-0.1-0.3c-0.1-0.4-0.2-0.9-0.3-1.3c-0.2-0.8-0.4-1.6-0.5-2.4
				c0-0.1,0-0.2-0.1-0.3c-0.1-0.3-0.1-0.7-0.2-1c-0.1-0.6-0.3-1.3-0.4-1.9c0,0,0,0,0-0.1c-0.1-0.3-0.1-0.6-0.2-1
				c-0.1-0.3-0.1-0.6-0.2-1c-0.2-1.3-0.4-2.5-0.5-3.6v-0.1c0-0.2,0-0.5,0-0.7c-0.1-1.2,0-2.3,0.1-3.4c0.1-0.8,0.3-1.5,0.6-2.2
				c3.6-9.6,19.1-10.2,27.3-14.2c1.7-0.8,4-2.3,6.6-3.9c6.6-4.1,14.6-9.4,16.6-8.6C570.4,232.1,544.6,255.3,544.6,271.9z"/>
		</defs>
		<clipPath id="SVGID_27_">
			<use xlink:href="#SVGID_81_"  style="overflow:visible;"/>
		</clipPath>
	</g>
	<path class="st9" d="M565.5,229c-0.5-1.4-1.7-3.3-4.6-4.4c-0.4-0.2-0.9-0.2-1.4-0.2c-2.9,0-7.9,3-15.8,8c-3.2,2-6.2,3.9-8.1,4.8
		c-2.3,1.1-5.4,2-8.7,3c-8,2.3-17,4.8-19.9,12.7c-1.9,5-0.4,11.7,1,18.1c1.1,5,2.3,10.2,1.7,13.8c-2.7,16.9-3.1,23.6,0,27.2
		c1.3,1.6,3.2,2.3,5.7,2.3c3.3,0,7.7-1.4,13.7-3.7c10.8-4.1,16.6-7.8,19.3-12.3c2.8-4.6,2.2-9.4,1.5-15.5c-0.4-3.3-0.8-7-0.8-11.5
		c0-6.7,5-15.1,9.4-22.6C563.3,240.6,567.2,234,565.5,229z M544.6,271.9c0,2.4,0.1,4.6,0.3,6.7v0c0,0.4,0.1,0.7,0.1,1.1
		c0.1,0.8,0.2,1.5,0.2,2.3c0,0,0,0.1,0,0.1c0.1,0.5,0.1,1.1,0.2,1.6v0c0.1,0.9,0.2,1.8,0.3,2.7c0.1,0.7,0.1,1.3,0.2,1.9
		c0,0.2,0,0.3,0,0.5c0,0.8,0.1,1.6,0.1,2.3c-0.1,6.9-3.6,11.5-19.7,17.6c-10.4,4-15.5,5.2-17.3,0.7c0-0.1-0.1-0.2-0.1-0.3
		c0-0.1-0.1-0.2-0.1-0.3c0-0.1-0.1-0.2-0.1-0.3c0-0.1-0.1-0.2-0.1-0.3c-0.1-0.3-0.1-0.5-0.1-0.8c0-0.2-0.1-0.4-0.1-0.7
		c0-0.1,0-0.3,0-0.4c0-0.1,0-0.3,0-0.4c0-0.1,0-0.3,0-0.4c-0.2-4.2,0.7-10.6,2.1-19.6c0.6-3.5-0.2-7.9-1.2-12.4c0-0.1,0-0.2-0.1-0.3
		c-0.1-0.4-0.2-0.9-0.3-1.3c-0.2-0.8-0.4-1.6-0.5-2.4c0-0.1,0-0.2-0.1-0.3c-0.1-0.3-0.1-0.7-0.2-1c-0.1-0.6-0.3-1.3-0.4-1.9
		c0,0,0,0,0-0.1c-0.1-0.3-0.1-0.6-0.2-1c-0.1-0.3-0.1-0.6-0.2-1c-0.2-1.3-0.4-2.5-0.5-3.6v-0.1c0-0.2,0-0.5,0-0.7
		c-0.1-1.2,0-2.3,0.1-3.4c0.1-0.8,0.3-1.5,0.6-2.2c3.6-9.6,19.1-10.2,27.3-14.2c1.7-0.8,4-2.3,6.6-3.9c6.6-4.1,14.6-9.4,16.6-8.6
		C570.4,232.1,544.6,255.3,544.6,271.9z"/>
</g>
<g>
	<g>
		<defs>
			<path id="SVGID_85_" d="M541.3,201.8c-7.4,11.9-9.2,17.3-20.7,20.8c-10.7,3.2-21.1-8.6-21.1-22s9.7-21.6,21.1-27.1
				c7.6-3.6,23.3-8.7,27.5-3.1C551.1,174.6,545.8,194.6,541.3,201.8z M522.6,224.2c10.9-3.3,14.1-8.6,19.3-17.3
				c0.9-1.4,1.8-2.9,2.8-4.6c4-6.4,11.1-28.4,6.7-34.3c-1.8-2.4-4.8-3.6-9.1-3.6c-6.9,0-16,3.1-21.6,5.8
				c-15,7.2-22.6,17.1-22.6,29.5c0,13.4,9.4,25.2,20.1,25.2C519.7,224.9,521.2,224.7,522.6,224.2z"/>
		</defs>
		<clipPath id="SVGID_29_">
			<use xlink:href="#SVGID_85_"  style="overflow:visible;"/>
		</clipPath>
	</g>
	<path class="st9" d="M541.3,201.8c-7.4,11.9-9.2,17.3-20.7,20.8c-10.7,3.2-21.1-8.6-21.1-22s9.7-21.6,21.1-27.1
		c7.6-3.6,23.3-8.7,27.5-3.1C551.1,174.6,545.8,194.6,541.3,201.8z M522.6,224.2c10.9-3.3,14.1-8.6,19.3-17.3
		c0.9-1.4,1.8-2.9,2.8-4.6c4-6.4,11.1-28.4,6.7-34.3c-1.8-2.4-4.8-3.6-9.1-3.6c-6.9,0-16,3.1-21.6,5.8c-15,7.2-22.6,17.1-22.6,29.5
		c0,13.4,9.4,25.2,20.1,25.2C519.7,224.9,521.2,224.7,522.6,224.2z"/>
</g>
<path class="st9" d="M484.6,83.6c-5-2.8-18.9-1.6-30,1.3c-15.7,4.1-24,3.5-28.1,10.3c-1.5,2.4,4.6,4,8.4,5.9
	c9.3,4.8,14.9,7.9,22.3,6.5c5.7-1.1,10.7-5.5,15.4-9.6c-0.3-0.2-2.6-1.6-9-5.6c-3.2-2-14.5-6.2-14.5-6.2c1.7-0.4,3.5-0.8,5.5-1.3
	c4.7-1.2,9.8-2.1,14.6-2.6l12.8,8.2C485.1,88,487.4,85.2,484.6,83.6z M484.6,83.6c-5-2.8-18.9-1.6-30,1.3
	c-15.7,4.1-24,3.5-28.1,10.3c-1.5,2.4,4.6,4,8.4,5.9c9.3,4.8,14.9,7.9,22.3,6.5c5.7-1.1,10.7-5.5,15.4-9.6c-0.3-0.2-2.6-1.6-9-5.6
	c-3.2-2-14.5-6.2-14.5-6.2c1.7-0.4,3.5-0.8,5.5-1.3c4.7-1.2,9.8-2.1,14.6-2.6l12.8,8.2C485.1,88,487.4,85.2,484.6,83.6z"/>
<g>
	<g>
		<defs>
			<path id="SVGID_89_" d="M485.6,80.2c-2.2-1.2-5.7-1.8-10.4-1.8c-6.2,0-14.1,1.1-21.2,2.9c-4.3,1.1-8,1.9-11.3,2.5
				c-8.8,1.8-14.7,3-18.1,8.7c-0.5,0.9-0.7,1.9-0.4,2.8c0.7,2.2,3.5,3.4,6.7,4.7c1,0.4,2.1,0.9,3,1.4l1.2,0.6
				c7.3,3.7,12.5,6.5,18.5,6.5c1.3,0,2.6-0.1,3.9-0.4c6.1-1.2,11.4-5.7,16-9.8c1.6-1.4,3.2-2.7,4.6-3.9l0.9-0.7c5.3-4,9-7,8.8-10.3
				C487.8,82.8,487.5,81.3,485.6,80.2z M481.9,90.6c-1.6,1.4-3.4,2.7-4.9,3.8c-1.4,1.1-2.9,2.4-4.4,3.7c-4.6,4-9.7,8.5-15.4,9.6
				c-7.4,1.4-13-1.7-22.3-6.5c-3.8-2-9.9-3.6-8.4-5.9c4.1-6.7,12.4-6.2,28.1-10.3c11.2-2.9,25-4.1,30-1.3
				C487.4,85.2,485.1,88,481.9,90.6z"/>
		</defs>
		<clipPath id="SVGID_30_">
			<use xlink:href="#SVGID_89_"  style="overflow:visible;"/>
		</clipPath>
	</g>
	<path class="st9" d="M485.6,80.2c-2.2-1.2-5.7-1.8-10.4-1.8c-6.2,0-14.1,1.1-21.2,2.9c-4.3,1.1-8,1.9-11.3,2.5
		c-8.8,1.8-14.7,3-18.1,8.7c-0.5,0.9-0.7,1.9-0.4,2.8c0.7,2.2,3.5,3.4,6.7,4.7c1,0.4,2.1,0.9,3,1.4l1.2,0.6
		c7.3,3.7,12.5,6.5,18.5,6.5c1.3,0,2.6-0.1,3.9-0.4c6.1-1.2,11.4-5.7,16-9.8c1.6-1.4,3.2-2.7,4.6-3.9l0.9-0.7c5.3-4,9-7,8.8-10.3
		C487.8,82.8,487.5,81.3,485.6,80.2z M481.9,90.6c-1.6,1.4-3.4,2.7-4.9,3.8c-1.4,1.1-2.9,2.4-4.4,3.7c-4.6,4-9.7,8.5-15.4,9.6
		c-7.4,1.4-13-1.7-22.3-6.5c-3.8-2-9.9-3.6-8.4-5.9c4.1-6.7,12.4-6.2,28.1-10.3c11.2-2.9,25-4.1,30-1.3
		C487.4,85.2,485.1,88,481.9,90.6z"/>
</g>
<g>
	<g>
		<defs>
			<path id="SVGID_93_" d="M397.6,256.3c0.8,1.3,1.2,2.4,1.1,3.6c-1.3,12-13,12.7-20.8,9.5c-5.3-2.2-13.6-13.2-15.8-20
				c-3.9-11.8,0-29.7,8.5-30.2c0.7,0,1.5,0.5,2.4,1.4c-1.4-1.6-2.9-2.5-4.4-2.5c-0.1,0-0.1,0-0.2,0c-3.1,0.2-5.8,1.9-8,5
				c-4.6,6.8-5.9,19.4-2.9,28.6c2.4,7.4,11.1,19.1,17.3,21.6c2.9,1.2,6.1,1.8,9.1,1.8c8.7,0,14.4-5,15.3-13.5
				C399.4,259.8,398.8,258.1,397.6,256.3z M392.5,250c0.5,0.7,1.1,1.3,1.6,1.8C393.5,251.2,393,250.6,392.5,250z M378.4,229
				c0.6,1.1,1.3,2.3,1.9,3.4c1.8,3.1,3.4,5.8,5,8.1c-1.5-2.3-3.2-4.9-4.8-7.9c-0.4-0.6-0.7-1.3-1.1-2c-1.3-2.3-2.5-4.4-3.6-6.1
				C376.7,226,377.5,227.5,378.4,229C378.4,229,378.4,229,378.4,229z M396.8,255.2c0.2,0.3,0.4,0.6,0.6,0.8
				C397.2,255.8,397,255.5,396.8,255.2z M374.5,222.7c-0.4-0.6-0.8-1.1-1.2-1.6C373.7,221.6,374.1,222.1,374.5,222.7z"/>
		</defs>
		<clipPath id="SVGID_31_">
			<use xlink:href="#SVGID_93_"  style="overflow:visible;"/>
		</clipPath>
	</g>
	<path class="st9" d="M397.6,256.3c0.8,1.3,1.2,2.4,1.1,3.6c-1.3,12-13,12.7-20.8,9.5c-5.3-2.2-13.6-13.2-15.8-20
		c-3.9-11.8,0-29.7,8.5-30.2c0.7,0,1.5,0.5,2.4,1.4c-1.4-1.6-2.9-2.5-4.4-2.5c-0.1,0-0.1,0-0.2,0c-3.1,0.2-5.8,1.9-8,5
		c-4.6,6.8-5.9,19.4-2.9,28.6c2.4,7.4,11.1,19.1,17.3,21.6c2.9,1.2,6.1,1.8,9.1,1.8c8.7,0,14.4-5,15.3-13.5
		C399.4,259.8,398.8,258.1,397.6,256.3z M392.5,250c0.5,0.7,1.1,1.3,1.6,1.8C393.5,251.2,393,250.6,392.5,250z M378.4,229
		c0.6,1.1,1.3,2.3,1.9,3.4c1.8,3.1,3.4,5.8,5,8.1c-1.5-2.3-3.2-4.9-4.8-7.9c-0.4-0.6-0.7-1.3-1.1-2c-1.3-2.3-2.5-4.4-3.6-6.1
		C376.7,226,377.5,227.5,378.4,229C378.4,229,378.4,229,378.4,229z M396.8,255.2c0.2,0.3,0.4,0.6,0.6,0.8
		C397.2,255.8,397,255.5,396.8,255.2z M374.5,222.7c-0.4-0.6-0.8-1.1-1.2-1.6C373.7,221.6,374.1,222.1,374.5,222.7z"/>
</g>
<g>
	<g>
		<defs>
			<path id="SVGID_97_" d="M492.6,294.2c-1.9-3.5-4.4-5.2-7.6-5.2c-3.5,0-7.1,2.1-10.9,4.3c-0.5,0.3-0.9,0.5-1.4,0.8
				c-8.9,5-16.8,7.1-26.5,7.1c-10.6,0-14.5-0.8-25.8-8c-9.1-5.8-15.3-8.5-19.5-8.5c-6.2,0-6.6,5.7-6.8,8.4l0,0.6
				c-0.5,5.6,4.8,12.9,15.2,21.2c7.7,6.2,22.7,16.5,35.8,16.5c11,0,21.6-3.2,29.9-9c5.7-4,11-9.4,14.5-14.7
				C491.5,304.3,494.8,298.2,492.6,294.2z M473.2,318.9c-2.3,1.6-4.8,3-7.4,4.1c-6.6,3-14.1,4.5-21.3,4.5c-0.6,0-1.1,0-1.7-0.1
				c-4.7-0.3-9.7-2-14.5-4.3c-6.8-3.2-13.2-7.7-18.2-11.7c-1.1-0.8-2-1.7-3-2.5c-7.8-6.7-11.4-12.3-11.4-16.4c0-0.1,0-0.1,0-0.2
				c0-0.1,0-0.2,0-0.3c0.4-4.9,0-13.6,23.1,1.2c11.9,7.6,16.4,8.3,26.9,8.3c11,0,19.2-2.7,27.6-7.4c7-3.9,13.1-8.1,17.1-0.7
				c0.3,0.5,0.4,1.1,0.4,1.8c0,0.1,0,0.2,0,0.2C490.7,301.1,483.7,311.6,473.2,318.9z"/>
		</defs>
		<clipPath id="SVGID_33_">
			<use xlink:href="#SVGID_97_"  style="overflow:visible;"/>
		</clipPath>
	</g>
	<path class="st9" d="M492.6,294.2c-1.9-3.5-4.4-5.2-7.6-5.2c-3.5,0-7.1,2.1-10.9,4.3c-0.5,0.3-0.9,0.5-1.4,0.8
		c-8.9,5-16.8,7.1-26.5,7.1c-10.6,0-14.5-0.8-25.8-8c-9.1-5.8-15.3-8.5-19.5-8.5c-6.2,0-6.6,5.7-6.8,8.4l0,0.6
		c-0.5,5.6,4.8,12.9,15.2,21.2c7.7,6.2,22.7,16.5,35.8,16.5c11,0,21.6-3.2,29.9-9c5.7-4,11-9.4,14.5-14.7
		C491.5,304.3,494.8,298.2,492.6,294.2z M473.2,318.9c-2.3,1.6-4.8,3-7.4,4.1c-6.6,3-14.1,4.5-21.3,4.5c-0.6,0-1.1,0-1.7-0.1
		c-4.7-0.3-9.7-2-14.5-4.3c-6.8-3.2-13.2-7.7-18.2-11.7c-1.1-0.8-2-1.7-3-2.5c-7.8-6.7-11.4-12.3-11.4-16.4c0-0.1,0-0.1,0-0.2
		c0-0.1,0-0.2,0-0.3c0.4-4.9,0-13.6,23.1,1.2c11.9,7.6,16.4,8.3,26.9,8.3c11,0,19.2-2.7,27.6-7.4c7-3.9,13.1-8.1,17.1-0.7
		c0.3,0.5,0.4,1.1,0.4,1.8c0,0.1,0,0.2,0,0.2C490.7,301.1,483.7,311.6,473.2,318.9z"/>
</g>
<g>
	<g>
		<defs>
			<path id="SVGID_101_" d="M519.5,116c-1.9-12.6-8.3-19.8-17.6-19.8c-1.1,0-2.3,0.1-3.5,0.3c-12,2.3-17.8,8.5-18.2,19.5
				c-0.3,6.6,3.8,10.2,8.1,14.1c0.3,0.3,0.6,0.6,1,0.9c0.4,0.4,0.9,0.8,1.3,1.2c5,4.6,10.1,9.3,15.5,9.3c0.3,0,0.6,0,0.9,0
				c4.3-0.4,7.6-2.1,9.8-5C520,132.3,520.9,125.5,519.5,116z M515,134.3c-0.4,0.8-0.8,1.5-1.4,2.2c-0.1,0.1-0.2,0.2-0.3,0.3
				c-0.6,0.8-1.4,1.4-2.3,1.9c-0.4,0.2-0.8,0.5-1.2,0.6c-0.1,0.1-0.3,0.1-0.4,0.2c0,0,0,0,0,0c-0.2,0.1-0.5,0.2-0.7,0.3
				c-0.1,0-0.1,0-0.2,0.1c-0.1,0-0.3,0.1-0.4,0.1c0,0,0,0-0.1,0c-0.2,0-0.3,0.1-0.5,0.1c-0.4,0.1-0.7,0.2-1.1,0.2
				c-0.1,0-0.3,0-0.4,0.1c-0.2,0-0.3,0-0.5,0.1c0,0-0.1,0-0.1,0c-0.4,0-0.8,0-1.2,0c-0.1,0-0.3,0-0.4,0c-0.2,0-0.3,0-0.5-0.1
				c-0.3-0.1-0.6-0.1-1-0.2c-1.2-0.4-2.5-1-3.8-1.8c-3.1-2-6.3-5.1-9.3-7.8c-4.6-4.2-8.6-7.3-8.3-13.3c0.1-1.4,0.2-2.6,0.4-3.9
				c0.7-3.8,2.4-6.9,5.4-9.3c0.5-0.4,1.1-0.8,1.6-1.1c0.1-0.1,0.2-0.1,0.4-0.2c0.1-0.1,0.2-0.1,0.4-0.2c0.1-0.1,0.2-0.1,0.4-0.2
				c0.3-0.1,0.5-0.3,0.8-0.4c0.3-0.1,0.5-0.3,0.8-0.4c0.3-0.1,0.6-0.2,0.9-0.3c0.3-0.1,0.6-0.2,0.9-0.3c0.1,0,0.3-0.1,0.4-0.1
				c0,0,0.1,0,0.2,0c0.3-0.1,0.5-0.2,0.8-0.2c0,0,0.1,0,0.1,0c0.2-0.1,0.5-0.1,0.7-0.2c0.2-0.1,0.5-0.1,0.8-0.2
				c0.3-0.1,0.7-0.2,1-0.2c0.2,0,0.4-0.1,0.5-0.1c1.6-0.3,3.2-0.4,4.6-0.2c0.2,0,0.5,0.1,0.7,0.1c0.2,0,0.5,0.1,0.7,0.1
				s0.5,0.1,0.7,0.2c0.2,0.1,0.5,0.1,0.7,0.2c0.4,0.1,0.8,0.3,1.2,0.5c0.1,0,0.2,0.1,0.3,0.1c0.1,0.1,0.3,0.1,0.4,0.2
				c0.1,0.1,0.2,0.1,0.3,0.2c0,0,0,0,0.1,0c0.1,0.1,0.2,0.1,0.3,0.2c0.7,0.4,1.4,0.9,2,1.5c3.3,3,5.7,8,6.7,14.6
				C517.1,124.2,517,130.1,515,134.3z"/>
		</defs>
		<clipPath id="SVGID_34_">
			<use xlink:href="#SVGID_101_"  style="overflow:visible;"/>
		</clipPath>
	</g>
	<path class="st9" d="M519.5,116c-1.9-12.6-8.3-19.8-17.6-19.8c-1.1,0-2.3,0.1-3.5,0.3c-12,2.3-17.8,8.5-18.2,19.5
		c-0.3,6.6,3.8,10.2,8.1,14.1c0.3,0.3,0.6,0.6,1,0.9c0.4,0.4,0.9,0.8,1.3,1.2c5,4.6,10.1,9.3,15.5,9.3c0.3,0,0.6,0,0.9,0
		c4.3-0.4,7.6-2.1,9.8-5C520,132.3,520.9,125.5,519.5,116z M515,134.3c-0.4,0.8-0.8,1.5-1.4,2.2c-0.1,0.1-0.2,0.2-0.3,0.3
		c-0.6,0.8-1.4,1.4-2.3,1.9c-0.4,0.2-0.8,0.5-1.2,0.6c-0.1,0.1-0.3,0.1-0.4,0.2c0,0,0,0,0,0c-0.2,0.1-0.5,0.2-0.7,0.3
		c-0.1,0-0.1,0-0.2,0.1c-0.1,0-0.3,0.1-0.4,0.1c0,0,0,0-0.1,0c-0.2,0-0.3,0.1-0.5,0.1c-0.4,0.1-0.7,0.2-1.1,0.2
		c-0.1,0-0.3,0-0.4,0.1c-0.2,0-0.3,0-0.5,0.1c0,0-0.1,0-0.1,0c-0.4,0-0.8,0-1.2,0c-0.1,0-0.3,0-0.4,0c-0.2,0-0.3,0-0.5-0.1
		c-0.3-0.1-0.6-0.1-1-0.2c-1.2-0.4-2.5-1-3.8-1.8c-3.1-2-6.3-5.1-9.3-7.8c-4.6-4.2-8.6-7.3-8.3-13.3c0.1-1.4,0.2-2.6,0.4-3.9
		c0.7-3.8,2.4-6.9,5.4-9.3c0.5-0.4,1.1-0.8,1.6-1.1c0.1-0.1,0.2-0.1,0.4-0.2c0.1-0.1,0.2-0.1,0.4-0.2c0.1-0.1,0.2-0.1,0.4-0.2
		c0.3-0.1,0.5-0.3,0.8-0.4c0.3-0.1,0.5-0.3,0.8-0.4c0.3-0.1,0.6-0.2,0.9-0.3c0.3-0.1,0.6-0.2,0.9-0.3c0.1,0,0.3-0.1,0.4-0.1
		c0,0,0.1,0,0.2,0c0.3-0.1,0.5-0.2,0.8-0.2c0,0,0.1,0,0.1,0c0.2-0.1,0.5-0.1,0.7-0.2c0.2-0.1,0.5-0.1,0.8-0.2c0.3-0.1,0.7-0.2,1-0.2
		c0.2,0,0.4-0.1,0.5-0.1c1.6-0.3,3.2-0.4,4.6-0.2c0.2,0,0.5,0.1,0.7,0.1c0.2,0,0.5,0.1,0.7,0.1s0.5,0.1,0.7,0.2
		c0.2,0.1,0.5,0.1,0.7,0.2c0.4,0.1,0.8,0.3,1.2,0.5c0.1,0,0.2,0.1,0.3,0.1c0.1,0.1,0.3,0.1,0.4,0.2c0.1,0.1,0.2,0.1,0.3,0.2
		c0,0,0,0,0.1,0c0.1,0.1,0.2,0.1,0.3,0.2c0.7,0.4,1.4,0.9,2,1.5c3.3,3,5.7,8,6.7,14.6C517.1,124.2,517,130.1,515,134.3z"/>
</g>
<g>
	<g>
		<defs>
			<path id="SVGID_105_" d="M423.5,181.3c-1.8-8.4-1.6-16-1.5-22.7c0.2-10.3,0.4-19.2-8.9-21c-0.5-0.1-1-0.1-1.5-0.1
				c-8.7,0-16,13.5-18.8,19.3c-5.7,12-9,25.9-9,38.3c0,12.9,2.2,24.6,6.3,33.1c4.1,8.7,9.9,13.5,16.2,13.5c7.8,0,14.6-9.4,17.4-24.1
				l0.1-0.8C425.5,206.9,427.1,198.4,423.5,181.3z M425,206.6C425,206.6,425,206.6,425,206.6c-0.1,1.4-0.3,2.8-0.5,4.2
				c-0.1,0.7-0.2,1.4-0.3,2.1c-0.1,0.7-0.2,1.4-0.4,2.1c-0.2,1-0.4,2.1-0.6,3.1c-0.2,1.3-0.5,2.5-0.8,3.7c-0.1,0.4-0.2,0.8-0.3,1.2
				c-0.1,0.4-0.2,0.8-0.3,1.1c-0.1,0.4-0.2,0.7-0.3,1.1c0,0,0,0,0,0c-0.1,0.4-0.2,0.7-0.4,1.1c-0.2,0.4-0.3,0.9-0.5,1.3
				c-0.1,0.2-0.2,0.5-0.3,0.7c-0.1,0.2-0.2,0.4-0.3,0.6c0,0,0,0.1-0.1,0.1c-0.1,0.2-0.1,0.3-0.2,0.5c-0.1,0.3-0.3,0.6-0.4,0.8
				c-0.1,0.2-0.2,0.4-0.3,0.6c-0.1,0.3-0.3,0.6-0.5,0.8c0,0,0,0,0,0.1c-0.1,0.2-0.3,0.5-0.4,0.7c-0.5,0.9-1.1,1.7-1.7,2.5v0
				c-2.4,3.1-5.2,4.8-8,4.8c-9.3,0-17.8-13.9-19.5-35.9c0-0.1,0-0.3,0-0.4c0,0,0,0,0,0c0-0.5-0.1-1.1-0.1-1.6c0-0.2,0-0.3,0-0.5
				c0-0.6-0.1-1.1-0.1-1.7c0-0.6,0-1.2,0-1.7c0-0.1,0-0.3,0-0.4c0-0.6,0-1.2,0-1.8c0-26.6,16-56.9,26.2-54.8
				c0.4,0.1,0.7,0.2,1.1,0.3c0.3,0.1,0.6,0.2,0.9,0.3c0.3,0.1,0.6,0.3,0.9,0.5c0.1,0.1,0.3,0.2,0.4,0.2c0.4,0.3,0.7,0.5,1,0.9
				c0.1,0.1,0.1,0.2,0.2,0.2c0,0,0.1,0.1,0.1,0.2c0.2,0.2,0.3,0.4,0.5,0.6c0,0,0.1,0.1,0.1,0.1c0.1,0.1,0.1,0.2,0.2,0.3
				c0.1,0.2,0.2,0.3,0.3,0.5c0.1,0.1,0.1,0.2,0.1,0.3c0.1,0.1,0.1,0.3,0.2,0.4c0.3,0.9,0.5,1.9,0.7,3c0,0.4,0.1,0.7,0.1,1.1
				c0,0.2,0,0.4,0.1,0.6c0,0.2,0,0.4,0,0.6c0,0.4,0,0.8,0.1,1.3c0,1.4,0,2.9,0,4.5c0,1.3,0,2.6-0.1,3.9c0,1.9-0.1,4,0,6.1
				c0,0.7,0,1.3,0,2c0.1,1.8,0.2,3.7,0.4,5.6c0.1,1.5,0.3,2.9,0.6,4.5c0.2,1.2,0.4,2.3,0.7,3.5c0.6,2.8,1,5.3,1.4,7.6
				c0.1,0.8,0.2,1.5,0.3,2.3c0.1,0.7,0.2,1.5,0.2,2.2v0c0.1,0.7,0.1,1.4,0.1,2.1c0.1,1.4,0.1,2.7,0.1,4c0,1.2,0,2.4-0.1,3.5
				C425.1,205.1,425,205.9,425,206.6z"/>
		</defs>
		<clipPath id="SVGID_35_">
			<use xlink:href="#SVGID_105_"  style="overflow:visible;"/>
		</clipPath>
	</g>
	<path class="st9" d="M423.5,181.3c-1.8-8.4-1.6-16-1.5-22.7c0.2-10.3,0.4-19.2-8.9-21c-0.5-0.1-1-0.1-1.5-0.1
		c-8.7,0-16,13.5-18.8,19.3c-5.7,12-9,25.9-9,38.3c0,12.9,2.2,24.6,6.3,33.1c4.1,8.7,9.9,13.5,16.2,13.5c7.8,0,14.6-9.4,17.4-24.1
		l0.1-0.8C425.5,206.9,427.1,198.4,423.5,181.3z M425,206.6C425,206.6,425,206.6,425,206.6c-0.1,1.4-0.3,2.8-0.5,4.2
		c-0.1,0.7-0.2,1.4-0.3,2.1c-0.1,0.7-0.2,1.4-0.4,2.1c-0.2,1-0.4,2.1-0.6,3.1c-0.2,1.3-0.5,2.5-0.8,3.7c-0.1,0.4-0.2,0.8-0.3,1.2
		c-0.1,0.4-0.2,0.8-0.3,1.1c-0.1,0.4-0.2,0.7-0.3,1.1c0,0,0,0,0,0c-0.1,0.4-0.2,0.7-0.4,1.1c-0.2,0.4-0.3,0.9-0.5,1.3
		c-0.1,0.2-0.2,0.5-0.3,0.7c-0.1,0.2-0.2,0.4-0.3,0.6c0,0,0,0.1-0.1,0.1c-0.1,0.2-0.1,0.3-0.2,0.5c-0.1,0.3-0.3,0.6-0.4,0.8
		c-0.1,0.2-0.2,0.4-0.3,0.6c-0.1,0.3-0.3,0.6-0.5,0.8c0,0,0,0,0,0.1c-0.1,0.2-0.3,0.5-0.4,0.7c-0.5,0.9-1.1,1.7-1.7,2.5v0
		c-2.4,3.1-5.2,4.8-8,4.8c-9.3,0-17.8-13.9-19.5-35.9c0-0.1,0-0.3,0-0.4c0,0,0,0,0,0c0-0.5-0.1-1.1-0.1-1.6c0-0.2,0-0.3,0-0.5
		c0-0.6-0.1-1.1-0.1-1.7c0-0.6,0-1.2,0-1.7c0-0.1,0-0.3,0-0.4c0-0.6,0-1.2,0-1.8c0-26.6,16-56.9,26.2-54.8c0.4,0.1,0.7,0.2,1.1,0.3
		c0.3,0.1,0.6,0.2,0.9,0.3c0.3,0.1,0.6,0.3,0.9,0.5c0.1,0.1,0.3,0.2,0.4,0.2c0.4,0.3,0.7,0.5,1,0.9c0.1,0.1,0.1,0.2,0.2,0.2
		c0,0,0.1,0.1,0.1,0.2c0.2,0.2,0.3,0.4,0.5,0.6c0,0,0.1,0.1,0.1,0.1c0.1,0.1,0.1,0.2,0.2,0.3c0.1,0.2,0.2,0.3,0.3,0.5
		c0.1,0.1,0.1,0.2,0.1,0.3c0.1,0.1,0.1,0.3,0.2,0.4c0.3,0.9,0.5,1.9,0.7,3c0,0.4,0.1,0.7,0.1,1.1c0,0.2,0,0.4,0.1,0.6
		c0,0.2,0,0.4,0,0.6c0,0.4,0,0.8,0.1,1.3c0,1.4,0,2.9,0,4.5c0,1.3,0,2.6-0.1,3.9c0,1.9-0.1,4,0,6.1c0,0.7,0,1.3,0,2
		c0.1,1.8,0.2,3.7,0.4,5.6c0.1,1.5,0.3,2.9,0.6,4.5c0.2,1.2,0.4,2.3,0.7,3.5c0.6,2.8,1,5.3,1.4,7.6c0.1,0.8,0.2,1.5,0.3,2.3
		c0.1,0.7,0.2,1.5,0.2,2.2v0c0.1,0.7,0.1,1.4,0.1,2.1c0.1,1.4,0.1,2.7,0.1,4c0,1.2,0,2.4-0.1,3.5C425.1,205.1,425,205.9,425,206.6z"
		/>
</g>
<g>
	<g>
		<defs>
			<path id="SVGID_109_" d="M549.4,328.6c-4.3,5.2-9.3,8.4-22.6,9.8c-7.6,0.8-13,1.1-17.1,1.1c-7.2,0-10.9-1.1-12.2-3.8
				c-0.6-1.2-0.6-2.3-0.1-3.2c1.1-2.2,4.3-2.8,9.5-3.9c4.5-0.9,10.6-2.2,17.2-4.8c2-0.8,3.8-1.6,5.6-2.3c4.8-2.1,8.9-3.8,12.4-4.4
				c0,0,0,0,0,0c0.4-0.1,0.8-0.1,1.2-0.2c-3,0.4-6.6,1.7-10.8,3.5c-2.4,1-5,2.1-7.8,3.3c-15.6,6.3-28.2,4.7-25.7,9.8
				c1.7,3.5,11,3.5,27.7,1.8c13.3-1.4,17.7-4.6,21.5-9.2c1.4-1.7,4.9-6.3,0.2-8.4c-0.3-0.2-0.7-0.3-1.2-0.4c-0.2,0-0.3-0.1-0.5-0.1
				c0.3,0.1,0.5,0.1,0.8,0.2c0,0,0,0,0,0c0,0,0,0,0.1,0c2.4,0.7,4,2,4.5,3.7C553,323.8,551,326.7,549.4,328.6z"/>
		</defs>
		<clipPath id="SVGID_37_">
			<use xlink:href="#SVGID_109_"  style="overflow:visible;"/>
		</clipPath>
	</g>
	<path class="st9" d="M549.4,328.6c-4.3,5.2-9.3,8.4-22.6,9.8c-7.6,0.8-13,1.1-17.1,1.1c-7.2,0-10.9-1.1-12.2-3.8
		c-0.6-1.2-0.6-2.3-0.1-3.2c1.1-2.2,4.3-2.8,9.5-3.9c4.5-0.9,10.6-2.2,17.2-4.8c2-0.8,3.8-1.6,5.6-2.3c4.8-2.1,8.9-3.8,12.4-4.4
		c0,0,0,0,0,0c0.4-0.1,0.8-0.1,1.2-0.2c-3,0.4-6.6,1.7-10.8,3.5c-2.4,1-5,2.1-7.8,3.3c-15.6,6.3-28.2,4.7-25.7,9.8
		c1.7,3.5,11,3.5,27.7,1.8c13.3-1.4,17.7-4.6,21.5-9.2c1.4-1.7,4.9-6.3,0.2-8.4c-0.3-0.2-0.7-0.3-1.2-0.4c-0.2,0-0.3-0.1-0.5-0.1
		c0.3,0.1,0.5,0.1,0.8,0.2c0,0,0,0,0,0c0,0,0,0,0.1,0c2.4,0.7,4,2,4.5,3.7C553,323.8,551,326.7,549.4,328.6z"/>
</g>
<path class="st9" d="M548.2,326c-3.8,4.6-8.2,7.9-21.5,9.2c-16.7,1.7-26,1.7-27.7-1.8c-2.5-5.1,10.1-3.5,25.7-9.8
	c2.8-1.1,5.4-2.3,7.8-3.3c-0.5,0.5-4.4,4.4-7.1,6.8c-6.6,5.8-14.5,9-14.8,9.1c4.2,0,9.6-0.5,16.1-1.1c0.9-0.1,1.7-0.2,2.4-0.3
	c0,0,3.8-1.9,9.7-6.8c2.4-1.9,9.2-10.1,9.6-10.5C553.1,319.7,549.6,324.3,548.2,326z"/>
<g>
	<g>
		<defs>
			<path id="SVGID_113_" d="M431.7,337.1c3.9,2.4-4.4,0.7-12.4-2.7c-6.3-2.7-11.7-6.7-16.7-10c-10.7-7-16.1-12-23-21.1
				c-6.2-8.1-10.9-18.2-9.2-20.4c3-3.8,11.2,9.6,13.8,13.7C391.9,308.7,403.7,319.4,431.7,337.1z M431.5,336.2
				c-24.4-15.6-35.7-24-47.4-40.2c-1.2-1.7-7.2-13.1-12.8-14.5c-1.5-0.4-3.3-0.3-4.1,0.8c-4.5,5.6,9,23.3,9.1,23.4
				c7.1,9.3,12.8,14.6,23.7,21.7c0.9,0.6,1.8,1.2,2.8,1.8c4.2,2.8,8.9,6,14.3,8.3c5.4,2.3,11.5,3.8,14,3.8
				C433.5,341.5,435.1,338.5,431.5,336.2z"/>
		</defs>
		<clipPath id="SVGID_38_">
			<use xlink:href="#SVGID_113_"  style="overflow:visible;"/>
		</clipPath>
	</g>
	<path class="st9" d="M431.7,337.1c3.9,2.4-4.4,0.7-12.4-2.7c-6.3-2.7-11.7-6.7-16.7-10c-10.7-7-16.1-12-23-21.1
		c-6.2-8.1-10.9-18.2-9.2-20.4c3-3.8,11.2,9.6,13.8,13.7C391.9,308.7,403.7,319.4,431.7,337.1z M431.5,336.2
		c-24.4-15.6-35.7-24-47.4-40.2c-1.2-1.7-7.2-13.1-12.8-14.5c-1.5-0.4-3.3-0.3-4.1,0.8c-4.5,5.6,9,23.3,9.1,23.4
		c7.1,9.3,12.8,14.6,23.7,21.7c0.9,0.6,1.8,1.2,2.8,1.8c4.2,2.8,8.9,6,14.3,8.3c5.4,2.3,11.5,3.8,14,3.8
		C433.5,341.5,435.1,338.5,431.5,336.2z"/>
</g>
<g>
	<g>
		<defs>
			<path id="SVGID_117_" d="M532.8,344.2c0,2.1-17.4,5.4-39,5.4c-21.5,0-41.8-4.1-41.8-6.1c0-0.4,0.9-0.9,2.8-1.4
				c-0.1,0.1-0.2,0.8,1.7,1.5c2.2,0.7,9.7,2.6,22.5,3.6c9,0.7,16.1,0.8,33.1,0c6.3-0.3,16.6-1.7,19.2-2.9c0.4-0.2,0.3-0.3,0.3-0.4
				C532.4,343.9,532.8,344,532.8,344.2z"/>
		</defs>
		<clipPath id="SVGID_39_">
			<use xlink:href="#SVGID_117_"  style="overflow:visible;"/>
		</clipPath>
	</g>
	<path class="st9" d="M532.8,344.2c0,2.1-17.4,5.4-39,5.4c-21.5,0-41.8-4.1-41.8-6.1c0-0.4,0.9-0.9,2.8-1.4
		c-0.1,0.1-0.2,0.8,1.7,1.5c2.2,0.7,9.7,2.6,22.5,3.6c9,0.7,16.1,0.8,33.1,0c6.3-0.3,16.6-1.7,19.2-2.9c0.4-0.2,0.3-0.3,0.3-0.4
		C532.4,343.9,532.8,344,532.8,344.2z"/>
</g>
<path class="st9" d="M531.4,344.3c-2.6,1.2-12.8,2.6-19.2,2.9c-17,0.8-24.1,0.7-33.1,0c-12.9-1-20.4-2.8-22.5-3.6
	c-2-0.7-1.8-1.4-1.7-1.5c2.6-0.6,6.9-1.1,13.4-1.1c9.3,0,22.3,3.9,34.4,4.3c13.3,0.4,25.3-1.4,29.1-1.4
	C531.7,344,531.8,344.1,531.4,344.3z"/>
<g>
	<g>
		<defs>
			<path id="SVGID_121_" d="M382.6,162.2c-3.3,8.3-5.8,13-8.8,13c-5.5,0-6.2-3.9-6.2-10.9c0-7,4.9-11.1,9.7-13.8
				C384.6,146.4,384.5,157.5,382.6,162.2z M382.9,162.2c1.3-3.4,2.2-10.1-0.3-13.8c-1.1-1.6-2.7-2.5-4.6-2.5c-1.3,0-2.7,0.4-4.2,1.3
				c-7.4,4.2-11,9.5-11,16.1c0,5.4,0,13.5,8.8,13.5C376.6,176.9,379.6,170.5,382.9,162.2z"/>
		</defs>
		<clipPath id="SVGID_41_">
			<use xlink:href="#SVGID_121_"  style="overflow:visible;"/>
		</clipPath>
	</g>
	<path class="st9" d="M382.6,162.2c-3.3,8.3-5.8,13-8.8,13c-5.5,0-6.2-3.9-6.2-10.9c0-7,4.9-11.1,9.7-13.8
		C384.6,146.4,384.5,157.5,382.6,162.2z M382.9,162.2c1.3-3.4,2.2-10.1-0.3-13.8c-1.1-1.6-2.7-2.5-4.6-2.5c-1.3,0-2.7,0.4-4.2,1.3
		c-7.4,4.2-11,9.5-11,16.1c0,5.4,0,13.5,8.8,13.5C376.6,176.9,379.6,170.5,382.9,162.2z"/>
</g>
<g>
	<g>
		<defs>
			<path id="SVGID_125_" d="M473.2,248.8c-0.5,21.5-14.1,38.3-27.3,38.3c-7.6,0-15-5.4-19.3-14.6c-3.2-6.8,4-13.9,7.7-22.4
				c6.8-15.7,7.4-36.4,20.6-36.4C468,213.6,473.7,226.7,473.2,248.8z M473.7,248.3c0.4-15.6-2.3-26.5-8.1-32.4
				c-3.2-3.3-7.4-5-12.4-5c-10.9,0-14.2,11.4-17.7,23.5c-1.4,4.8-2.8,9.7-4.8,14.2c-1.1,2.4-2.4,4.8-3.8,7.1
				c-3.3,5.6-6.6,11.3-3.9,17.1c4.7,9.9,12.6,15.9,21.3,15.9C459.5,288.6,473.2,269.8,473.7,248.3z"/>
		</defs>
		<clipPath id="SVGID_42_">
			<use xlink:href="#SVGID_125_"  style="overflow:visible;"/>
		</clipPath>
	</g>
	<path class="st9" d="M473.2,248.8c-0.5,21.5-14.1,38.3-27.3,38.3c-7.6,0-15-5.4-19.3-14.6c-3.2-6.8,4-13.9,7.7-22.4
		c6.8-15.7,7.4-36.4,20.6-36.4C468,213.6,473.7,226.7,473.2,248.8z M473.7,248.3c0.4-15.6-2.3-26.5-8.1-32.4c-3.2-3.3-7.4-5-12.4-5
		c-10.9,0-14.2,11.4-17.7,23.5c-1.4,4.8-2.8,9.7-4.8,14.2c-1.1,2.4-2.4,4.8-3.8,7.1c-3.3,5.6-6.6,11.3-3.9,17.1
		c4.7,9.9,12.6,15.9,21.3,15.9C459.5,288.6,473.2,269.8,473.7,248.3z"/>
</g>
<g>
	<g>
		<defs>
			<path id="SVGID_129_" d="M485.9,167.4c-0.8,13.2-9.6,24-21.4,24c-11.8,0-22.1-9.2-22.1-22.4c0-4.6-0.7-9.1,1.7-17.8
				c2.6-9.2,12.2-14.8,21.4-13.7c6.2,0.8,12.5,4.5,16.3,10.5C485.9,154.2,486.3,160.6,485.9,167.4z M486.9,167.6
				c0.4-6.7,0.1-13.9-4.5-21c-4.2-6.4-11-10.8-18.2-11.7c-0.9-0.1-1.8-0.2-2.7-0.2c-9.9,0-19,6.6-21.6,15.8c-2.1,7.5-2,12-1.8,16
				c0,0.9,0.1,1.7,0.1,2.5c0,14.1,10.9,25.1,24.8,25.1C475.6,194,486,182.7,486.9,167.6z"/>
		</defs>
		<clipPath id="SVGID_43_">
			<use xlink:href="#SVGID_129_"  style="overflow:visible;"/>
		</clipPath>
	</g>
	<path class="st9" d="M485.9,167.4c-0.8,13.2-9.6,24-21.4,24c-11.8,0-22.1-9.2-22.1-22.4c0-4.6-0.7-9.1,1.7-17.8
		c2.6-9.2,12.2-14.8,21.4-13.7c6.2,0.8,12.5,4.5,16.3,10.5C485.9,154.2,486.3,160.6,485.9,167.4z M486.9,167.6
		c0.4-6.7,0.1-13.9-4.5-21c-4.2-6.4-11-10.8-18.2-11.7c-0.9-0.1-1.8-0.2-2.7-0.2c-9.9,0-19,6.6-21.6,15.8c-2.1,7.5-2,12-1.8,16
		c0,0.9,0.1,1.7,0.1,2.5c0,14.1,10.9,25.1,24.8,25.1C475.6,194,486,182.7,486.9,167.6z"/>
</g>
<g>
	<g>
		<defs>
			<path id="SVGID_133_" d="M417.1,106c-2.5-2.1-5.7-4.6-10.1-4.6c-1.5,0-3,0.3-4.6,0.9c-8.3,3.1-12.9,8.9-17.3,14.6
				c-1.5,1.9-3,3.7-4.5,5.4c-0.3,0.3-0.6,0.6-1,1c-3.2,3.3-6.3,6.7-6.2,9.8c0,1.1,0.5,2.1,1.3,2.9c0.5,0.5,1.2,0.7,2.1,0.7
				c1.9,0,4.5-1.2,7.7-2.7c3-1.4,6.4-3,9.4-3.6c2-0.4,3.9-0.8,5.8-1.2c13.2-2.7,24.6-5,24.6-12.3C424.4,112.3,420.7,108.9,417.1,106
				z M394.6,129.5c-7,1.5-15.8,7.8-17.8,6c-3.1-2.8,3.9-9.1,6-11.4c6.2-6.7,10.6-15.6,21.2-19.6c5.5-2.1,9.2,0.4,12.4,2.9
				c0.2,0.2,0.5,0.4,0.7,0.6c3.6,2.9,6.5,5.8,6.7,9.2c0,0.1,0,0.2,0,0.3c0,0.1,0,0.2,0,0.3C423.3,124.6,409.1,126.4,394.6,129.5z"/>
		</defs>
		<clipPath id="SVGID_45_">
			<use xlink:href="#SVGID_133_"  style="overflow:visible;"/>
		</clipPath>
	</g>
	<path class="st9" d="M417.1,106c-2.5-2.1-5.7-4.6-10.1-4.6c-1.5,0-3,0.3-4.6,0.9c-8.3,3.1-12.9,8.9-17.3,14.6
		c-1.5,1.9-3,3.7-4.5,5.4c-0.3,0.3-0.6,0.6-1,1c-3.2,3.3-6.3,6.7-6.2,9.8c0,1.1,0.5,2.1,1.3,2.9c0.5,0.5,1.2,0.7,2.1,0.7
		c1.9,0,4.5-1.2,7.7-2.7c3-1.4,6.4-3,9.4-3.6c2-0.4,3.9-0.8,5.8-1.2c13.2-2.7,24.6-5,24.6-12.3C424.4,112.3,420.7,108.9,417.1,106z
		 M394.6,129.5c-7,1.5-15.8,7.8-17.8,6c-3.1-2.8,3.9-9.1,6-11.4c6.2-6.7,10.6-15.6,21.2-19.6c5.5-2.1,9.2,0.4,12.4,2.9
		c0.2,0.2,0.5,0.4,0.7,0.6c3.6,2.9,6.5,5.8,6.7,9.2c0,0.1,0,0.2,0,0.3c0,0.1,0,0.2,0,0.3C423.3,124.6,409.1,126.4,394.6,129.5z"/>
</g>
<g>
	<g>
		<defs>
			<path id="SVGID_137_" d="M352.4,216.7c-4.1,0-2.9-12.8-2.6-18.5c0.5-9.9,5.7-20,7.9-18.9c1,0.5,1.7,1.7,2.2,3.4
				c-0.9-3.2-2.1-4.3-3.2-4.8c-0.3-0.2-0.7-0.3-1.1-0.3c-4.2,0-8.8,11.7-9.2,20.5c0,0.6-0.1,1.3-0.1,2.1c-0.4,7.8-0.6,14.4,1.8,17
				c0.7,0.7,1.6,1.1,2.5,1.1c3.6,0,6.9-5.1,8.8-11.4c-0.2,0.7-0.5,1.5-0.7,2.1C357,213.5,354.6,216.7,352.4,216.7z M361.2,195.9
				c0-1.2,0-2.6-0.1-4c-0.1-3.2-0.5-6.6-1.2-9.1c0.6,2.1,1,5,1.2,9.2C361.2,193.2,361.2,194.5,361.2,195.9
				c-0.1,3.4-0.6,7.1-1.6,10.5C360.6,203.2,361.2,199.5,361.2,195.9z"/>
		</defs>
		<clipPath id="SVGID_46_">
			<use xlink:href="#SVGID_137_"  style="overflow:visible;"/>
		</clipPath>
	</g>
	<path class="st9" d="M352.4,216.7c-4.1,0-2.9-12.8-2.6-18.5c0.5-9.9,5.7-20,7.9-18.9c1,0.5,1.7,1.7,2.2,3.4
		c-0.9-3.2-2.1-4.3-3.2-4.8c-0.3-0.2-0.7-0.3-1.1-0.3c-4.2,0-8.8,11.7-9.2,20.5c0,0.6-0.1,1.3-0.1,2.1c-0.4,7.8-0.6,14.4,1.8,17
		c0.7,0.7,1.6,1.1,2.5,1.1c3.6,0,6.9-5.1,8.8-11.4c-0.2,0.7-0.5,1.5-0.7,2.1C357,213.5,354.6,216.7,352.4,216.7z M361.2,195.9
		c0-1.2,0-2.6-0.1-4c-0.1-3.2-0.5-6.6-1.2-9.1c0.6,2.1,1,5,1.2,9.2C361.2,193.2,361.2,194.5,361.2,195.9c-0.1,3.4-0.6,7.1-1.6,10.5
		C360.6,203.2,361.2,199.5,361.2,195.9z"/>
</g>
<g>
	<g>
		<defs>
			<path id="SVGID_141_" d="M361.2,195.9c0,3.4-0.6,7.1-1.5,10.5c0,0.1-0.1,0.3-0.1,0.4c-0.2,0.7-0.5,1.5-0.7,2.1
				c0-0.2-0.9-3.6-0.8-9.2c0.1-5.3,2.7-7.5,3.1-7.9C361.2,193.2,361.2,194.5,361.2,195.9z"/>
		</defs>
		<clipPath id="SVGID_47_">
			<use xlink:href="#SVGID_141_"  style="overflow:visible;"/>
		</clipPath>
	</g>
	<path class="st9" d="M361.2,195.9c0,3.4-0.6,7.1-1.5,10.5c0,0.1-0.1,0.3-0.1,0.4c-0.2,0.7-0.5,1.5-0.7,2.1c0-0.2-0.9-3.6-0.8-9.2
		c0.1-5.3,2.7-7.5,3.1-7.9C361.2,193.2,361.2,194.5,361.2,195.9z"/>
</g>
<path class="st47" d="M624.6,207.5c0.8,10.8,2.5,22.9,0.9,33.1c-2.3,15.1-7.9,27.9-15.3,40.6c-15.6,26.8-30.9,33.6-44.3,43.5
	c-8.4,6.2-16.2,14.2-26.4,20c-5.8,3.3-6.6-0.1-16.6,4.5c-10.3,4.7-12.4,4.3-18.1,5.3c-13.4,2.2-26.7-0.1-37.4-1.2
	c-40.7-4.4-86-25.6-107.4-69.1c-8.6-17.5-6.2-14.9-16.5-47.6c-3.6-11.4-3-19.1-2.4-26.1c0.8-10.1,5.2-28.7,6.4-39.3
	c1.4-12.2,2.6-15.8,4.8-19.1c2-3.2,6.3-6.3,13.4-18c3.1-5,6.6-9.8,10.2-14.4c1.7-2.2-0.5-2.8,1.4-5c2.3-2.7,3.4-4.9,6.3-7.2
	c1.5-1.2,1.6-0.6,2.7-0.9c1.8-0.5,13.4-10.8,21.1-16.5c24-17.9,43.5-19.2,76.3-22c46.8-4,113.2,30.9,129.1,81.4
	c2.5,7.8,7,12,8.1,16.8c0.8,3.6,2.4,6.2,2.5,8.5C624.7,187.5,623.7,195.3,624.6,207.5z"/>
<path class="st24" d="M621.6,231.5c1.4,9.7-8.6,25-15,25s-5.4-8.1-5.4-17.9c0-9.8-0.4-20.6,6-20.6
	C610.4,218.1,620.1,220.9,621.6,231.5z"/>
<path class="st24" d="M610.1,272.6c-3.6,8.2-6.9,12.4-8.9,16.3c-1.5,3-1.7,6.7-3,6.7c-3.1,0-2-8,6-22.3c3.2-5.6,7.4-9.1,10.3-13.8
	c4.4-7,7.3-14.2,9.1-14.2C625.5,245.4,613.5,264.8,610.1,272.6z"/>
<path class="st24" d="M567.8,109.5c0.3-0.4,0.8-1.4,0.4-2.7c-1.5-5.2-18.1-18.1-28.7-22.3c-8.9-3.5-16.8-5.5-21.7-5.5
	c-3.5,0-5.7,1-6.5,3.1c-1.6,3.8,1.7,6.2,5.1,8.7c2.4,1.8,5.4,4.1,8,7.4l1.2,1.6c5.8,7.5,10.4,13.4,16.9,13.9
	c3.7,0.3,6.7,0.4,9.4,0.4C560.5,114.1,565.5,112.6,567.8,109.5z"/>
<path class="st24" d="M580.4,147.7c-2.1,0-4.5-0.2-7-0.4c-2.9-0.2-5.9-0.5-8.9-0.5c-17,0-25.3-3.1-25.3-9.5
	c0-8.3,10.1-10.6,21.1-11.9c4-0.5,8.6-1,12.5-1c2.8,0,4.9,0.2,6.5,0.8c7.2,2.3,9.1,8.9,9.9,11.8c1,3.5,0.8,6.1-0.6,7.9
	C586.7,147.4,583.2,147.7,580.4,147.7z"/>
<path class="st24" d="M613.2,205.7c-2.4,0-5.1-1.5-8.5-3.5c-4.4-2.6-10-5.7-15.9-5.7c-9.2,0-15.1-1.8-18.4-5.6
	c-2.5-2.9-3.5-6.8-2.8-11.8c2.2-16.8,15.1-18.2,26.9-18.2c5.1,0,17.5,1.7,22.2,17.8c2.3,7.9,3,17.1,1.7,22.4
	C617.4,205.1,614.7,205.7,613.2,205.7z"/>
<path class="st24" d="M568.9,314.2c-1.3,0-2.5-0.5-3.4-1.3c-2.1-1.9-2-3.4-1.5-5.5c0.6-2.7,2.2-9.8-1.2-34
	c-1.7-12,1.2-23.4,7.8-31.4c4.3-5.2,9.8-8.2,15.1-8.4l0.1,0c4.2,0,5.6,5.8,6.3,14.4c0.5,6,0.8,14.1,0.8,25.3
	c0,23.1-8.1,31.8-12.9,35c-0.7,0.5-1.5,1-2.3,1.6C574.9,312,571.8,314.2,568.9,314.2z"/>
<path class="st24" d="M529,310.7c10.8-4.1,16.6-7.8,19.3-12.3c2.8-4.6,2.2-9.4,1.5-15.5c-0.4-3.3-0.8-7-0.8-11.5
	c0-6.7,5-15.1,9.4-22.6c4.9-8.3,8.8-14.9,7-19.9c-0.5-1.4-1.7-3.3-4.6-4.4c-0.4-0.2-0.9-0.3-1.4-0.3c-2.9,0-7.9,3-15.8,8
	c-3.2,2-6.2,3.9-8.1,4.8c-2.3,1.1-5.4,2-8.7,3c-8,2.3-17,4.8-19.9,12.7c-1.9,5-0.4,11.7,1,18.1c1.1,5,2.3,10.2,1.7,13.8
	c-2.7,16.9-3.1,23.6,0,27.2c1.3,1.6,3.2,2.3,5.7,2.3C518.5,314.4,523,313,529,310.7z"/>
<path class="st24" d="M518.3,224.9c-10.7,0-20.1-11.8-20.1-25.2c0-12.4,7.6-22.3,22.6-29.5c5.6-2.7,14.7-5.8,21.6-5.8
	c4.3,0,7.3,1.2,9.1,3.6c4.4,5.9-2.7,27.9-6.7,34.3c-1,1.6-1.9,3.1-2.8,4.6c-5.3,8.8-8.5,14-19.3,17.3
	C521.2,224.7,519.7,224.9,518.3,224.9z"/>
<path class="st24" d="M453.6,108.6c-6,0-11.3-2.7-18.5-6.5l-1.2-0.6c-0.9-0.5-2-0.9-3-1.4c-3.2-1.4-6-2.5-6.7-4.7
	c-0.3-0.9-0.2-2,0.4-2.8c3.5-5.7,9.3-6.9,18.1-8.7c3.3-0.7,7-1.4,11.3-2.5c7.1-1.8,15-2.9,21.2-2.9c4.7,0,8.2,0.6,10.4,1.8
	c1.9,1.1,2.3,2.6,2.3,3.4c0.2,3.3-3.5,6.4-8.8,10.3l-0.9,0.7c-1.5,1.1-3,2.4-4.6,3.9c-4.7,4-9.9,8.6-16,9.8
	C456.2,108.4,454.9,108.6,453.6,108.6z"/>
<path class="st24" d="M383.8,275.3c-3,0-6.2-0.6-9.1-1.8c-6.3-2.6-14.9-14.2-17.3-21.6c-3-9.3-1.8-21.8,2.9-28.6
	c2.1-3.1,4.9-4.9,8-5c0.1,0,0.1,0,0.2,0c3.7,0,6.5,4.8,10.9,12.6c0.4,0.7,0.7,1.3,1.1,2c5.5,9.7,10.3,15.3,13.5,19.1
	c3.3,3.9,5.6,6.5,5.2,10C398.3,270.2,392.5,275.3,383.8,275.3z"/>
<path class="st24" d="M445,331.3c-13.1,0-28-10.3-35.8-16.5c-10.4-8.3-15.6-15.6-15.2-21.2l0-0.6c0.2-2.7,0.6-8.4,6.8-8.4
	c4.2,0,10.3,2.7,19.5,8.5c11.3,7.2,15.2,8,25.8,8c9.7,0,17.7-2.1,26.5-7.1c0.5-0.3,0.9-0.5,1.4-0.8c3.8-2.2,7.5-4.3,10.9-4.3
	c3.2,0,5.8,1.8,7.6,5.2c2.2,4-1.1,10.1-3.2,13.4c-3.5,5.4-8.8,10.7-14.5,14.7C466.6,328.1,455.9,331.3,445,331.3z"/>
<path class="st24" d="M506,141.5c-5.4,0-10.5-4.7-15.5-9.3c-0.4-0.4-0.9-0.8-1.3-1.2c-0.3-0.3-0.7-0.6-1-0.9
	c-4.3-3.9-8.3-7.5-8.1-14.1c0.5-11,6.2-17.2,18.2-19.5c1.2-0.2,2.4-0.3,3.5-0.3c9.3,0,15.7,7.2,17.6,19.8c1.4,9.6,0.5,16.3-2.7,20.5
	c-2.2,2.9-5.5,4.6-9.8,5C506.6,141.5,506.3,141.5,506,141.5z"/>
<path class="st24" d="M406.1,241.6c-6.3,0-12.1-4.8-16.2-13.5c-4-8.5-6.3-20.2-6.3-33.1c0-12.3,3.3-26.3,9-38.3
	c2.8-5.8,10.1-19.3,18.8-19.3c0.5,0,1,0.1,1.5,0.2c9.3,1.9,9.1,10.7,8.9,21c-0.1,6.7-0.3,14.3,1.5,22.7c3.7,17.2,2.1,25.7,0.2,35.5
	l-0.1,0.8C420.8,232.1,414,241.6,406.1,241.6z"/>
<path class="st24" d="M509.7,339.5c-7.2,0-10.9-1.1-12.2-3.8c-0.6-1.2-0.6-2.3-0.1-3.2c1.1-2.2,4.3-2.8,9.5-3.9
	c4.5-0.9,10.6-2.2,17.2-4.8c2-0.8,3.8-1.6,5.6-2.3c6-2.6,10.8-4.6,15-4.6c1.1,0,2.1,0.1,3,0.4c2.4,0.7,4,2,4.5,3.7
	c0.9,2.8-1.2,5.7-2.8,7.7c-4.3,5.2-9.3,8.4-22.6,9.8C519.2,339.2,513.8,339.5,509.7,339.5z"/>
<path class="st24" d="M431.1,341.5c-2.5,0-8.5-1.4-14-3.8c-5.4-2.3-10.1-5.5-14.3-8.3c-0.9-0.6-1.9-1.2-2.8-1.8
	c-10.8-7.1-16.6-12.4-23.7-21.7c-0.1-0.2-13.6-17.8-9.1-23.4c0.9-1.1,2.6-1.2,4.1-0.8c5.6,1.4,11.6,12.8,12.8,14.5
	c11.6,16.2,22.9,24.6,47.4,40.2C435.1,338.5,433.5,341.5,431.1,341.5z"/>
<path class="st24" d="M532.8,344.2c0,2.1-17.4,5.4-39,5.4s-41.8-4.1-41.8-6.1c0-1,4.9-2.4,16.2-2.4c9.3,0,22.3,3.9,34.4,4.3
	C518.6,345.8,532.8,343,532.8,344.2z"/>
<path class="st24" d="M371.6,176.9c-8.8,0-8.8-8.2-8.8-13.5c0-6.7,3.6-11.9,11-16.1c1.5-0.8,2.9-1.3,4.2-1.3c1.9,0,3.5,0.9,4.6,2.5
	c2.5,3.7,1.6,10.4,0.3,13.8C379.6,170.5,376.6,176.9,371.6,176.9z"/>
<path class="st24" d="M444.3,288.6c-8.6,0-16.6-5.9-21.3-15.9c-2.7-5.8,0.7-11.5,3.9-17.1c1.3-2.3,2.7-4.6,3.8-7.1
	c1.9-4.5,3.4-9.4,4.8-14.2c3.5-12.1,6.8-23.5,17.7-23.5c5,0,9.1,1.7,12.4,5c5.7,5.9,8.4,16.8,8.1,32.4
	C473.2,269.8,459.5,288.6,444.3,288.6z"/>
<path class="st24" d="M462.9,194c-13.9,0-24.8-11-24.8-25.1c0-0.8,0-1.6-0.1-2.5c-0.1-4-0.3-8.5,1.8-16c2.6-9.1,11.6-15.8,21.6-15.8
	c0.9,0,1.8,0.1,2.7,0.2c7.2,0.9,14,5.3,18.2,11.7c4.6,7.1,4.9,14.3,4.5,21C486,182.7,475.6,194,462.9,194z"/>
<path class="st24" d="M376.9,136.6c-0.9,0-1.6-0.2-2.1-0.7c-0.8-0.8-1.3-1.7-1.3-2.9c-0.1-3.1,3-6.5,6.2-9.8c0.4-0.4,0.7-0.7,1-1
	c1.6-1.7,3-3.5,4.5-5.4c4.4-5.6,9-11.5,17.3-14.6c1.6-0.6,3.1-0.9,4.6-0.9c4.4,0,7.5,2.6,10.1,4.6c3.5,2.9,7.3,6.3,7.3,10.8
	c0,7.3-11.4,9.6-24.6,12.3c-1.9,0.4-3.9,0.8-5.8,1.2c-3,0.6-6.4,2.2-9.4,3.6C381.4,135.4,378.8,136.6,376.9,136.6z"/>
<path class="st24" d="M350.7,218.3c-1,0-1.8-0.4-2.5-1.1c-2.4-2.6-2.3-9.2-1.8-17c0-0.8,0.1-1.5,0.1-2.1c0.4-8.8,5-20.5,9.2-20.5
	c0.4,0,0.7,0.1,1.1,0.3c1.9,1,4.4,3.9,4.4,18.1C361.2,206,356.4,218.3,350.7,218.3z"/>
<linearGradient id="SVGID_49_" gradientUnits="userSpaceOnUse" x1="440.3878" y1="38.5856" x2="457.9227" y2="106.1851">
	<stop  offset="0" style="stop-color:#FFFFFF;stop-opacity:0"/>
	<stop  offset="7.509557e-02" style="stop-color:#FDE8DB;stop-opacity:5.596010e-02"/>
	<stop  offset="0.1906" style="stop-color:#FAC8AA;stop-opacity:0.142"/>
	<stop  offset="0.3093" style="stop-color:#F8AD81;stop-opacity:0.2305"/>
	<stop  offset="0.4292" style="stop-color:#F6965E;stop-opacity:0.3198"/>
	<stop  offset="0.5507" style="stop-color:#F58544;stop-opacity:0.4104"/>
	<stop  offset="0.6746" style="stop-color:#F47931;stop-opacity:0.5027"/>
	<stop  offset="0.8022" style="stop-color:#F37126;stop-opacity:0.5978"/>
	<stop  offset="0.9394" style="stop-color:#F36F22;stop-opacity:0.7"/>
</linearGradient>
<path style="opacity:0.2;fill:url(#SVGID_49_);" d="M488,83.6l3.8-67.1L386.1,49.7l38.1,45.7c0.7,2.2,3.5,3.4,6.7,4.7
	c1,0.4,2.1,0.9,3,1.4l1.2,0.6c7.3,3.7,12.5,6.5,18.5,6.5c1.3,0,2.6-0.1,3.9-0.4c6.1-1.2,11.4-5.7,16-9.8c1.6-1.4,3.2-2.7,4.6-3.9
	l0.9-0.7C484.5,90,488.2,86.9,488,83.6z"/>
<linearGradient id="SVGID_50_" gradientUnits="userSpaceOnUse" x1="578.2053" y1="47.1656" x2="529.1863" y2="102.5575">
	<stop  offset="0" style="stop-color:#FFFFFF;stop-opacity:0"/>
	<stop  offset="5.516709e-02" style="stop-color:#FEEFE6;stop-opacity:4.056827e-02"/>
	<stop  offset="0.1813" style="stop-color:#FBCDB3;stop-opacity:0.1333"/>
	<stop  offset="0.3098" style="stop-color:#F8B086;stop-opacity:0.2278"/>
	<stop  offset="0.4381" style="stop-color:#F69962;stop-opacity:0.3222"/>
	<stop  offset="0.5664" style="stop-color:#F58646;stop-opacity:0.4165"/>
	<stop  offset="0.6946" style="stop-color:#F47932;stop-opacity:0.5108"/>
	<stop  offset="0.823" style="stop-color:#F37226;stop-opacity:0.6052"/>
	<stop  offset="0.9519" style="stop-color:#F36F22;stop-opacity:0.7"/>
</linearGradient>
<path style="opacity:0.2;fill:url(#SVGID_50_);" d="M564.5,112.1c-2.8,1.3-6.9,1.9-12.4,1.9c-2.7,0-5.7-0.1-9.4-0.4
	c-6.5-0.5-11.1-6.4-16.9-13.9l-1.2-1.6c-2.6-3.3-5.6-5.6-8-7.4c-3.4-2.6-6.6-5-5.1-8.7 M564.5,112.1l63.4-34.5L537.3,6.8L511.4,82"
	/>
<linearGradient id="SVGID_51_" gradientUnits="userSpaceOnUse" x1="563.1114" y1="150.0479" x2="655.7692" y2="96.5448">
	<stop  offset="0" style="stop-color:#F36F22"/>
	<stop  offset="9.152146e-02" style="stop-color:#F58B4D"/>
	<stop  offset="0.2188" style="stop-color:#F8AE83"/>
	<stop  offset="0.3435" style="stop-color:#FBCBAF"/>
	<stop  offset="0.4626" style="stop-color:#FDE2D2"/>
	<stop  offset="0.5748" style="stop-color:#FEF2EB"/>
	<stop  offset="0.6771" style="stop-color:#FFFCFA"/>
	<stop  offset="0.7609" style="stop-color:#FFFFFF"/>
</linearGradient>
<path style="opacity:0.2;fill:url(#SVGID_51_);" d="M553.5,146.2c-9.6-1.2-14.3-4.1-14.3-9c0-6,5.4-8.9,12.6-10.5 M553.5,146.2
	l92.7,3.4l-22.4-82.1l-72,59.2"/>
<linearGradient id="SVGID_52_" gradientUnits="userSpaceOnUse" x1="337.3052" y1="52.0534" x2="412.4816" y2="138.2698">
	<stop  offset="0" style="stop-color:#FFFFFF;stop-opacity:0"/>
	<stop  offset="0.263" style="stop-color:#FBD3BC;stop-opacity:0.27"/>
	<stop  offset="0.6089" style="stop-color:#F79E6A;stop-opacity:0.6251"/>
	<stop  offset="0.8543" style="stop-color:#F47C36;stop-opacity:0.8771"/>
	<stop  offset="0.9741" style="stop-color:#F36F22"/>
</linearGradient>
<path class="st48" d="M422.1,110c1.6,1.9,2.7,4,2.7,6.5c0,7.3-11.4,9.6-24.6,12.3c-1.9,0.4-3.9,0.8-5.8,1.2c-3,0.6-6.4,2.2-9.4,3.6
	c-3.3,1.5-5.8,2.7-7.7,2.7c-0.9,0-1.6-0.2-2.1-0.7 M422.1,110l-38.4-84l-81.8,64.6l73.3,45"/>
<linearGradient id="SVGID_54_" gradientUnits="userSpaceOnUse" x1="281.8869" y1="179.2611" x2="359.4308" y2="198.5682">
	<stop  offset="0" style="stop-color:#FFFFFF"/>
	<stop  offset="0.2343" style="stop-color:#FFFDFC"/>
	<stop  offset="0.3768" style="stop-color:#FEF8F4"/>
	<stop  offset="0.4948" style="stop-color:#FEEEE6"/>
	<stop  offset="0.5994" style="stop-color:#FDE1D1"/>
	<stop  offset="0.6951" style="stop-color:#FBD0B7"/>
	<stop  offset="0.7844" style="stop-color:#F9BB96"/>
	<stop  offset="0.8687" style="stop-color:#F7A270"/>
	<stop  offset="0.947" style="stop-color:#F58544"/>
	<stop  offset="1" style="stop-color:#F36F22"/>
</linearGradient>
<path class="st49" d="M356.8,177.9c1.9,1,4.4,3.9,4.4,18.1c0,10.1-4.8,22.3-10.4,22.3 M356.8,177.9L296,137.1l-14.6,87.8
	c0.5,0.1,69.5-6.5,69.5-6.5"/>
<linearGradient id="SVGID_55_" gradientUnits="userSpaceOnUse" x1="293.3386" y1="302.0145" x2="388.6389" y2="232.6185">
	<stop  offset="0.1384" style="stop-color:#FFFFFF"/>
	<stop  offset="0.2181" style="stop-color:#FEEFE7"/>
	<stop  offset="0.6983" style="stop-color:#F6945A"/>
	<stop  offset="0.908" style="stop-color:#F36F22"/>
</linearGradient>
<path class="st50" d="M368.3,218.1c0.1,0,0.1,0,0.2,0c3.7,0,6.5,4.8,10.9,12.6c0.4,0.7,0.7,1.3,1.1,2c5.5,9.7,10.3,15.3,13.5,19.1
	c3.3,3.9,5.6,6.5,5.2,10c-0.5,4.5-2.4,8.1-5.3,10.4 M367.1,218.3l-85.7,26.8l56,90.5l56.7-63.6"/>
<linearGradient id="SVGID_56_" gradientUnits="userSpaceOnUse" x1="563.1913" y1="280.1172" x2="657.1787" y2="290.9955">
	<stop  offset="0" style="stop-color:#F36F22"/>
	<stop  offset="9.427980e-02" style="stop-color:#F3752B;stop-opacity:0.9057"/>
	<stop  offset="0.2478" style="stop-color:#F58543;stop-opacity:0.7522"/>
	<stop  offset="0.4414" style="stop-color:#F79E6B;stop-opacity:0.5586"/>
	<stop  offset="0.6675" style="stop-color:#FAC2A2;stop-opacity:0.3325"/>
	<stop  offset="0.9181" style="stop-color:#FEEFE7;stop-opacity:8.194846e-02"/>
	<stop  offset="1" style="stop-color:#FFFFFF;stop-opacity:0"/>
</linearGradient>
<path class="st51" d="M569.6,314.3c-1.3,0-2.5-0.5-3.4-1.3c-2.1-1.9-2-3.4-1.5-5.5c0.6-2.7,2.2-9.8-1.2-34
	c-1.7-12,1.2-23.4,7.8-31.4c4.3-5.1,9.8-8.2,15.1-8.4 M569.6,314.3l78,35.3L662,231.9l-76.6,1.7"/>
<linearGradient id="SVGID_58_" gradientUnits="userSpaceOnUse" x1="510.5516" y1="270.684" x2="654.5958" y2="306.5068">
	<stop  offset="0" style="stop-color:#F36F22"/>
	<stop  offset="0.2096" style="stop-color:#F37124;stop-opacity:0.7335"/>
	<stop  offset="0.3223" style="stop-color:#F4762C;stop-opacity:0.5903"/>
	<stop  offset="0.4119" style="stop-color:#F47F3A;stop-opacity:0.4765"/>
	<stop  offset="0.4894" style="stop-color:#F58B4D;stop-opacity:0.3779"/>
	<stop  offset="0.5591" style="stop-color:#F79B66;stop-opacity:0.2894"/>
	<stop  offset="0.6232" style="stop-color:#F8B085;stop-opacity:0.2079"/>
	<stop  offset="0.6829" style="stop-color:#FAC8AA;stop-opacity:0.132"/>
	<stop  offset="0.7378" style="stop-color:#FDE2D3;stop-opacity:6.228012e-02"/>
	<stop  offset="0.7868" style="stop-color:#FFFFFF;stop-opacity:0"/>
</linearGradient>
<path class="st52" d="M512.6,313.9c-1.2-0.4-2.2-1-3-2c-3.1-3.6-2.7-10.3,0-27.2c0.6-3.7-0.6-8.8-1.7-13.8c-1.4-6.5-2.9-13.2-1-18.1
	c3-7.9,12-10.5,19.9-12.7c3.3-0.9,6.4-1.8,8.7-3c1.9-1,4.9-2.8,8.1-4.8c7.9-5,12.9-8,15.8-8 M512.4,313.9l92.1,53.2l48.4-134
	l-93.5-8.8"/>
<linearGradient id="SVGID_59_" gradientUnits="userSpaceOnUse" x1="488.9106" y1="217.6642" x2="636.1547" y2="268.7229">
	<stop  offset="0.1126" style="stop-color:#F36F22"/>
	<stop  offset="0.2478" style="stop-color:#F37125;stop-opacity:0.816"/>
	<stop  offset="0.3503" style="stop-color:#F4772F;stop-opacity:0.6765"/>
	<stop  offset="0.442" style="stop-color:#F5823F;stop-opacity:0.5517"/>
	<stop  offset="0.5274" style="stop-color:#F69156;stop-opacity:0.4354"/>
	<stop  offset="0.6085" style="stop-color:#F7A474;stop-opacity:0.3251"/>
	<stop  offset="0.6863" style="stop-color:#F9BC98;stop-opacity:0.2191"/>
	<stop  offset="0.7615" style="stop-color:#FCD8C3;stop-opacity:0.1167"/>
	<stop  offset="0.8329" style="stop-color:#FEF8F4;stop-opacity:1.960987e-02"/>
	<stop  offset="0.8473" style="stop-color:#FFFFFF;stop-opacity:0"/>
</linearGradient>
<path class="st53" d="M547.6,343.4c0,0,50.1-16.5,70.9-58.4c20.8-41.9,20.7-120.7,20.7-120.7h-96.8c-6.9,0-16,3.1-21.6,5.8
	c-15,7.2-22.6,17.1-22.6,29.5c0,5.8,1.8,11.4,4.7,15.7C505.2,218.8,547.6,343.4,547.6,343.4z"/>
<linearGradient id="SVGID_60_" gradientUnits="userSpaceOnUse" x1="360.1371" y1="327.6813" x2="464.2131" y2="236.406">
	<stop  offset="4.888792e-02" style="stop-color:#FFFFFF;stop-opacity:0"/>
	<stop  offset="0.1284" style="stop-color:#FDE5D7;stop-opacity:8.669585e-02"/>
	<stop  offset="0.2382" style="stop-color:#FAC6A8;stop-opacity:0.2064"/>
	<stop  offset="0.3514" style="stop-color:#F8AB7F;stop-opacity:0.3299"/>
	<stop  offset="0.4663" style="stop-color:#F6965D;stop-opacity:0.4551"/>
	<stop  offset="0.5833" style="stop-color:#F58543;stop-opacity:0.5827"/>
	<stop  offset="0.7033" style="stop-color:#F47931;stop-opacity:0.7136"/>
	<stop  offset="0.8282" style="stop-color:#F37126;stop-opacity:0.8498"/>
	<stop  offset="0.9659" style="stop-color:#F36F22"/>
</linearGradient>
<path class="st54" d="M453.3,211.2c5,0,9.1,1.7,12.4,5c5.7,5.9,8.4,16.8,8.1,32.4c-0.5,21.5-14.3,36.7-16.5,35.9 M453.3,211.2
	l-117.5,62.7l79,80.9l42.4-70.4"/>
<radialGradient id="SVGID_62_" cx="458.3237" cy="158.4986" r="70.3628" fx="462.5304" fy="159.3122" gradientUnits="userSpaceOnUse">
	<stop  offset="3.062471e-02" style="stop-color:#F36F22"/>
	<stop  offset="0.3212" style="stop-color:#F37024;stop-opacity:0.6691"/>
	<stop  offset="0.4456" style="stop-color:#F4752B;stop-opacity:0.5274"/>
	<stop  offset="0.5383" style="stop-color:#F47D38;stop-opacity:0.4218"/>
	<stop  offset="0.6154" style="stop-color:#F5894A;stop-opacity:0.3341"/>
	<stop  offset="0.6826" style="stop-color:#F69861;stop-opacity:0.2575"/>
	<stop  offset="0.743" style="stop-color:#F8AA7D;stop-opacity:0.1888"/>
	<stop  offset="0.7983" style="stop-color:#FAC19F;stop-opacity:0.1257"/>
	<stop  offset="0.8497" style="stop-color:#FCDAC7;stop-opacity:6.720728e-02"/>
	<stop  offset="0.896" style="stop-color:#FEF6F2;stop-opacity:1.444876e-02"/>
	<stop  offset="0.9087" style="stop-color:#FFFFFF;stop-opacity:0"/>
</radialGradient>
<path class="st55" d="M439,225.8c-39.8-10.4-59-53-46.5-88.4s23.9-50.8,79.2-49.9c36.4,0.6,48.5,26.2,55.5,62.6
	C531.9,174.9,519,246.7,439,225.8z"/>
<linearGradient id="SVGID_63_" gradientUnits="userSpaceOnUse" x1="553.9362" y1="53.9325" x2="487.8826" y2="137.118">
	<stop  offset="0" style="stop-color:#FFFFFF"/>
	<stop  offset="0.1129" style="stop-color:#FFFCFB"/>
	<stop  offset="0.2366" style="stop-color:#FEF4ED"/>
	<stop  offset="0.3653" style="stop-color:#FDE5D7"/>
	<stop  offset="0.4976" style="stop-color:#FBD1B9"/>
	<stop  offset="0.6326" style="stop-color:#F9B891"/>
	<stop  offset="0.7699" style="stop-color:#F69861"/>
	<stop  offset="0.9066" style="stop-color:#F37329"/>
	<stop  offset="0.9222" style="stop-color:#F36F22"/>
</linearGradient>
<path class="st56" d="M516.5,136.6c-2.2,2.9-5.5,4.6-9.8,5c-0.3,0-0.6,0-0.9,0c-5.4,0-10.5-4.7-15.5-9.3c-0.4-0.4-0.9-0.8-1.3-1.2
	c-0.3-0.3-0.7-0.6-1-0.9c-4.3-3.9-8.3-7.5-8.1-14.1c0.2-4,1-7.4,2.7-10.2 M516.5,136.6l69.6-51.1l-70.2-55.9
	c0-0.6-33.4,76.2-33.4,76.2"/>
<linearGradient id="SVGID_64_" gradientUnits="userSpaceOnUse" x1="282.6776" y1="165.8483" x2="420.0396" y2="197.5489">
	<stop  offset="3.062471e-02" style="stop-color:#FFFFFF;stop-opacity:0"/>
	<stop  offset="0.2581" style="stop-color:#FBD1B8;stop-opacity:0.2591"/>
	<stop  offset="0.4858" style="stop-color:#F8A778;stop-opacity:0.5183"/>
	<stop  offset="0.6777" style="stop-color:#F58949;stop-opacity:0.7369"/>
	<stop  offset="0.8245" style="stop-color:#F4762D;stop-opacity:0.9041"/>
	<stop  offset="0.9087" style="stop-color:#F36F22"/>
</linearGradient>
<path class="st57" d="M414,137.7l-95.9-51l-15.9,170.9c0,0,102.9-16.2,102.9-16.2c0.4,0,0.8,0.1,1.2,0.1c7.8,0,14.6-9.4,17.4-24.1
	l0.1-0.8c1.9-9.8,3.5-18.3-0.2-35.5c-1.8-8.4-1.6-16-1.5-22.7C422.2,148.6,422.4,140,414,137.7z"/>
<linearGradient id="SVGID_66_" gradientUnits="userSpaceOnUse" x1="570.8458" y1="167.4804" x2="666.681" y2="184.78">
	<stop  offset="3.783442e-03" style="stop-color:#F36F22"/>
	<stop  offset="0.2173" style="stop-color:#F37125;stop-opacity:0.78"/>
	<stop  offset="0.355" style="stop-color:#F4762D;stop-opacity:0.6381"/>
	<stop  offset="0.4713" style="stop-color:#F4803C;stop-opacity:0.5182"/>
	<stop  offset="0.5756" style="stop-color:#F68E51;stop-opacity:0.4107"/>
	<stop  offset="0.672" style="stop-color:#F79F6C;stop-opacity:0.3113"/>
	<stop  offset="0.7626" style="stop-color:#F9B58E;stop-opacity:0.2179"/>
	<stop  offset="0.8486" style="stop-color:#FBCFB6;stop-opacity:0.1293"/>
	<stop  offset="0.9289" style="stop-color:#FDECE2;stop-opacity:4.651564e-02"/>
	<stop  offset="0.9741" style="stop-color:#FFFFFF;stop-opacity:0"/>
</linearGradient>
<path class="st58" d="M593.3,197.1c-1.5-0.4-2.9-0.6-4.5-0.6c-9.2,0-15.1-1.8-18.4-5.6c-2.5-2.9-3.5-6.8-2.8-11.8
	c2.2-16.2,14.2-18.1,25.7-18.2 M593.3,197.1l61.2,30.3l12.4-87.4l-73.6,21"/>
<linearGradient id="SVGID_67_" gradientUnits="userSpaceOnUse" x1="437.5525" y1="362.2856" x2="440.597" y2="289.3966">
	<stop  offset="0.1402" style="stop-color:#FFFFFF"/>
	<stop  offset="0.2215" style="stop-color:#FFFAF7"/>
	<stop  offset="0.3496" style="stop-color:#FDEBE0"/>
	<stop  offset="0.5086" style="stop-color:#FBD3BB"/>
	<stop  offset="0.6921" style="stop-color:#F9B188"/>
	<stop  offset="0.8938" style="stop-color:#F58747"/>
	<stop  offset="1" style="stop-color:#F36F22"/>
</linearGradient>
<path class="st59" d="M493.4,297c0-1-0.2-1.9-0.7-2.8c-1.9-3.5-4.4-5.2-7.6-5.2c-3.5,0-7.1,2.1-10.9,4.3c-0.5,0.3-0.9,0.5-1.4,0.8
	c-8.9,5-16.8,7.1-26.5,7.1c-10.6,0-14.5-0.8-25.8-8c-9.1-5.8-15.3-8.5-19.5-8.5c-2.5,0-4.1,0.9-5.1,2.2 M395.9,286.8l-22.4,65
	l128.5,9.3l-8.7-64.2"/>
<linearGradient id="SVGID_68_" gradientUnits="userSpaceOnUse" x1="547.7683" y1="390.3237" x2="529.4086" y2="323.8148">
	<stop  offset="0" style="stop-color:#FFFFFF;stop-opacity:0.3"/>
	<stop  offset="8.276431e-02" style="stop-color:#FEF8F5;stop-opacity:0.3666"/>
	<stop  offset="0.2246" style="stop-color:#FDE6D9;stop-opacity:0.4808"/>
	<stop  offset="0.4084" style="stop-color:#FBC9AD;stop-opacity:0.6287"/>
	<stop  offset="0.627" style="stop-color:#F7A16F;stop-opacity:0.8047"/>
	<stop  offset="0.8698" style="stop-color:#F36F22"/>
</linearGradient>
<path class="st60" d="M497.1,334.7c-0.2-0.8-0.1-1.5,0.2-2.2c1.1-2.2,4.3-2.8,9.5-3.9c4.5-0.9,10.6-2.2,17.2-4.8
	c2-0.8,3.8-1.6,5.6-2.3c6-2.6,10.8-4.6,15-4.6c1.1,0,2.1,0.1,3,0.4c2,0.6,3.4,1.5,4.1,2.8 M497.1,334.6c0,0,5.8,66.6,5.8,67.8
	l89.3-25.6L551.8,320"/>
<linearGradient id="SVGID_70_" gradientUnits="userSpaceOnUse" x1="367.0634" y1="365.4572" x2="403.0186" y2="317.9776">
	<stop  offset="0" style="stop-color:#FFFFFF"/>
	<stop  offset="0.1098" style="stop-color:#FFFCFA"/>
	<stop  offset="0.2444" style="stop-color:#FEF2EB"/>
	<stop  offset="0.392" style="stop-color:#FDE2D2"/>
	<stop  offset="0.5489" style="stop-color:#FBCBAF"/>
	<stop  offset="0.7132" style="stop-color:#F8AE82"/>
	<stop  offset="0.8811" style="stop-color:#F58B4D"/>
	<stop  offset="1" style="stop-color:#F36F22"/>
</linearGradient>
<path class="st61" d="M367.4,282.4c0.9-1.1,2.6-1.2,4.1-0.8c5.6,1.4,11.6,12.8,12.8,14.5c11.6,16.2,22.9,24.6,47.4,40.2
	c1.9,1.2,2.3,2.6,2,3.6 M367.4,282.4l-49,43.8l94.1,82.8l21.2-69.3"/>
<linearGradient id="SVGID_71_" gradientUnits="userSpaceOnUse" x1="496.7964" y1="397.2761" x2="497.5208" y2="352.5848">
	<stop  offset="0" style="stop-color:#FFFFFF"/>
	<stop  offset="0.1581" style="stop-color:#FFFDFC"/>
	<stop  offset="0.2951" style="stop-color:#FEF6F1"/>
	<stop  offset="0.4244" style="stop-color:#FDEADF"/>
	<stop  offset="0.5488" style="stop-color:#FCDAC6"/>
	<stop  offset="0.6699" style="stop-color:#FAC5A6"/>
	<stop  offset="0.7885" style="stop-color:#F8AB7E"/>
	<stop  offset="0.9027" style="stop-color:#F58D50"/>
	<stop  offset="1" style="stop-color:#F36F22"/>
</linearGradient>
<path class="st62" d="M452.1,343.4c0-1,4.9-2.4,16.2-2.4c9.3,0,22.3,3.9,34.4,4.3c16,0.5,30.2-2.3,30.2-1.1 M452.1,343.4l-11.6,56
	l112.4,0.7l-20-56"/>
<linearGradient id="SVGID_72_" gradientUnits="userSpaceOnUse" x1="333.2644" y1="144.6651" x2="378.8346" y2="163.1385">
	<stop  offset="0.1126" style="stop-color:#FFFFFF"/>
	<stop  offset="0.2718" style="stop-color:#FFFDFC"/>
	<stop  offset="0.3924" style="stop-color:#FEF7F2"/>
	<stop  offset="0.5003" style="stop-color:#FDECE2"/>
	<stop  offset="0.6009" style="stop-color:#FCDDCB"/>
	<stop  offset="0.6964" style="stop-color:#FBCAAD"/>
	<stop  offset="0.788" style="stop-color:#F9B289"/>
	<stop  offset="0.8766" style="stop-color:#F6965E"/>
	<stop  offset="0.9606" style="stop-color:#F4762D"/>
	<stop  offset="0.9775" style="stop-color:#F36F22"/>
</linearGradient>
<path class="st63" d="M382,147.6l-27.5-30.4l-32.6,59l49.7,0.6c5,0,8-6.4,11.3-14.7c1.3-3.4,2.2-10.1-0.3-13.8
	C382.4,148.1,382.2,147.8,382,147.6"/>
<radialGradient id="SVGID_74_" cx="451.3166" cy="280.2959" r="113.1017" gradientTransform="matrix(1.1971 0 0 0.2231 -49.5318 384.1371)" gradientUnits="userSpaceOnUse">
	<stop  offset="0" style="stop-color:#383838"/>
	<stop  offset="0.1046" style="stop-color:#444444"/>
	<stop  offset="0.2939" style="stop-color:#646464"/>
	<stop  offset="0.5449" style="stop-color:#979796"/>
	<stop  offset="0.5567" style="stop-color:#9A9A99"/>
	<stop  offset="0.6382" style="stop-color:#A6A6A5"/>
	<stop  offset="0.7867" style="stop-color:#C7C7C6"/>
	<stop  offset="0.9844" style="stop-color:#FBFBFB"/>
	<stop  offset="1" style="stop-color:#FFFFFF"/>
</radialGradient>
<ellipse style="opacity:0.5;fill:url(#SVGID_74_);" cx="490.7" cy="446.7" rx="135.4" ry="25.2"/>
<rect x="398.6" y="394" class="st23" width="268" height="83"/>
<text transform="matrix(1 0 0 1 398.5799 415.716)" class="st68 st69">CIYING WANG</text>
</svg>
