<?xml version="1.0" encoding="utf-8"?>
<!-- Generator: Adobe Illustrator 25.0.0, SVG Export Plug-In . SVG Version: 6.00 Build 0)  -->
<svg version="1.1" xmlns="http://www.w3.org/2000/svg" xmlns:xlink="http://www.w3.org/1999/xlink" x="0px" y="0px"
	 viewBox="0 0 1000 500" style="enable-background:new 0 0 1000 500;" xml:space="preserve">
<style type="text/css">
	.st0{fill:url(#SVGID_1_);stroke:#000000;stroke-miterlimit:10;}
	.st1{display:none;}
	.st2{display:inline;stroke:#000000;stroke-width:0.5;stroke-miterlimit:10;}
	.st3{display:inline;fill:none;stroke:#FFFFFF;stroke-width:0.5;stroke-miterlimit:10;}
	.st4{display:inline;}
	.st5{fill:none;stroke:#FFFFFF;stroke-width:0.5;stroke-miterlimit:10;}
	.st6{fill:none;stroke:#FFFFFF;stroke-width:3;stroke-miterlimit:10;}
	.st7{fill:none;stroke:#FFFFFF;stroke-miterlimit:10;}
	.st8{fill:none;stroke:#FFFFFF;stroke-width:2;stroke-linecap:square;stroke-linejoin:bevel;stroke-miterlimit:10;}
	.st9{fill:none;stroke:#FFFFFF;stroke-width:0.25;stroke-linejoin:bevel;stroke-miterlimit:10;}
	.st10{fill:none;stroke:#FFFFFF;stroke-width:5;stroke-linejoin:bevel;stroke-miterlimit:10;}
	.st11{fill:none;stroke:#FFFFFF;stroke-linecap:square;stroke-linejoin:bevel;stroke-miterlimit:10;}
	.st12{fill:url(#SVGID_2_);}
	.st13{fill:none;}
	.st14{fill:none;stroke:#FFFFFF;stroke-width:0.25;stroke-miterlimit:10;}
	.st15{fill:none;stroke:#FFFFFF;stroke-width:0.25;stroke-miterlimit:10;stroke-dasharray:0.9958,0.9958;}
	.st16{fill:url(#SVGID_3_);}
	.st17{fill:url(#SVGID_4_);}
</style>
<g id="background_1_">
	<linearGradient id="SVGID_1_" gradientUnits="userSpaceOnUse" x1="1013.921" y1="798.837" x2="80.0042" y2="-198.5304">
		<stop  offset="0" style="stop-color:#FFFFFF"/>
		<stop  offset="8.880717e-02" style="stop-color:#D3D3D3"/>
		<stop  offset="0.2298" style="stop-color:#949494"/>
		<stop  offset="0.3648" style="stop-color:#5F5F5F"/>
		<stop  offset="0.4899" style="stop-color:#363636"/>
		<stop  offset="0.6029" style="stop-color:#181818"/>
		<stop  offset="0.7" style="stop-color:#060606"/>
		<stop  offset="0.7699" style="stop-color:#000000"/>
	</linearGradient>
	<rect class="st0" width="1000" height="500"/>
</g>
<g id="图层_1">
	<g id="background" class="st1">
		<rect x="-8.2" y="577.4" class="st2" width="1000" height="500"/>
		<rect class="st2" width="1044" height="500"/>
		<rect x="-8.2" y="1141.6" class="st2" width="1000" height="500"/>
	</g>
	<g id="frame" class="st1">
		<rect x="602.4" y="645.9" class="st3" width="61.8" height="100"/>
		<rect x="664.2" y="645.9" class="st3" width="61.8" height="100"/>
		<line class="st3" x1="633.3" y1="645.9" x2="633.3" y2="745.9"/>
		<line class="st3" x1="695.1" y1="645.9" x2="695.1" y2="745.9"/>
		<g class="st4">
			<rect x="602.4" y="745.8" class="st5" width="123.6" height="76.4"/>
			<line class="st5" x1="602.4" y1="784.1" x2="726" y2="784.1"/>
		</g>
	</g>
	<line class="st5" x1="34.7" y1="-545.1" x2="-728.9" y2="-670.1"/>
	<line class="st5" x1="34.7" y1="-545.1" x2="-728.9" y2="-845.1"/>
	<line class="st5" x1="34.7" y1="-545.1" x2="-728.9" y2="-1045.1"/>
	<line class="st5" x1="34.7" y1="-545.1" x2="-456.2" y2="-1045.1"/>
	<line class="st5" x1="34.7" y1="-545.1" x2="-256.2" y2="-1045.1"/>
	<line class="st5" x1="34.7" y1="-545.1" x2="-92.6" y2="-1045.1"/>
	<line class="st5" x1="271.1" y1="-795.1" x2="-92.6" y2="-545.1"/>
	<line class="st5" x1="180.2" y1="-795.1" x2="-183.5" y2="-545.1"/>
	<line class="st5" x1="52.9" y1="-795.1" x2="-310.7" y2="-545.1"/>
	<line class="st5" x1="-110.7" y1="-795.1" x2="-474.4" y2="-545.1"/>
	<line class="st5" x1="-310.7" y1="-795.1" x2="-674.4" y2="-545.1"/>
	<line class="st5" x1="793.1" y1="-489.9" x2="1114.5" y2="-489.9"/>
	<line class="st5" x1="965.4" y1="-489.9" x2="965.4" y2="-339.9"/>
	<path class="st5" d="M812.5-467.5c0,0-17.8-8.2-19.3,8.2s14.8,30.4,14.8,30.4"/>
	<polyline class="st5" points="828.8,-467.2 833.1,-467.2 837.5,-467.2 	"/>
	<path class="st5" d="M833.1-428.9"/>
	<polyline class="st5" points="826.8,-428.9 833.1,-428.9 837.5,-428.9 	"/>
	<line class="st5" x1="833.1" y1="-467.2" x2="833.1" y2="-428.9"/>
	<polyline class="st5" points="852.8,-467.2 862.4,-453.6 873.3,-466.2 	"/>
	<line class="st5" x1="861.2" y1="-428.9" x2="862.4" y2="-453.6"/>
	<line class="st5" x1="885" y1="-465.7" x2="891.9" y2="-465.7"/>
	<polyline class="st5" points="886,-428.9 890.9,-428.9 893.9,-428.9 	"/>
	<line class="st5" x1="888.4" y1="-465.7" x2="888.4" y2="-428.9"/>
	<polyline class="st5" points="903.8,-428.9 908,-465.7 920.8,-428.9 923.3,-465.7 	"/>
	<path class="st5" d="M949-467.2c0,0-15.3-2.2-15.3,1.5s0,34.4,0,34.4s-0.2,3.7,4.9,4c5.2,0.2,8.4-1.5,8.4-1.5l2-18.4h-6.4"/>
	<path class="st6" d="M1144.3-460.4c0,0-16.3,2-16.3,16.8s4.9,23.8,4.9,23.8s4.9,4,11.4,2c6.4-2,14.4-15.3,14.4-15.3l9.6-21.3
		l-2.7,15.6c0,0-4.9,21.5-4,25.9c0.9,4.4,15.1,4.9,15.1,4.9s10.1-5.9,12.1-7.9s6.4-12.4,6.4-12.4l8.7-22.8v47.5"/>
	<g>
		<path class="st7" d="M796-394.4c8.9,0.1,17.8,0.2,26.7,0.4"/>
		<path class="st7" d="M800.5-387.4c0,0.9,0,1.7,0,2.6"/>
		<path class="st7" d="M806.1-384.4c0,0.6,0,1.2,0,1.9"/>
		<path class="st7" d="M812.8-383.8c0.5,1.6-1.1,3-2.7,3.4c-1.6,0.4-3.3,0.2-4.8,0.9"/>
		<path class="st7" d="M798.6-376.3c0,7.3,0,14.6,0,21.9"/>
		<path class="st7" d="M802.4-374.8c2.1-0.1,3.7-1.9,5.7-2.6c1.1-0.4,2.3-0.4,3.5-0.4c4,0,7.9,0,11.9,0c0.6,8.2,1,16.3,1.2,24.5"/>
		<path class="st7" d="M806.1-371.8c0,1.5,0,3,0,4.5"/>
		<path class="st7" d="M809.4-370.4c2.5,0.4,4.9,0.8,7.4,1.2"/>
		<path class="st7" d="M796-363.6c0.8,1.7,1.5,3.5,2.3,5.2"/>
		<path class="st7" d="M807.9-363.6c0.2,2.3,0.8,4.5,1.6,6.7"/>
		<path class="st7" d="M810.8-361.8c0.3,2.7-1,5.6-3.3,7.2c2.3-1.4,4.4-3,6.4-4.8"/>
		<path class="st7" d="M834.2-406.3c0.7,2.5,1.4,4.9,2.1,7.4"/>
		<path class="st7" d="M831.3-395.1c2.2-0.4,4.4-0.9,6.6-1.3"/>
		<path class="st7" d="M836.5-389.2c-0.2,3.1,0.2,6.3,1.1,9.3"/>
		<path class="st7" d="M834.3-377.4c2.1-0.4,4.1-2.8,6.1-3.2c0.8,0.7,2-0.4,2.3-1.4c0.8-2.2,0.8-4.6,0.8-6.9"/>
		<path class="st7" d="M832.9-365.5c5.5-1.1,10.9-2.6,16.2-4.3"/>
		<path class="st7" d="M843.1-374c-0.8,15-1,29.9-0.6,44.9"/>
		<path class="st7" d="M888.5-369.9c-0.1,1.3-0.1,2.6,0.2,3.8c2.2-3.8,4.4-7.7,6.5-11.6c0.3-0.7,0.7-1.4,0.6-2.1
			c-0.1-1.3-1.5-2.1-2.7-2.6c-9.2-3.9-9.7,0.6-10.7,8.8"/>
		<path class="st7" d="M888.4-375.1c3.3,2.7,6.5,5.3,9.8,8"/>
		<path class="st7" d="M879.7-362.1c1.3,2.5,2.7,5.1,4,7.6"/>
		<path class="st7" d="M889.9-360.6c5.2-0.5,10.4-0.6,15.6-0.3c0.4,0,0.8,0.1,1.1,0.4c0.3,0.3,0.2,0.9,0.1,1.3
			c-0.2,0.9-0.4,1.8-0.6,2.8c-0.4,1.9-0.9,4-2.2,5.5s-3.9,2-5.3,0.6"/>
		<path class="st7" d="M887.8-357.3c-0.2,0.6-0.1,1.4,0.3,1.8c0.5-0.4,1-0.7,1.5-1.1"/>
		<path class="st7" d="M894.4-358.8c0,2.5,0,5.1,0,7.6c-3.5-0.3-7-1-10.4-2.1"/>
		<path class="st7" d="M879.1-354.4c-0.1,0.4-0.2,0.8-0.3,1.2c9.9,2.9,20.4,2.7,30.7,2.4"/>
		<path class="st7" d="M871.7-393.3c0,9.8,0,19.7,0,29.5c0-1.9,0-3.9,0-5.8"/>
		<path class="st7" d="M876.2-387.4c6.4-3.4,14.2-1.6,21.1,0.3c0,1.4,0.1,2.8,0.1,4.3c2.7-0.8,5.7,0.6,7.2,2.8
			c1.6,2.3,1.9,5.2,1.5,8c-0.4,2.7-1.5,5.3-2.6,7.9"/>
	</g>
	<g>
		<path class="st7" d="M813.6-305.7c0.4,11.8,2.6,23.6,6.4,34.8c2.3-2.8,4.2-6,5.7-9.3c2.9-6.6,3.8-13.9,4.8-21
			c1.1,10.6,4.4,21,9.6,30.3c0.2,0.3,0.4,0.7,0.8,0.9c0.8,0.3,1.5-0.7,1.8-1.6c3.1-9.1,5.2-18.6,6.4-28.2"/>
		<path class="st7" d="M868.4-275c1.4-9.9,2.9-19.8,4.3-29.6c2.5,6.8,6.1,12.2,10,18.4c1.8,3,3.9,6.3,3.3,9.8"/>
		<path class="st7" d="M864.1-284.6c7.6-1.4,15.2-2.9,22.8-4.3"/>
		<path class="st7" d="M926.6-296.8c-1.9,8.8-5.4,17.2-10.3,24.7c-2.5-8.1-6.2-15.7-11-22.7"/>
		<path class="st7" d="M946-306.6c-2.3,2.8-4.7,5.6-6,9c-0.9,2.2-1.3,4.5-1.6,6.9c-1.1,7.5-1.8,15-2,22.5c5.5-3.6,10.7-7.6,15.5-12
			c0,3.2-0.1,6.4-0.1,9.6"/>
		<path class="st7" d="M946.8-283.1c5-0.6,9.9-1.1,14.9-1.7"/>
		<path class="st7" d="M904.9-294.3c-0.3,8.8-1.6,17.6-3.8,26.2"/>
	</g>
	<path class="st7" d="M981.7-385.2c3.9,0.9,7.9,1.2,11.9,0.8"/>
	<path class="st7" d="M983.2-367.7c3.5-0.1,7-0.5,10.4-1.5"/>
	<path class="st7" d="M987.2-378.6c-0.2,7.4,0,14.9,0.5,22.3"/>
	<path class="st7" d="M976.8-352.5c12.4-0.4,24.7-0.8,37.1-1.2"/>
	<path class="st6" d="M576.6-234.1c3.2-11.6,7.5-22.9,12.8-33.7c3.3-6.7,7.3-13.4,13.7-17.3c7-4.3,15.8-4.3,24-3.6
		c11.3,1,23.4,3.8,30.6,12.5c13.3,15.9,3.2,40.3,8,60.5c0.5,2.1,1.2,4.2,2.8,5.6c2.1,1.8,5.1,1.9,7.9,1.9c5.6,0,11.3,0,16.5-2
		c15.2-5.8,19.7-25.1,30.7-37.1c17.2-18.7,46.7-16.8,71.8-13.5c2.6,0.3,5.3,0.8,7.2,2.5c1.2,1.2,1.9,2.8,2.5,4.3
		c5.1,14.9,0.6,35.1,13.7,43.8c4.1,2.7,9.1,3.5,14,3.8c26.7,1.6,53.7-12.2,68.1-34.7"/>
	<path class="st6" d="M1146.7-362.1c0,0-12.1,26.2-14.6,60.9c-2.5,34.6,8.9,63.6,36.1,69.8c27.2,6.2,60.1-14.4,62.1-32.9
		c2-18.6,6.9-89.8,6.9-89.8h3.5c0,0-0.7,65.3,2,87.8c2.7,22.5,14.4,35.6,38.6,40.3c24.2,4.7,50.7,1.2,57.9-15.1
		c7.2-16.3,19.3-116.3,19.3-116.3l7.2-0.5c0,0-23.8,156.1-24.2,174.7c-0.5,18.6,1.5,33.2,16.3,34.9c14.8,1.7,23,1.2,23,1.2"/>
	<polyline class="st8" points="1630.4,-528.8 1608.5,-494.4 1630.4,-451.2 1663.3,-528.8 1684,-451.2 1718.2,-528.8 1699.6,-427.4 	
		"/>
	<path class="st9" d="M1415-559.6c0,0-17.5,8.4-25.1,32.6c-12.2,38.7-2.5,62.4,24.2,62.4c26.7,0,36.6-97.3,36.6-97.3
		s-15,98.3,22.6,97.9c25.5-0.3,33.4-97.9,33.4-97.9l-15.2,138.2"/>
	<path class="st10" d="M1468.4-283c0,0-17.5,8.4-25.1,32.6c-12.2,38.7-2.5,62.4,24.2,62.4c26.7,0,36.6-97.3,36.6-97.3
		s-15,98.3,22.6,97.9c25.5-0.3,33.4-97.9,33.4-97.9l-15.2,138.2"/>
	<polyline class="st11" points="1664,-355.4 1635,-337.3 1645.6,-277.6 1659.5,-277.6 1689.9,-355.4 1695.7,-277.8 1710.5,-277.8 
		1735,-355.4 1744.8,-355.4 1726.1,-254 	"/>
	<linearGradient id="SVGID_2_" gradientUnits="userSpaceOnUse" x1="471.2415" y1="267.7042" x2="912.7252" y2="267.7042">
		<stop  offset="0" style="stop-color:#8C8C8C"/>
		<stop  offset="4.293425e-02" style="stop-color:#888888"/>
		<stop  offset="0.4247" style="stop-color:#6A6A6A"/>
		<stop  offset="0.6393" style="stop-color:#5E5E5E"/>
		<stop  offset="0.8869" style="stop-color:#241916"/>
	</linearGradient>
	<polygon class="st12" points="867.4,469.7 912.7,65.7 877.9,66.7 747.3,342.3 705,341 717.8,112.2 662.6,111.6 554.1,348.6 
		532.4,349.2 530.2,339.8 484.8,146.5 570.8,65.7 471.2,145.7 512.1,377.9 580.5,377.9 674.1,123.5 700.6,123.5 663.2,379.7 
		766,380.2 889.1,75.4 897.7,75.4 825.3,469.7 	"/>
	<g>
		<line class="st13" x1="331.1" y1="-1130.8" x2="472.5" y2="-1130.8"/>
		<g>
			<line class="st14" x1="331.1" y1="-1130.8" x2="331.6" y2="-1130.8"/>
			<line class="st15" x1="332.6" y1="-1130.8" x2="471.5" y2="-1130.8"/>
			<line class="st14" x1="472" y1="-1130.8" x2="472.5" y2="-1130.8"/>
		</g>
	</g>
	<g id="rectangle">
		<rect x="388.6" y="1321.8" width="185.6" height="75"/>
	</g>
	<g id="text">
		<rect x="-445.5" y="58.2" class="st13" width="63.8" height="16.7"/>
		<text transform="matrix(1 0 0 1 -445.5378 70.4504)" style="font-family:'GillSansMT'; font-size:18px;">CIYING</text>
		<text transform="matrix(1 0 0 1 -445.5378 70.4504)" class="st14" style="font-family:'GillSansMT'; font-size:18px;">CIYING</text>
		<line class="st14" x1="-456.1" y1="79.2" x2="-302.7" y2="79.2"/>
		<path class="st9" d="M-414.4,87.6c0,0-2.6,1.2-3.7,4.8c-1.8,5.7-0.4,9.1,3.5,9.1s5.4-14.3,5.4-14.3s-2.2,14.4,3.3,14.3
			c3.7,0,4.9-14.3,4.9-14.3l-2.2,20.2"/>
		<rect x="-369.5" y="89.9" class="st13" width="63.8" height="16.7"/>
		<text transform="matrix(1 0 0 1 -369.5172 102.2222)" style="font-family:'GillSansMT'; font-size:18px;">WANG</text>
		<text transform="matrix(1 0 0 1 -369.5172 102.2222)" class="st14" style="font-family:'GillSansMT'; font-size:18px;">WANG</text>
	</g>
	<linearGradient id="SVGID_3_" gradientUnits="userSpaceOnUse" x1="1084.2061" y1="318.6641" x2="1084.2061" y2="318.6641">
		<stop  offset="0" style="stop-color:#8C8C8C"/>
		<stop  offset="4.293425e-02" style="stop-color:#888888"/>
		<stop  offset="0.4247" style="stop-color:#6A6A6A"/>
		<stop  offset="0.6393" style="stop-color:#5E5E5E"/>
		<stop  offset="0.8869" style="stop-color:#241916"/>
	</linearGradient>
	<path class="st16" d="M1084.2,318.7"/>
	<linearGradient id="SVGID_4_" gradientUnits="userSpaceOnUse" x1="488.4199" y1="633.0458" x2="488.4199" y2="633.0458">
		<stop  offset="0" style="stop-color:#8C8C8C"/>
		<stop  offset="4.293425e-02" style="stop-color:#888888"/>
		<stop  offset="0.4247" style="stop-color:#6A6A6A"/>
		<stop  offset="0.6393" style="stop-color:#5E5E5E"/>
		<stop  offset="0.8869" style="stop-color:#241916"/>
	</linearGradient>
	<path class="st17" d="M488.4,633"/>
</g>
</svg>
