<?xml version="1.0" encoding="utf-8"?>
<!-- Generator: Adobe Illustrator 25.2.3, SVG Export Plug-In . SVG Version: 6.00 Build 0)  -->
<svg version="1.1" xmlns="http://www.w3.org/2000/svg" xmlns:xlink="http://www.w3.org/1999/xlink" x="0px" y="0px"
	 viewBox="0 0 1000 500" style="enable-background:new 0 0 1000 500;" xml:space="preserve">
<style type="text/css">
	.st0{stroke:#000000;stroke-width:0.5;stroke-miterlimit:10;}
	.st1{display:none;}
	.st2{display:inline;fill:none;stroke:#FFFFFF;stroke-width:0.5;stroke-miterlimit:10;}
	.st3{display:inline;}
	.st4{fill:none;stroke:#FFFFFF;stroke-width:0.5;stroke-miterlimit:10;}
	.st5{fill:#FFFFFF;stroke:#FFFFFF;stroke-width:0.5;stroke-miterlimit:10;}
	.st6{fill:none;stroke:#FFFFFF;stroke-width:3;stroke-miterlimit:10;}
	.st7{fill:none;stroke:#FFFFFF;stroke-miterlimit:10;}
	.st8{fill:none;stroke:#FFFFFF;stroke-width:2;stroke-linecap:square;stroke-linejoin:bevel;stroke-miterlimit:10;}
	.st9{fill:none;stroke:#FFFFFF;stroke-width:0.25;stroke-linejoin:bevel;stroke-miterlimit:10;}
	.st10{fill:none;stroke:#FFFFFF;stroke-width:5;stroke-linejoin:bevel;stroke-miterlimit:10;}
	.st11{fill:none;stroke:#FFFFFF;stroke-linecap:square;stroke-linejoin:bevel;stroke-miterlimit:10;}
	.st12{fill:none;stroke:#FFFFFF;stroke-width:0.5;stroke-linecap:square;stroke-linejoin:bevel;stroke-miterlimit:10;}
	.st13{fill:url(#SVGID_1_);}
	.st14{fill:none;stroke:#FFFFFF;stroke-width:0.25;stroke-miterlimit:10;}
	.st15{fill:none;stroke:#FFFFFF;stroke-width:0.25;stroke-miterlimit:10;stroke-dasharray:0.9958,0.9958;}
	.st16{fill:none;}
	.st17{stroke:#FFFFFF;stroke-width:0.25;stroke-miterlimit:10;}
	.st18{font-family:'GillSansMT';}
	.st19{font-size:18px;}
</style>
<g id="background">
	<rect x="-8.2" y="577.4" class="st0" width="1000" height="500"/>
	<rect class="st0" width="1000" height="500"/>
	<rect x="-8.2" y="1141.6" class="st0" width="1000" height="500"/>
</g>
<g id="frame" class="st1">
	<rect x="602.4" y="645.9" class="st2" width="61.8" height="100"/>
	<rect x="664.2" y="645.9" class="st2" width="61.8" height="100"/>
	<line class="st2" x1="633.3" y1="645.9" x2="633.3" y2="745.9"/>
	<line class="st2" x1="695.1" y1="645.9" x2="695.1" y2="745.9"/>
	<g class="st3">
		
			<rect x="626" y="722.3" transform="matrix(4.488860e-11 -1 1 4.488860e-11 -119.8852 1448.2213)" class="st4" width="76.4" height="123.6"/>
		<line class="st4" x1="602.4" y1="784.1" x2="726" y2="784.1"/>
	</g>
</g>
<g id="Layer_1" zoomAndPan="disable">
	<line class="st4" x1="-746.1" y1="662.7" x2="-1509.7" y2="537.7"/>
	<line class="st4" x1="-746.1" y1="662.7" x2="-1509.7" y2="362.7"/>
	<line class="st4" x1="-746.1" y1="662.7" x2="-1509.7" y2="162.7"/>
	<line class="st4" x1="-746.1" y1="662.7" x2="-1237" y2="162.7"/>
	<line class="st4" x1="-746.1" y1="662.7" x2="-1037" y2="162.7"/>
	<line class="st4" x1="-746.1" y1="662.7" x2="-873.4" y2="162.7"/>
	<line class="st4" x1="-509.7" y1="412.7" x2="-873.4" y2="662.7"/>
	<line class="st4" x1="-600.6" y1="412.7" x2="-964.3" y2="662.7"/>
	<line class="st4" x1="-727.9" y1="412.7" x2="-1091.5" y2="662.7"/>
	<line class="st4" x1="-891.5" y1="412.7" x2="-1255.2" y2="662.7"/>
	<line class="st4" x1="-1091.5" y1="412.7" x2="-1455.2" y2="662.7"/>
	<line class="st5" x1="12.3" y1="717.9" x2="333.7" y2="717.9"/>
	<line class="st5" x1="184.6" y1="717.9" x2="184.6" y2="867.9"/>
	<path class="st4" d="M31.7,740.3c0,0-17.8-8.2-19.3,8.2s14.8,30.4,14.8,30.4"/>
	<polyline class="st4" points="48,740.6 52.3,740.6 56.7,740.6 	"/>
	<path class="st4" d="M52.3,778.9"/>
	<polyline class="st4" points="46,778.9 52.3,778.9 56.7,778.9 	"/>
	<line class="st4" x1="52.3" y1="740.6" x2="52.3" y2="778.9"/>
	<polyline class="st4" points="72,740.6 81.6,754.2 92.5,741.6 	"/>
	<line class="st4" x1="80.4" y1="778.9" x2="81.6" y2="754.2"/>
	<line class="st4" x1="104.2" y1="742.1" x2="111.1" y2="742.1"/>
	<polyline class="st4" points="105.2,778.9 110.1,778.9 113.1,778.9 	"/>
	<line class="st4" x1="107.6" y1="742.1" x2="107.6" y2="778.9"/>
	<polyline class="st4" points="123,778.9 127.2,742.1 140,778.9 142.5,742.1 	"/>
	<path class="st4" d="M168.2,740.6c0,0-15.3-2.2-15.3,1.5c0,3.7,0,34.4,0,34.4s-0.2,3.7,4.9,4c5.2,0.2,8.4-1.5,8.4-1.5l2-18.4h-6.4"
		/>
	<path class="st6" d="M363.5,747.4c0,0-16.3,2-16.3,16.8c0,14.8,4.9,23.8,4.9,23.8s4.9,4,11.4,2c6.4-2,14.4-15.3,14.4-15.3l9.6-21.3
		l-2.7,15.6c0,0-4.9,21.5-4,25.9s15.1,4.9,15.1,4.9s10.1-5.9,12.1-7.9s6.4-12.4,6.4-12.4l8.7-22.8v47.5"/>
	<g>
		<path class="st7" d="M15.2,813.4c8.9,0.1,17.8,0.2,26.7,0.4"/>
		<path class="st7" d="M19.7,820.4c0,0.9,0,1.7,0,2.6"/>
		<path class="st7" d="M25.3,823.4c0,0.6,0,1.2,0,1.9"/>
		<path class="st7" d="M32,824c0.5,1.6-1.1,3-2.7,3.4c-1.6,0.4-3.3,0.2-4.8,0.9"/>
		<path class="st7" d="M17.8,831.5c0,7.3,0,14.6,0,21.9"/>
		<path class="st7" d="M21.6,833c2.1-0.1,3.7-1.9,5.7-2.6c1.1-0.4,2.3-0.4,3.5-0.4c4,0,7.9,0,11.9,0c0.6,8.2,1,16.3,1.2,24.5"/>
		<path class="st7" d="M25.3,836c0,1.5,0,3,0,4.5"/>
		<path class="st7" d="M28.6,837.4c2.5,0.4,4.9,0.8,7.4,1.2"/>
		<path class="st7" d="M15.2,844.2c0.8,1.7,1.5,3.5,2.3,5.2"/>
		<path class="st7" d="M27.1,844.2c0.2,2.3,0.8,4.5,1.6,6.7"/>
		<path class="st7" d="M30,846c0.3,2.7-1,5.6-3.3,7.2c2.3-1.4,4.4-3,6.4-4.8"/>
		<path class="st7" d="M53.4,801.5c0.7,2.5,1.4,4.9,2.1,7.4"/>
		<path class="st7" d="M50.5,812.7c2.2-0.4,4.4-0.9,6.6-1.3"/>
		<path class="st7" d="M55.7,818.6c-0.2,3.1,0.2,6.3,1.1,9.3"/>
		<path class="st7" d="M53.5,830.4c2.1-0.4,4.1-2.8,6.1-3.2c0.8,0.7,2-0.4,2.3-1.4c0.8-2.2,0.8-4.6,0.8-6.9"/>
		<path class="st7" d="M52.1,842.3c5.5-1.1,10.9-2.6,16.2-4.3"/>
		<path class="st7" d="M62.3,833.8c-0.8,15-1,29.9-0.6,44.9"/>
		<path class="st7" d="M107.7,837.9c-0.1,1.3-0.1,2.6,0.2,3.8c2.2-3.8,4.4-7.7,6.5-11.6c0.3-0.7,0.7-1.4,0.6-2.1
			c-0.1-1.3-1.5-2.1-2.7-2.6c-9.2-3.9-9.7,0.6-10.7,8.8"/>
		<path class="st7" d="M107.6,832.7c3.3,2.7,6.5,5.3,9.8,8"/>
		<path class="st7" d="M98.9,845.7c1.3,2.5,2.7,5.1,4,7.6"/>
		<path class="st7" d="M109.1,847.2c5.2-0.5,10.4-0.6,15.6-0.3c0.4,0,0.8,0.1,1.1,0.4c0.3,0.3,0.2,0.9,0.1,1.3
			c-0.2,0.9-0.4,1.8-0.6,2.8c-0.4,1.9-0.9,4-2.2,5.5s-3.9,2-5.3,0.6"/>
		<path class="st7" d="M107,850.5c-0.2,0.6-0.1,1.4,0.3,1.8c0.5-0.4,1-0.7,1.5-1.1"/>
		<path class="st7" d="M113.6,849c0,2.5,0,5.1,0,7.6c-3.5-0.3-7-1-10.4-2.1"/>
		<path class="st7" d="M98.3,853.4c-0.1,0.4-0.2,0.8-0.3,1.2c9.9,2.9,20.4,2.7,30.7,2.4"/>
		<path class="st7" d="M90.9,814.5c0,9.8,0,19.7,0,29.5c0-1.9,0-3.9,0-5.8"/>
		<path class="st7" d="M95.4,820.4c6.4-3.4,14.2-1.6,21.1,0.3c0,1.4,0.1,2.8,0.1,4.3c2.7-0.8,5.7,0.6,7.2,2.8c1.6,2.3,1.9,5.2,1.5,8
			c-0.4,2.7-1.5,5.3-2.6,7.9"/>
	</g>
	<g>
		<path class="st7" d="M32.8,902.1c0.4,11.8,2.6,23.6,6.4,34.8c2.3-2.8,4.2-6,5.7-9.3c2.9-6.6,3.8-13.9,4.8-21
			c1.1,10.6,4.4,21,9.6,30.3c0.2,0.3,0.4,0.7,0.8,0.9c0.8,0.3,1.5-0.7,1.8-1.6c3.1-9.1,5.2-18.6,6.4-28.2"/>
		<path class="st7" d="M87.6,932.8c1.4-9.9,2.9-19.8,4.3-29.6c2.5,6.8,6.1,12.2,10,18.4c1.8,3,3.9,6.3,3.3,9.8"/>
		<path class="st7" d="M83.3,923.2c7.6-1.4,15.2-2.9,22.8-4.3"/>
		<path class="st7" d="M145.8,911c-1.9,8.8-5.4,17.2-10.3,24.7c-2.5-8.1-6.2-15.7-11-22.7"/>
		<path class="st7" d="M165.2,901.2c-2.3,2.8-4.7,5.6-6,9c-0.9,2.2-1.3,4.5-1.6,6.9c-1.1,7.5-1.8,15-2,22.5
			c5.5-3.6,10.7-7.6,15.5-12c0,3.2-0.1,6.4-0.1,9.6"/>
		<path class="st7" d="M166,924.7c5-0.6,9.9-1.1,14.9-1.7"/>
		<path class="st7" d="M124.1,913.5c-0.3,8.8-1.6,17.6-3.8,26.2"/>
	</g>
	<path class="st7" d="M200.9,822.6c3.9,0.9,7.9,1.2,11.9,0.8"/>
	<path class="st7" d="M202.4,840.1c3.5-0.1,7-0.5,10.4-1.5"/>
	<path class="st7" d="M206.4,829.2c-0.2,7.4,0,14.9,0.5,22.3"/>
	<path class="st7" d="M196,855.3c12.4-0.4,24.7-0.8,37.1-1.2"/>
	<path class="st6" d="M-204.2,973.7c3.2-11.6,7.5-22.9,12.8-33.7c3.3-6.7,7.3-13.4,13.7-17.3c7-4.3,15.8-4.3,24-3.6
		c11.3,1,23.4,3.8,30.6,12.5c13.3,15.9,3.2,40.3,8,60.5c0.5,2.1,1.2,4.2,2.8,5.6c2.1,1.8,5.1,1.9,7.9,1.9c5.6,0,11.3,0,16.5-2
		c15.2-5.8,19.7-25.1,30.7-37.1c17.2-18.7,46.7-16.8,71.8-13.5c2.6,0.3,5.3,0.8,7.2,2.5c1.2,1.2,1.9,2.8,2.5,4.3
		c5.1,14.9,0.6,35.1,13.7,43.8c4.1,2.7,9.1,3.5,14,3.8c26.7,1.6,53.7-12.2,68.1-34.7"/>
	<path class="st6" d="M365.9,845.7c0,0-12.1,26.2-14.6,60.9c-2.5,34.6,8.9,63.6,36.1,69.8c27.2,6.2,60.1-14.4,62.1-32.9
		c2-18.6,6.9-89.8,6.9-89.8h3.5c0,0-0.7,65.3,2,87.8c2.7,22.5,14.4,35.6,38.6,40.3c24.2,4.7,50.7,1.2,57.9-15.1
		c7.2-16.3,19.3-116.3,19.3-116.3l7.2-0.5c0,0-23.8,156.1-24.2,174.7c-0.5,18.6,1.5,33.2,16.3,34.9s23,1.2,23,1.2"/>
	<polyline class="st8" points="849.6,679 827.7,713.4 849.6,756.6 882.5,679 903.2,756.6 937.4,679 918.8,780.4 	"/>
	<path class="st9" d="M634.2,648.2c0,0-17.5,8.4-25.1,32.6c-12.2,38.7-2.5,62.4,24.2,62.4c26.7,0,36.6-97.3,36.6-97.3
		s-15,98.3,22.6,97.9c25.5-0.3,33.4-97.9,33.4-97.9l-15.2,138.2"/>
	<path class="st10" d="M687.6,924.8c0,0-17.5,8.4-25.1,32.6c-12.2,38.7-2.5,62.4,24.2,62.4c26.7,0,36.6-97.3,36.6-97.3
		s-15,98.3,22.6,97.9c25.5-0.3,33.4-97.9,33.4-97.9l-15.2,138.2"/>
	<polyline class="st11" points="883.2,852.4 854.2,870.5 864.8,930.2 878.7,930.2 909.1,852.4 914.9,930 929.7,930 954.2,852.4 
		964,852.4 945.3,953.8 	"/>
	<polyline class="st12" points="383.6,2.8 242.9,90.7 294,381.1 362,381.1 509.5,2.8 537.5,379.9 609.8,379.8 728.7,2.8 776.2,2.8 
		685.7,495.9 	"/>
	<g>
		<linearGradient id="SVGID_1_" gradientUnits="userSpaceOnUse" x1="409.8526" y1="211.1315" x2="551.2547" y2="211.1315">
			<stop  offset="0" style="stop-color:#FFFFFF"/>
			<stop  offset="0" style="stop-color:#161616"/>
			<stop  offset="0.8144" style="stop-color:#000000"/>
		</linearGradient>
		<line class="st13" x1="409.9" y1="211.1" x2="551.3" y2="211.1"/>
		<g>
			<line class="st14" x1="409.9" y1="211.1" x2="410.4" y2="211.1"/>
			<line class="st15" x1="411.3" y1="211.1" x2="550.3" y2="211.1"/>
			<line class="st14" x1="550.8" y1="211.1" x2="551.3" y2="211.1"/>
		</g>
	</g>
</g>
<g id="rectangle">
	<rect x="388.6" y="1321.8" width="185.6" height="75"/>
</g>
<g id="text">
	<rect x="414" y="192.3" class="st16" width="63.8" height="16.7"/>
	<text transform="matrix(1 0 0 1 414.0085 204.6027)" class="st17 st18 st19">CIYING</text>
	<line class="st14" x1="403.4" y1="213.4" x2="556.8" y2="213.4"/>
	<path class="st9" d="M445.2,221.7c0,0-2.6,1.2-3.7,4.8c-1.8,5.7-0.4,9.1,3.5,9.1s5.4-14.3,5.4-14.3s-2.2,14.4,3.3,14.3
		c3.7,0,4.9-14.3,4.9-14.3l-2.2,20.2"/>
	<rect x="490" y="224.1" class="st16" width="63.8" height="16.7"/>
	<text transform="matrix(1 0 0 1 490.0292 236.3744)" class="st17 st18 st19">WANG</text>
</g>
</svg>
